<svg xmlns="http://www.w3.org/2000/svg" viewBox="0 0 1478.48 1167.79"><defs><style>.cls-1{fill:#d2e0ff;}.cls-2{fill:#f8fcff;}</style></defs><g id="Layer_2" data-name="Layer 2"><g id="_лой_1" data-name="‘лой_1"><g id="cloud"><path class="cls-1" d="M177.38,467s21.54-52.1,73.06-46.31c0,0,74.79-86.82,154.54-11.57,0,0,84.78-18.65,147.57,16.14,41.86,23.19,55.68,47.52,55.68,47.52Z"/><path class="cls-2" d="M252,494.85s15.81-35.52,53.62-31.57c0,0,54.88-59.19,113.41-7.89,0,0,62.21-12.71,108.29,11,30.72,15.82,40.86,32.4,40.86,32.4Z"/><path class="cls-2" d="M1061.26,478.9s20.86-44,70.74-39.14c0,0,72.43-73.39,149.66-9.78,0,0,82.09-15.77,142.89,13.64,40.54,19.61,53.93,40.17,53.93,40.17Z"/><path class="cls-2" d="M240,48.62S256,20,294.19,23.2c0,0,55.44-47.66,114.57-6.36,0,0,62.85-10.23,109.39,8.87,31,12.73,41.28,26.08,41.28,26.08Z"/><path class="cls-1" d="M0,1144.51s16-38.59,54.12-34.3c0,0,55.4-64.32,114.48-8.58,0,0,62.8-13.81,109.31,12,31,17.18,41.25,35.2,41.25,35.2Z"/><path class="cls-2" d="M147.82,1164.87s11.71-26.31,39.72-23.38c0,0,40.65-43.85,84-5.85,0,0,46.09-9.42,80.22,8.15,22.75,11.72,30.27,24,30.27,24Z"/></g></g></g></svg>