<svg xmlns="http://www.w3.org/2000/svg" viewBox="0 0 3188.51 1772.61"><defs><style>.cls-1{isolation:isolate;}.cls-2{fill:#eafcfc;}.cls-18,.cls-3{fill:#fff;}.cls-3{opacity:0.8;}.cls-4{fill:#c5ddf9;mix-blend-mode:multiply;}.cls-22,.cls-4{opacity:0.5;}.cls-5{fill:#86b1f2;}.cls-6{fill:#355389;}.cls-7{fill:#3c8f7c;}.cls-8{fill:#50bfa5;}.cls-9{fill:#96d9c9;}.cls-10{fill:#184655;}.cls-11{fill:#f8c48b;}.cls-12{fill:#ee944c;}.cls-13{fill:#f7a491;}.cls-14{fill:#f7cc7f;}.cls-15{fill:#466eb6;}.cls-16{fill:#f47458;}.cls-17,.cls-22{fill:#b75742;}.cls-19{fill:#13375b;}.cls-20{fill:#fae0b2;}.cls-21{fill:#f48c7f;}.cls-23{fill:#ed9a8c;}.cls-24{fill:#29446d;}.cls-25{fill:#4e9b87;}</style></defs><g class="cls-1"><g id="Layer_2" data-name="Layer 2"><g id="Layer_1-2" data-name="Layer 1"><path class="cls-2" d="M3088.61,1770.33c102.59-142.61,36.44-1060.89-129-1153.91C2778,514.23,2632,684.54,2489.19,549.29c-62.27-59-10.82-205.38-139.52-253.46-180.78-67.55-633.79,186.34-562.41-1S1373-21.76,909.86,3.05,532.67,281.8,539.16,322.88s74.62,239.44-189.28,330.61S146.55,868.89,172.51,940c22.61,62,150.34,135.25-35.69,295.54-154.88,133.46-114,464.93-69,532.91Z"/><path class="cls-3" d="M1124.23,601.47c-6-24-29.12-41.89-56.83-41.89a62.39,62.39,0,0,0-14.72,1.74c-13.68-27.09-43.35-45.86-77.77-45.86A92,92,0,0,0,949.36,519c-18.52-28.41-52.18-47.42-90.63-47.42-45.75,0-84.71,26.9-99.48,64.55A76.74,76.74,0,0,0,724,527.69c-40.1,0-72.61,30.11-72.61,67.25a61.25,61.25,0,0,0,.35,6.53Z"/><path class="cls-3" d="M1032.28,251.47c5.08-20.49,24.87-35.77,48.53-35.77a53.54,53.54,0,0,1,12.57,1.48c11.68-23.13,37-39.16,66.41-39.16a78.56,78.56,0,0,1,21.81,3.06c15.82-24.26,44.56-40.49,77.4-40.49,39.06,0,72.34,23,84.94,55.12a65.58,65.58,0,0,1,30.14-7.25c34.25,0,62,25.72,62,57.44a54.09,54.09,0,0,1-.3,5.57Z"/><path class="cls-3" d="M1488.6,567.47c2.85-11.52,14-20.11,27.28-20.11a29.74,29.74,0,0,1,7.06.84c6.57-13,20.81-22,37.33-22a44.45,44.45,0,0,1,12.26,1.72c8.9-13.64,25-22.76,43.51-22.76,22,0,40.66,12.91,47.75,31a36.85,36.85,0,0,1,16.94-4.08c19.25,0,34.85,14.46,34.85,32.29,0,1-.06,2.1-.16,3.13Z"/><path class="cls-3" d="M2128.4,649.47c4.46-18,21.82-31.38,42.57-31.38a47,47,0,0,1,11,1.31c10.24-20.29,32.47-34.35,58.25-34.35a69.07,69.07,0,0,1,19.13,2.68c13.88-21.28,39.09-35.51,67.89-35.51,34.26,0,63.44,20.14,74.5,48.34a57.56,57.56,0,0,1,26.44-6.35c30,0,54.38,22.55,54.38,50.37a46.53,46.53,0,0,1-.26,4.89Z"/><polygon class="cls-4" points="2943 1326.47 2861 1326.47 2861 1160.47 2815 1160.47 2815 1234.47 2750 1234.47 2750 1210.71 2750 1064.47 2644 1064.47 2644 1220.31 2612 1221.31 2612 1063.47 2575 1063.47 2575 996.47 2552 996.47 2552 951.47 2465 951.47 2465 996.47 2442 996.47 2442 1063.47 2405 1063.47 2405 1148.05 2387.93 1149.05 2382.8 898.47 2268 898.47 2268 1033.48 2228 1034.49 2228 823.47 2214 823.47 2214 779.47 2093 779.47 2093 823.47 2079 823.47 2079 1069.47 2053 1069.47 2053 1017.47 2032 1017.47 2032 974.47 2001 974.47 2001 848.47 1956 848.47 1956 974.47 1925 974.47 1925 1017.47 1904 1017.47 1904 1102.47 1878 1102.32 1878 994.47 1563 997.29 1563 1144.47 1536 1144.47 1536 1093.47 1470 1093.47 1470 750.47 1410 750.47 1410 785.47 1382 785.47 1382 1065.47 1286 1065.47 1286 1116.47 1205 1116.47 1205 997.15 1077 994.33 1077 1166.47 1064.92 1167.47 1050 1167.47 1050 1017.47 1029 1017.47 1029 974.47 998 974.47 998 848.47 953 848.47 953 974.47 922 974.47 922 1017.47 901 1017.47 901 1106.47 875 1106.47 875 823.47 862 823.47 862 779.47 741 779.47 741 823.47 726 823.47 726 1034.49 686 1033.48 686 898.47 621 898.47 619.98 1150.65 602 1149.65 602 894.47 512 894.47 512 827.47 489 827.47 489 782.47 402 782.47 402 827.47 380 827.47 380 1063.47 343 1063.47 343 1220.6 311 1219.6 311 1064.07 204 1167.46 204 1210.65 204 1234.47 133 1234.47 133 1756.47 1554.33 1757.47 2943 1757.4 2943 1326.47"/><path class="cls-5" d="M2102,1715.54c-385.72-41.45-868.77-443.95-1196.35-490.89-345.41-49.5-700.46,501.82-700.46,501.82L2102,1721.64Z"/><rect class="cls-6" x="789" y="1298.47" width="17" height="190"/><polygon class="cls-7" points="797.2 931.11 741.35 1382.47 853.05 1382.47 797.2 931.11"/><polygon class="cls-8" points="761.61 1218.74 841.24 1287.03 838.18 1262.28 764.08 1198.74 761.61 1218.74"/><polygon class="cls-8" points="773.85 1119.8 822.61 1136.47 820.32 1117.95 775.96 1102.78 773.85 1119.8"/><rect class="cls-6" x="956" y="1347.47" width="15" height="143"/><polygon class="cls-7" points="965.28 1093.71 925.19 1381.47 1005.37 1381.47 965.28 1093.71"/><polygon class="cls-8" points="927.73 1363.31 999.67 1340.63 998.58 1332.83 928.92 1354.79 927.73 1363.31"/><polygon class="cls-8" points="940.4 1272.4 988.07 1257.37 986.98 1249.57 941.58 1263.88 940.4 1272.4"/><path class="cls-9" d="M3044.4,1477.66l12.39-25.48c8.83-19.06,1.43-41.25-16.52-49.56h0c-45.23-20.94-99.92,1-122.16,49.09l-16.26,35.12c-7.13,15.39-21.48,25-36.57,26.13-13.71,1-26,10.14-32,23.2l-8.58,18.52a74.38,74.38,0,0,0-.17,62.23,45.13,45.13,0,0,1-.35,37.79L2812,1680.92c-13.41,29-2.17,62.73,25.12,75.36l15.57,7.21c27.29,12.63,60.29-.63,73.71-29.62h0c12.47-38.69,33.11-54.8,51.22-61.08a106,106,0,0,0,61.21-55.65l1.72-3.7a105.29,105.29,0,0,0,.86-86.73C3036.1,1514.73,3034.72,1498.56,3044.4,1477.66Z"/><path class="cls-9" d="M99.3,1477.38l-12.39-25.47c-8.83-19.07-1.43-41.26,16.52-49.57h0c45.23-20.94,99.92,1,122.16,49.09l16.26,35.12c7.13,15.39,21.48,25,36.57,26.13,13.7,1,26,10.14,32,23.21l8.58,18.52a74.36,74.36,0,0,1,.17,62.22,45.13,45.13,0,0,0,.35,37.79l12.13,26.22c13.42,29,2.18,62.73-25.11,75.36L291,1763.21c-27.29,12.63-60.29-.63-73.71-29.62h0c-12.47-38.69-33.11-54.8-51.22-61.08a106,106,0,0,1-61.22-55.65l-1.71-3.7a105.25,105.25,0,0,1-.86-86.73C107.6,1514.45,109,1498.28,99.3,1477.38Z"/><rect class="cls-6" x="2322" y="1523.47" width="17" height="190" transform="translate(4661 3236.94) rotate(180)"/><polygon class="cls-7" points="2330.95 1156.11 2386.8 1607.47 2275.1 1607.47 2330.95 1156.11"/><polygon class="cls-8" points="2366.54 1443.35 2286.9 1511.64 2289.97 1486.89 2364.07 1423.35 2366.54 1443.35"/><polygon class="cls-8" points="2354.3 1344.41 2305.53 1361.09 2307.82 1342.56 2352.19 1327.39 2354.3 1344.41"/><rect class="cls-6" x="2200" y="1572.47" width="15" height="143" transform="translate(4415 3287.94) rotate(180)"/><polygon class="cls-7" points="2205.49 1318.71 2245.58 1606.47 2165.4 1606.47 2205.49 1318.71"/><polygon class="cls-8" points="2243.04 1587.92 2171.1 1565.24 2172.19 1557.44 2241.85 1579.4 2243.04 1587.92"/><polygon class="cls-8" points="2230.37 1497.01 2182.7 1481.98 2183.79 1474.18 2229.18 1488.49 2230.37 1497.01"/><path class="cls-9" d="M67.43,1768.19s344.76-329,789.31-349.18c149.27-6.78,760.52,129.27,1275.25,236.16,21.63,4.49,561.09,112,634.54,115.3Z"/><path class="cls-8" d="M2476.19,1771.16s90.06-119.64,146.74-138,3.26,54.53,3.26,54.53,100.55-109.94,137.44-100c33.82,9.09,0,77.23,0,77.23s38.09-37.73,84.29-37.73-35.71,141.3-35.71,141.3Z"/><path class="cls-7" d="M2766.53,1770.47s61.57-164.64,137.82-145.6c61.78,15.43,17.85,98.27,21.62,94.5s36.91-60,90.53-60-16.46,75.88-16.46,75.88,114.24-35.67,123.18,1.79c7.43,31.09-34.09,33.42-34.09,33.42Z"/><path class="cls-8" d="M480.52,1771.16s-90.07-119.64-146.74-138-3.26,54.53-3.26,54.53-97.86-133.51-134.75-123.59c-33.82,9.08-20.05,76.5-20.05,76.5s-20.74-13.44-66.93-13.44,35.7,141.3,35.7,141.3Z"/><path class="cls-7" d="M262.86,1770.47S218.67,1652.31,164,1666c-44.35,11.08-12.82,70.53-15.52,67.83s-26.49-43.06-65-43.06,11.81,54.46,11.81,54.46-82-25.6-88.4,1.29c-5.33,22.31,24.47,24,24.47,24Z"/><path class="cls-7" d="M549.19,1733.47a43.22,43.22,0,0,0,.62-7.32c0-27.73-26-50.21-58-50.21s-58.05,22.48-58.05,50.21a44.27,44.27,0,0,0,.61,7.32Z"/><path class="cls-8" d="M614.89,1721.47a87.61,87.61,0,0,0,.61-10.32c0-39.11-26-70.81-58-70.81s-58,31.7-58,70.81a87.61,87.61,0,0,0,.61,10.32Z"/><path class="cls-8" d="M593.64,1764.47a43.31,43.31,0,0,1-.62-7.32c0-27.73,26-50.21,58.05-50.21s58,22.48,58,50.21a44.36,44.36,0,0,1-.61,7.32Z"/><path class="cls-7" d="M500.73,1764.47a69,69,0,0,1-.78-10.32c0-39.11,32.95-70.82,73.59-70.82s73.59,31.71,73.59,70.82a67.68,67.68,0,0,1-.78,10.32Z"/><path class="cls-8" d="M557.23,1683.33c-20.31,0-38.45,10.06-50.43,25.84a83.47,83.47,0,0,0-19.29-2.23c-36.07,0-65.3,22.48-65.3,50.21a38.72,38.72,0,0,0,.69,7.32H621.84a76.34,76.34,0,0,0,.69-10.32C622.53,1715,593.3,1683.33,557.23,1683.33Z"/><path class="cls-7" d="M305.6,1615.6c-17.09-26.7-20.28-58.93-20-81.28a208.86,208.86,0,0,1,4.89-42.6l-1.24-.43a211,211,0,0,0-4.92,42.89c-.34,22.56,2.88,55.13,20.18,82.16Z"/><path class="cls-7" d="M294.75,1487.29a18.19,18.19,0,0,1-6.35,12.91,21.13,21.13,0,0,1-4.25-14.54,18.24,18.24,0,0,1,6.35-12.92A21.15,21.15,0,0,1,294.75,1487.29Z"/><path class="cls-7" d="M283.2,1500a21,21,0,0,1,2.87,14.85,19.22,19.22,0,0,1-11.64-8.92,21.06,21.06,0,0,1-2.87-14.85A19.22,19.22,0,0,1,283.2,1500Z"/><path class="cls-7" d="M276.65,1514.87a20.56,20.56,0,0,1,8.73,12.21,16.9,16.9,0,0,1-13.8-2.44,20.58,20.58,0,0,1-8.72-12.22A16.91,16.91,0,0,1,276.65,1514.87Z"/><path class="cls-7" d="M278.67,1535.63a15.05,15.05,0,0,1,6.38,10.71,12,12,0,0,1-11.46-.94,15,15,0,0,1-6.37-10.71A12,12,0,0,1,278.67,1535.63Z"/><path class="cls-7" d="M293.4,1511a14.56,14.56,0,0,1,12.33-.72,15.49,15.49,0,0,1-7.72,10,14.52,14.52,0,0,1-12.33.71A15.49,15.49,0,0,1,293.4,1511Z"/><path class="cls-7" d="M293,1525.37a14.54,14.54,0,0,1,12.32-.72,15.5,15.5,0,0,1-7.71,10,14.52,14.52,0,0,1-12.33.71A15.46,15.46,0,0,1,293,1525.37Z"/><path class="cls-7" d="M281.25,1558.44a7.82,7.82,0,0,1,4.94,3.79,6.47,6.47,0,0,1-5.67,1.31,7.82,7.82,0,0,1-4.93-3.79A6.44,6.44,0,0,1,281.25,1558.44Z"/><path class="cls-7" d="M298.55,1634.47c-39.11-9.36-68.93-38.28-87.07-60.9a259.51,259.51,0,0,1-30.33-47.42l-1.6.82a262.37,262.37,0,0,0,30.54,47.75c18.31,22.85,48.45,52.07,88,61.53Z"/><path class="cls-7" d="M181.67,1517.47a25.86,25.86,0,0,1,4.35,19.3,23.69,23.69,0,0,1-16.26-10.21,25.84,25.84,0,0,1-4.34-19.3A23.72,23.72,0,0,1,181.67,1517.47Z"/><path class="cls-7" d="M180.63,1541.78a24,24,0,0,1,15.14,11.91,23.65,23.65,0,0,1-19,2.87,23.92,23.92,0,0,1-15.14-11.91A23.72,23.72,0,0,1,180.63,1541.78Z"/><path class="cls-7" d="M186.43,1563.27a23.36,23.36,0,0,1,18.8,3.36,24.93,24.93,0,0,1-15.78,11.51,23.4,23.4,0,0,1-18.8-3.37A24.92,24.92,0,0,1,186.43,1563.27Z"/><path class="cls-7" d="M202,1582.8a23.4,23.4,0,0,1,18.8,3.36A24.9,24.9,0,0,1,205,1597.67a23.36,23.36,0,0,1-18.8-3.36A24.93,24.93,0,0,1,202,1582.8Z"/><path class="cls-7" d="M197.35,1550.33a25.35,25.35,0,0,1,5.57-17.41,22.1,22.1,0,0,1,7.31,15.84,25.34,25.34,0,0,1-5.57,17.41A22.2,22.2,0,0,1,197.35,1550.33Z"/><path class="cls-7" d="M213.6,1570.54a25.39,25.39,0,0,1,5.31-17.51,22.1,22.1,0,0,1,7.55,15.7,25.39,25.39,0,0,1-5.31,17.51A22.08,22.08,0,0,1,213.6,1570.54Z"/><path class="cls-7" d="M227,1602.07a9.63,9.63,0,0,1,8.05-1.21,10.4,10.4,0,0,1-4.57,7,9.63,9.63,0,0,1-8,1.21A10.44,10.44,0,0,1,227,1602.07Z"/><path class="cls-7" d="M402.07,1689.7l1.69-.11c-2.44-44.73,14-86.82,28.19-114.25,15.41-29.77,31.61-49.18,31.77-49.38l-1.24-1.27c-.16.19-16.47,19.74-32,49.68C416.17,1602,399.61,1644.49,402.07,1689.7Z"/><path class="cls-7" d="M471.07,1523.4c-3.87,6.5-9.41,10.54-15,11.65a32.73,32.73,0,0,1,4.29-20.9c3.86-6.5,9.41-10.54,15-11.64A32.61,32.61,0,0,1,471.07,1523.4Z"/><path class="cls-7" d="M450.42,1531.19a32,32,0,0,1-6,20.33c-4.26-4.34-7.11-11.11-7.38-19a32.05,32.05,0,0,1,6-20.33C447.3,1516.56,450.14,1523.34,450.42,1531.19Z"/><path class="cls-7" d="M433.94,1545.17a32,32,0,0,1,2.12,21.07c-5.5-1.42-10.61-5.75-13.79-12.44a32.06,32.06,0,0,1-2.12-21.07C425.65,1534.14,430.76,1538.47,433.94,1545.17Z"/><path class="cls-7" d="M422.62,1579.53a13.38,13.38,0,0,1,1.49,8.75,9,9,0,0,1-6.13-4.73,13.33,13.33,0,0,1-1.49-8.75A9,9,0,0,1,422.62,1579.53Z"/><path class="cls-7" d="M417.73,1591.86a13.34,13.34,0,0,1,1.49,8.76,9,9,0,0,1-6.13-4.74,13.38,13.38,0,0,1-1.49-8.75A9,9,0,0,1,417.73,1591.86Z"/><path class="cls-7" d="M454.88,1551.85a17.76,17.76,0,0,1,14.12,7.53,18.93,18.93,0,0,1-14.75,7.11,17.74,17.74,0,0,1-14.11-7.53A18.91,18.91,0,0,1,454.88,1551.85Z"/><path class="cls-7" d="M445.52,1569.29a17.71,17.71,0,0,1,14.11,7.53,18.89,18.89,0,0,1-14.74,7.11,17.74,17.74,0,0,1-14.12-7.54A18.89,18.89,0,0,1,445.52,1569.29Z"/><path class="cls-7" d="M430,1593.05a11.52,11.52,0,0,1,9.19,4.9,12.3,12.3,0,0,1-9.6,4.63,11.53,11.53,0,0,1-9.18-4.9A12.26,12.26,0,0,1,430,1593.05Z"/><path class="cls-7" d="M256.24,1763c0-7.44,45,1.35,48.7-8.8s-38.51-10.73-38.51-24.45,21.54-4.1,34.16-4.1-24.93-5.88-24.93-10.73,13.18-2.31,13.18-7.47-69.19-9-61.09-21.67,45.29,3.68,55.51-2.85-54.57-13.66-56.17-23.37,47.73,8.32,54.72,1.33-78-32.09-74.46-50.54,64.43,23.63,79.64,19.1-76.72-69.31-55.36-94.54,62.16,83.53,76.08,79.65-17.43-68.74-3.21-80,55,91.3,57.62,112.37,7.75-45.31,30.09-53.08.65,41.12,4.53,56,22-38.21,46.46-34.32S399,1668,405.81,1682.26s59.79-47.55,76.4-31-63.83,62.7-59.43,75.31,52.66-9,66.55,4.9-51.84,22.72-60.56,22.72-42,11-9.5,8.8S256.24,1770.49,256.24,1763Z"/><path class="cls-8" d="M384.41,1771.65s54.15,2.9,69.91-7,3.33-17.65,3.33-17.65,50.07-1.09,49.94-13-12.26-11.18-12.26-11.18,25.27-17.18,20.56-27.88c-7.24-16.45-48.41,12.19-48.41,12.19s13.49-16,2.59-19.77C440.14,1677.1,384.41,1771.65,384.41,1771.65Z"/><path class="cls-9" d="M515.89,1695c4.71,10.7-20.56,27.88-20.56,27.88s18.24-.24,15.28,11.3-48.81,15.37-48.81,15.37,16,3.13.24,13-77.63,9.09-77.63,9.09Z"/><path class="cls-7" d="M2643.37,1602.88c18.53-29,22-64,21.63-88.19a226.2,226.2,0,0,0-5.3-46.22l1.34-.47a227.94,227.94,0,0,1,5.35,46.54c.37,24.48-3.13,59.82-21.9,89.14Z"/><path class="cls-7" d="M2655.14,1463.66a19.73,19.73,0,0,0,6.89,14,22.91,22.91,0,0,0,4.6-15.78,19.76,19.76,0,0,0-6.88-14A22.87,22.87,0,0,0,2655.14,1463.66Z"/><path class="cls-7" d="M2667.67,1477.41a22.82,22.82,0,0,0-3.12,16.11,20.86,20.86,0,0,0,12.63-9.67,22.84,22.84,0,0,0,3.11-16.12A20.79,20.79,0,0,0,2667.67,1477.41Z"/><path class="cls-7" d="M2674.77,1493.58a22.33,22.33,0,0,0-9.47,13.26,18.38,18.38,0,0,0,15-2.65,22.42,22.42,0,0,0,9.47-13.26A18.33,18.33,0,0,0,2674.77,1493.58Z"/><path class="cls-7" d="M2672.58,1516.11a16.29,16.29,0,0,0-6.92,11.62,13.05,13.05,0,0,0,12.43-1,16.33,16.33,0,0,0,6.92-11.62A13,13,0,0,0,2672.58,1516.11Z"/><path class="cls-7" d="M2656.6,1489.42a15.77,15.77,0,0,0-13.38-.78,16.82,16.82,0,0,0,8.38,10.86,15.75,15.75,0,0,0,13.37.77A16.78,16.78,0,0,0,2656.6,1489.42Z"/><path class="cls-7" d="M2657.08,1505a15.74,15.74,0,0,0-13.38-.78,16.8,16.8,0,0,0,8.38,10.85,15.72,15.72,0,0,0,13.37.78A16.78,16.78,0,0,0,2657.08,1505Z"/><path class="cls-7" d="M2669.78,1540.86a8.47,8.47,0,0,0-5.36,4.11,7,7,0,0,0,6.15,1.42,8.45,8.45,0,0,0,5.35-4.11A7,7,0,0,0,2669.78,1540.86Z"/><path class="cls-7" d="M2651,1623.34c42.43-10.14,74.79-41.53,94.46-66.07a281.9,281.9,0,0,0,32.92-51.44l1.73.88a284,284,0,0,1-33.14,51.81c-19.86,24.79-52.56,56.49-95.51,66.76Z"/><path class="cls-7" d="M2777.82,1496.41a28.05,28.05,0,0,0-4.72,20.94,25.73,25.73,0,0,0,17.64-11.08,28,28,0,0,0,4.72-20.94A25.74,25.74,0,0,0,2777.82,1496.41Z"/><path class="cls-7" d="M2779,1522.79a26,26,0,0,0-16.42,12.92,26.26,26.26,0,0,0,37-9.81A25.71,25.71,0,0,0,2779,1522.79Z"/><path class="cls-7" d="M2772.66,1546.09a25.4,25.4,0,0,0-20.4,3.65,27.06,27.06,0,0,0,17.12,12.49,25.36,25.36,0,0,0,20.4-3.65A27.06,27.06,0,0,0,2772.66,1546.09Z"/><path class="cls-7" d="M2755.75,1567.29a25.34,25.34,0,0,0-20.39,3.65,27,27,0,0,0,17.12,12.48,25.34,25.34,0,0,0,20.39-3.64A27,27,0,0,0,2755.75,1567.29Z"/><path class="cls-7" d="M2760.81,1532.06a27.5,27.5,0,0,0-6-18.89,24,24,0,0,0-7.94,17.18,27.45,27.45,0,0,0,6.05,18.89A24.07,24.07,0,0,0,2760.81,1532.06Z"/><path class="cls-7" d="M2743.18,1554a27.58,27.58,0,0,0-5.76-19c-4.56,3.76-7.7,9.84-8.19,17a27.56,27.56,0,0,0,5.76,19C2739.55,1567.26,2742.69,1561.18,2743.18,1554Z"/><path class="cls-7" d="M2728.61,1588.2a10.42,10.42,0,0,0-8.74-1.32,11.33,11.33,0,0,0,5,7.63,10.43,10.43,0,0,0,8.73,1.31A11.33,11.33,0,0,0,2728.61,1588.2Z"/><path class="cls-7" d="M2538.7,1683.28l-1.84-.13c2.64-48.53-15.17-94.19-30.58-124-16.72-32.29-34.3-53.36-34.48-53.57l1.35-1.38c.17.21,17.88,21.41,34.7,53.9C2523.4,1588.15,2541.37,1634.23,2538.7,1683.28Z"/><path class="cls-7" d="M2463.83,1502.84c4.19,7.06,10.21,11.44,16.31,12.64a35.39,35.39,0,0,0-4.65-22.67c-4.19-7.06-10.2-11.44-16.31-12.64A35.53,35.53,0,0,0,2463.83,1502.84Z"/><path class="cls-7" d="M2486.23,1511.29c-.29,8.52,2.25,16.45,6.52,22.06,4.63-4.71,7.72-12.06,8-20.58a34.77,34.77,0,0,0-6.52-22.06C2489.62,1495.42,2486.53,1502.77,2486.23,1511.29Z"/><path class="cls-7" d="M2504.12,1526.46a34.72,34.72,0,0,0-2.3,22.86c6-1.53,11.51-6.23,14.95-13.5a34.72,34.72,0,0,0,2.3-22.86C2513.11,1514.49,2507.56,1519.19,2504.12,1526.46Z"/><path class="cls-7" d="M2516.4,1563.74a14.47,14.47,0,0,0-1.61,9.5,9.79,9.79,0,0,0,6.65-5.14,14.53,14.53,0,0,0,1.61-9.5A9.79,9.79,0,0,0,2516.4,1563.74Z"/><path class="cls-7" d="M2521.7,1577.12a14.48,14.48,0,0,0-1.61,9.5,9.81,9.81,0,0,0,6.65-5.14,14.51,14.51,0,0,0,1.61-9.49A9.78,9.78,0,0,0,2521.7,1577.12Z"/><path class="cls-7" d="M2481.39,1533.71a19.21,19.21,0,0,0-15.31,8.17,20.5,20.5,0,0,0,16,7.71,19.21,19.21,0,0,0,15.31-8.17A20.5,20.5,0,0,0,2481.39,1533.71Z"/><path class="cls-7" d="M2491.55,1552.63a19.21,19.21,0,0,0-15.31,8.17,20.5,20.5,0,0,0,16,7.71,19.23,19.23,0,0,0,15.31-8.17A20.5,20.5,0,0,0,2491.55,1552.63Z"/><path class="cls-7" d="M2508.37,1578.41a12.52,12.52,0,0,0-10,5.32,13.34,13.34,0,0,0,10.41,5,12.53,12.53,0,0,0,10-5.32A13.35,13.35,0,0,0,2508.37,1578.41Z"/><path class="cls-7" d="M2696.92,1762.85c0-8.08-48.79,1.45-52.85-9.55s41.79-11.64,41.79-26.53-23.37-4.45-37.07-4.45,27.05-6.37,27.05-11.64-14.3-2.51-14.3-8.11,75.08-9.81,66.29-23.51-49.14,4-60.23-3.09,59.21-14.82,61-25.36-51.79,9-59.37,1.45,84.64-34.82,80.78-54.84-69.9,25.64-86.41,20.73,83.24-75.2,60.06-102.58-67.44,90.63-82.54,86.42,18.91-74.58,3.48-86.82S2584.84,1614,2582,1636.89s-8.41-49.16-32.65-57.59-.7,44.62-4.92,60.77-23.88-41.44-50.4-37.23,47.94,56.91,40.57,72.36-64.88-51.6-82.9-33.58,69.26,68,64.49,81.71-57.14-9.77-72.21,5.31,56.25,24.66,65.7,24.66,45.61,11.89,10.31,9.55S2696.92,1770.93,2696.92,1762.85Z"/><path class="cls-8" d="M2557.85,1772.18s-58.75,3.15-75.85-7.62-3.6-19.15-3.6-19.15-54.33-1.18-54.19-14.05,13.3-12.13,13.3-12.13-27.42-18.64-22.31-30.25c7.86-17.85,52.53,13.23,52.53,13.23s-14.65-17.39-2.81-21.45C2497.39,1669.6,2557.85,1772.18,2557.85,1772.18Z"/><path class="cls-7" d="M2415.2,1689c-5.11,11.61,22.31,30.25,22.31,30.25s-19.79-.26-16.58,12.25,53,16.68,53,16.68-17.37,3.4-.27,14.17,84.23,9.85,84.23,9.85Z"/><path class="cls-10" d="M162.74,1299.21c.09-2.93,4.13-5.2,6.27-2.6s2.05.84,4.13,6.43a181.67,181.67,0,0,0,25,45.21c19.58,26,39,39.17,61,52.18-9.06-20.43-15.14-42.24-15.91-64.24-.28-8-.13-16.34,3.3-23.69,1-2.06,4.64-1.63,5,.65,1.85,11.36-.87,19.92,2.8,40.23,8.77,48.49,43.47,99.91,77,135.92-6.42-61-9.53-130.24,1.95-191.73,1.88-10.09,4.88-19.68,7.66-29.53.66-2.32,4-1.33,3.54,1-.57,3.28-6,45.6-6.37,48.51-5.31,46.83-4.25,98.71-.12,146,26-35.17,43.35-76.3,51.48-119.25,2.4-12.69,3-25.8,6.41-38.26.46-1.72,3.3-1.9,3.65,0,3.46,18.67-3.47,51.69-8.52,69.63a286.33,286.33,0,0,1-49,98.07c-.87,1.14,35.94,285.66,34.95,289.26-1.67,6.08-12.26,10.35-13.9-.44-.67-4.38-20.89-177.39-30-257.53-3.45-1.89-5.66-5.27-14.54-15.25C297.9,1466.7,277.6,1438,264,1410.9c-8.14-.46-66.94-29.07-96.1-94.22-.84-1.87-4.63-10.69-5.17-12.66C162.29,1302.34,162.69,1300.88,162.74,1299.21Z"/><path class="cls-7" d="M351.58,1206.47q-1-13.14-1-26.83c0-101.62,43.13-184,96.34-184s96.34,82.39,96.34,184q0,13.68-1,26.83Z"/><path class="cls-8" d="M242.55,1161.47q-1-18.53-1-37.83c0-143.32,43.13-259.51,96.34-259.51s96.34,116.19,96.34,259.51q0,19.27-1,37.83Z"/><path class="cls-8" d="M277.82,1320.47q1-13.14,1-26.83c0-101.62-43.13-184-96.34-184s-96.34,82.39-96.34,184q0,13.68,1,26.83Z"/><path class="cls-7" d="M432,1320.47q1.28-18.53,1.29-37.83c0-143.32-54.68-259.51-122.13-259.51S189,1139.32,189,1282.64q0,19.27,1.29,37.83Z"/><path class="cls-8" d="M338.23,1023.13c33.72,0,63.83,36.86,83.71,94.67a68.42,68.42,0,0,1,32-8.17c59.85,0,108.37,82.39,108.37,184q0,13.68-1.14,26.83H231q-1.12-18.53-1.15-37.83C229.86,1139.32,278.38,1023.13,338.23,1023.13Z"/><path class="cls-10" d="M1428.58,1571.64c-4.76,1.11-9.16-.34-9.84-3.24l-101.92-434.77c-.68-2.91,2.63-6.16,7.38-7.28s9.17.34,9.85,3.24L1436,1564.37C1436.64,1567.27,1433.33,1570.52,1428.58,1571.64Z"/><path class="cls-11" d="M1401.87,1653.3c4.28-1,8.37-2.21,12.55-2.87a15.83,15.83,0,0,0,9.76-4.87,30.14,30.14,0,0,0,7.74-24.16c-.27-2.76-1.29-5.44-2-8.15l-13.83-54c-.37-1.42-.75-2.83-1.06-4.26a3.22,3.22,0,0,1,.18-1.69c.9,1.91,2.44,1.78,3.91,1.45,3.68-.83,7.35-1.69,11-2.66,1.21-.32,2.82-.71,2.36-2.59.16,0,.67.51.76,1q4.49,20.87,8.9,41.74c.86,4.06,1.76,8.11,2.62,12.17.9,4.24,1.35,8.62,2.73,12.69a29.55,29.55,0,0,0,18.13,18.88,15.11,15.11,0,0,0,11.21-.31c3.57-1.36,7.44-1.92,11.19-2.75.32-.07,1,.42,1.13.8a12.81,12.81,0,0,1,.69,2.46q6.56,27.91,13.1,55.83a34.46,34.46,0,0,1-.88,17.88c-2.9,9.84-8.24,18.34-14.5,26.31-2.63,3.36-5.41,6.63-8.36,9.71-5.19,5.43-11.51,6.94-18.58,4.36-10.72-3.91-20.89-8.93-29.89-16-5.81-4.59-10.77-9.92-13.7-16.86a26.06,26.06,0,0,1-1.42-4.15q-6.7-28.44-13.33-56.9C1402.06,1655.32,1402,1654.29,1401.87,1653.3Zm26.75-89.66a1.91,1.91,0,0,0-2.48-1.58,1.86,1.86,0,0,0-1.5,2.46,1.93,1.93,0,0,0,2.47,1.53A1.9,1.9,0,0,0,1428.62,1563.64Z"/><path class="cls-12" d="M1489.85,1636.18a12.81,12.81,0,0,0-.69-2.46c-.17-.38-.81-.87-1.13-.8-3.75.83-7.62,1.39-11.19,2.75a15.11,15.11,0,0,1-11.21.31,29.55,29.55,0,0,1-18.13-18.88c-1.38-4.07-1.83-8.45-2.73-12.69-.86-4.06-1.76-8.11-2.62-12.17q-4.45-20.87-8.9-41.74c-.09-.44-.6-1-.76-1,.46,1.88-1.15,2.27-2.36,2.59q-2.88.77-5.78,1.45l2,8.46a2,2,0,0,1,.92,3.94l43.39,185.1a17.43,17.43,0,0,0,8.57-5.18c3-3.08,5.73-6.35,8.36-9.71,6.26-8,11.6-16.47,14.5-26.31A34.46,34.46,0,0,0,1503,1692Q1496.41,1664.1,1489.85,1636.18Z"/><path class="cls-13" d="M1220.78,1730c-1.29-9.25-1.69-23.48-1.56-39.89l-28.81,6.46c3.37,23.25,2.4,34.87,2.4,34.87l-.81,7.35,0,21.69h70.94s-15.06-6.75-36.12-20.08C1225.24,1739.41,1221.66,1736.26,1220.78,1730Z"/><path class="cls-13" d="M1111.71,1723.48l9.42-27h-24.68c-1.29,17.34-1.77,29-1.77,29l-6.27,17.77-6.38,21.1s21,5.42,32-.67l-1.23-21Z"/><path class="cls-14" d="M1112.82,1742.17c-9.69,4.31-20.12,1.71-24.32.33l-1.39,3.76-5.34,17.81s21.26,6.57,32.28.49Z"/><path class="cls-14" d="M1191.62,1766.47h73.75c2.73-.25,3.39-2.48,2.45-3.85-2-2.83-10.56-4.91-20.23-9.41-17,1.78-52.55-9.93-55.23-13.86C1190.81,1747.23,1190.1,1766.13,1191.62,1766.47Z"/><path class="cls-6" d="M1193.19,1351.12l-39.09,239.55-42,139.29-18.38-2.21s-1.3-66.31,8.75-108.45a349.82,349.82,0,0,0,9-70.41c1.3-42.39,4.47-102.27,12.18-133.15,10.72-42.93,22.79-65.65,22.79-65.65Z"/><path class="cls-15" d="M1154.71,1405.12c-4.25,51.21,38.48,320.35,38.48,320.35h27.42s22.52-281.37,17.93-308.76-18.27-72-18.27-72l-61.47,4.81S1155.86,1391.22,1154.71,1405.12Z"/><path class="cls-13" d="M1182.94,1112.93c0,6.19-2.31,11.2-5.16,11.2s-5.17-5-5.17-11.2,2.32-11.2,5.17-11.2S1182.94,1106.74,1182.94,1112.93Z"/><path class="cls-16" d="M1189.2,1185.58c-42.39-17.1-63.86-11.44-71.2-7.71l.35,64.54c1.2,5.41-3.59,163.15-5.1,181.62,0,0,111.44,11.21,131.31-11.77,0,0-24.65-90.66-21.59-114C1227.77,1261.67,1192.84,1187.05,1189.2,1185.58Z"/><path class="cls-13" d="M1227.44,1231s18.51,22.12,21.12,24.24c0,0,52.42-25.2,74-38,.24-.19.49-.37.73-.57.4-.33,1-.56,1-1.21-.16-2.94.2-13,.53-17.34a8.07,8.07,0,0,1,1-3.38l3.7-6.65,1.21,5.15a3.12,3.12,0,0,0,3.61,2.33h0a14.34,14.34,0,0,0,4.56-2,17,17,0,0,1,6.6-2.06,4.23,4.23,0,0,1,4.67,3.28c.44,1.4.54,3,1.35,4.17,1.42,1.94,7.38,21.41,4.45,24.14-1.46,1.36-10.18,5.17-13.8,6.09a18.45,18.45,0,0,0-7,3.45,12.6,12.6,0,0,1-1.34.91h0c-15.07,10.65-65.1,47.29-65.1,47.29s-25,16.11-29.76,13.57-39.56-43.7-39.56-43.7Z"/><path class="cls-13" d="M1163.07,1137.6s1,23.81-1.15,32.84-5,9.7,13.37,12.45c7.21,1.08,14.16,2.69,14.16,2.69s-1.88-13.26-2.16-18.85c-.47-9.22,2.12-37.68,2.12-37.68Z"/><path class="cls-16" d="M1177.05,1149.45a33,33,0,0,0,10.56,3.75c.62-11.25,1.8-24.15,1.8-24.15l-25.13,8.16A33,33,0,0,0,1177.05,1149.45Z"/><path class="cls-17" d="M1166.05,1211.8c-.18,22.51,38.52,63.52,38.52,63.52s35-27.75,40-37.36c0,0-37.5-39.81-39.9-42.2-10.9-10.83-21.65-8.32-28.47-5.85C1170.72,1191.89,1166.05,1211.8,1166.05,1211.8Z"/><path class="cls-10" d="M1150.21,1221c21.21-18.51,29.21-59.32,15.37-83.64,9.61-12.5,15.77-10.27,13.63-25.83-4.23-30.68,38.48-49.16,6.58-57.32-32.24-6.47-59,13.34-73.79,33a78.35,78.35,0,0,1-24.74,21.91c-19.47,10.68-29.74,36.3-19.4,63-15.59,8.75-29.21,34-18.89,55,2.48,5,7.48,10.94,7.64,12.38-.3-1.78-14.53,45.06,38.61,61C1149.44,1316.85,1160.61,1264.8,1150.21,1221Z"/><path class="cls-10" d="M1134.7,1086.43c-6.28,25.89,27.7,44.69,54.6,45.38,17.49.44,25.52-1.35,28.35-19.78,4.58-29.88-7.73-48.1-25-55.64C1170.41,1046.66,1139.88,1065.08,1134.7,1086.43Z"/><path class="cls-13" d="M1174.21,1069a35.33,35.33,0,0,0-18.13,15.92c-6.3,11.94-3.17,50.18,23.06,62.8s38.29-16,36.38-37.16S1206,1061.79,1174.21,1069Z"/><path class="cls-18" d="M1190.6,1127.47l18.61-.29s-.32,7.21-8.5,7.58C1190.73,1135.2,1190.6,1127.47,1190.6,1127.47Z"/><path class="cls-10" d="M1146.76,1113.88c-3.88-19.76-2.36-34.74,11.68-42s26-14.41,38.61-1.41l2.84,1.6s-23.71,6.56-25,19.15-13.92,27.56-12,33.75,4.18,18.51,4.18,18.51l-5.2-4.26S1150.64,1133.64,1146.76,1113.88Z"/><path class="cls-13" d="M1171.2,1106.32c2,5.45.48,10.93-3.31,12.23s-8.44-2.06-10.4-7.52-.48-10.94,3.31-12.24S1169.24,1100.86,1171.2,1106.32Z"/><path class="cls-10" d="M1607.79,1417.46s-21.07,46.63-43.79,70.56v7.15l34.11-49.76Z"/><path class="cls-10" d="M1630.35,1335.88c.17-23.85-5.21-32.83-5.29-31.42-.19,3.32.26,9.63.51,18,0,1-.22,53.29-15.9,91.25l-.25.59-.48,1.11c-.32.73-.63,1.44-.93,2.15-.69,1.53-1.24,2.78-1.68,3.84-17.2,39.13-22.86,44.38-42.06,66.59,0-61.3-4.21-130.53-22.1-190.47-2.93-9.83-6.92-19-10.72-28.56-.89-2.24-4.07-.9-3.42,1.35.92,3.2,25.12,89,24,203.32,0,1.43-5.71,287.85-4.34,291.33,2.3,5.87,13.27,9,13.77-1.89.2-4.44,2.12-178.61,2.77-259.26,3.15-2,46.6-66.42,56-101.86,7.68-29,10.09-50.64,10.2-66v0Z"/><path class="cls-7" d="M1523.78,1254.59a22.57,22.57,0,0,1,5.44,17.18,18.64,18.64,0,0,1-15.62-6.3,22.6,22.6,0,0,1-5.43-17.18A18.62,18.62,0,0,1,1523.78,1254.59Z"/><path class="cls-8" d="M1545.65,1253.66a30.33,30.33,0,0,1-16,18.18,25.07,25.07,0,0,1-3.6-22.32,30.33,30.33,0,0,1,16-18.18A25.07,25.07,0,0,1,1545.65,1253.66Z"/><path class="cls-7" d="M1621.57,1293.72a18.62,18.62,0,0,1,4.49,14.19,15.42,15.42,0,0,1-12.9-5.21,18.66,18.66,0,0,1-4.48-14.19A15.39,15.39,0,0,1,1621.57,1293.72Z"/><path class="cls-8" d="M1639.23,1293a25.09,25.09,0,0,1-13.21,15,20.72,20.72,0,0,1-3-18.44,25.07,25.07,0,0,1,13.2-15A20.68,20.68,0,0,1,1639.23,1293Z"/><path class="cls-7" d="M1603.6,1389.53a18.64,18.64,0,0,1,11.25,9.74,15.39,15.39,0,0,1-13.71,2.32,18.63,18.63,0,0,1-11.25-9.75A15.39,15.39,0,0,1,1603.6,1389.53Z"/><path class="cls-8" d="M1618.24,1379.64a25.07,25.07,0,0,1-3.39,19.7,20.71,20.71,0,0,1-12.19-14.16,25.11,25.11,0,0,1,3.39-19.7A20.71,20.71,0,0,1,1618.24,1379.64Z"/><path class="cls-7" d="M1540.88,1469a16.81,16.81,0,0,1,12.6,4.65,13.89,13.89,0,0,1-10.84,6.31,16.8,16.8,0,0,1-12.6-4.65A13.91,13.91,0,0,1,1540.88,1469Z"/><path class="cls-8" d="M1550.1,1456a22.6,22.6,0,0,1,3.4,17.71,18.65,18.65,0,0,1-14.78-8.08,22.6,22.6,0,0,1-3.41-17.71A18.64,18.64,0,0,1,1550.1,1456Z"/><path class="cls-7" d="M1532.12,1365.94a18.66,18.66,0,0,1,14.76,1.9,15.41,15.41,0,0,1-10.15,9.51,18.62,18.62,0,0,1-14.76-1.91A15.4,15.4,0,0,1,1532.12,1365.94Z"/><path class="cls-8" d="M1538.86,1349.6a25.1,25.1,0,0,1,8.06,18.3,20.7,20.7,0,0,1-18-5.07,25,25,0,0,1-8.06-18.29A20.66,20.66,0,0,1,1538.86,1349.6Z"/><path class="cls-7" d="M1637.09,1343.41a13.18,13.18,0,0,1-7.72,7.1,10.87,10.87,0,0,1-.54-9.79,13.18,13.18,0,0,1,7.73-7.11A10.86,10.86,0,0,1,1637.09,1343.41Z"/><path class="cls-8" d="M1642.85,1354.45a17.61,17.61,0,0,1-13.53-3.94,14.56,14.56,0,0,1,10.89-7.41,17.64,17.64,0,0,1,13.54,3.94A14.58,14.58,0,0,1,1642.85,1354.45Z"/><path class="cls-7" d="M1549.94,1298.56a13.17,13.17,0,0,1-5.06,9.2,10.87,10.87,0,0,1-3.62-9.12,13.15,13.15,0,0,1,5-9.2A10.88,10.88,0,0,1,1549.94,1298.56Z"/><path class="cls-8" d="M1558.92,1307.19a17.63,17.63,0,0,1-14.09.58,14.62,14.62,0,0,1,8-10.5,17.68,17.68,0,0,1,14.09-.57A14.57,14.57,0,0,1,1558.92,1307.19Z"/><path class="cls-7" d="M1608.7,1442.75a10.29,10.29,0,0,1-7.61,3.11,8.54,8.54,0,0,1,2.28-7.33,10.33,10.33,0,0,1,7.61-3.11A8.52,8.52,0,0,1,1608.7,1442.75Z"/><path class="cls-8" d="M1609.92,1452.43a13.82,13.82,0,0,1-8.86-6.58,11.38,11.38,0,0,1,10-2.47,13.82,13.82,0,0,1,8.86,6.58A11.44,11.44,0,0,1,1609.92,1452.43Z"/><path class="cls-7" d="M1566.21,1397a10.27,10.27,0,0,1-5.66,6,8.5,8.5,0,0,1-.92-7.62,10.27,10.27,0,0,1,5.66-5.95A8.5,8.5,0,0,1,1566.21,1397Z"/><path class="cls-8" d="M1571.29,1405.33a13.8,13.8,0,0,1-10.77-2.37,11.42,11.42,0,0,1,8.11-6.36,13.86,13.86,0,0,1,10.78,2.38A11.4,11.4,0,0,1,1571.29,1405.33Z"/><path class="cls-17" d="M1447.61,1738.75c7.76-5.33,11.41-12.76,20.8-13.23,6.09-.31,12.55-.34,17.71-3.59,7.07-4.44,15.78-7.69,22.24-13,5.29-4.32,12.42-5.47,19.18-6.46l33.16-4.85c4.06-.59,8.17-1.19,12.25-.69,14.93,1.81,24.74,17.26,39.18,21.49,6.82,2,14.39,1.39,20.72,4.6,8.19,4.15,12.19,13.58,14.18,22.55,1.23,5.49,12.29,8.66,14.8,19.56,1,2.14-7-1-9,.2s-4.46,1.37-6.81,1.49q-88.29,4.73-176.76,1.94c-7.11-.22-44.37,3.89-49-2.63C1414.73,1758.58,1441.78,1742.75,1447.61,1738.75Z"/><path class="cls-13" d="M1854.73,1363.22s-13.88-3.51-16.18-4.43-11.33-2.53-12.06-1.38,5.47,6.13,5.93,6.28,10.27,3.84,10.65,3.84S1854.73,1363.22,1854.73,1363.22Z"/><path class="cls-13" d="M1996.2,1256c-3.46,18.4-20.53,11.36-24.19,12l-34.11,72.3-78.76,23.12-19.35.21c1,.72-13.5-.1-19.15,3,.33.93,1.94,2.15,2.36,3.07,4.46,8.72,11,15.64,13.25,25.22a47,47,0,0,0,13.22-3.56c5.32-2.49,19.76-8.19,19.76-8.19s83.49-16.56,88.27-20.1C1961.69,1360,2007.5,1275.25,1996.2,1256Z"/><path class="cls-13" d="M1975.78,1724.15s1.37,22.79,1.38,22.84c.51,2.89,2.5,10,2.5,12.67,0,9.88-46.92-8.39-36.41-12.77,1-.39,5.94-3.39,6.25-6.76.49-5.18,1.71-15.66,1.71-15.66Z"/><path class="cls-16" d="M1943.37,1746.69s11,3,16.66,3.78,13.08-5.61,17.07-3.89c4.39,1.89,4.22,18.92,4.22,18.92s-59.08,4.84-75.69-.17C1899.05,1763.34,1920.85,1753.73,1943.37,1746.69Z"/><path class="cls-19" d="M2053.37,1362.72s5.18,34.62-1.3,49.8-55.59,164.16-56.24,176.31-17,146.4-17,146.4l-34.12-1L1937.35,1585l15.45-187.6,15-47.43Z"/><path class="cls-13" d="M2071.77,1724.15s1.38,22.79,1.38,22.84c.51,2.89,2.5,10,2.5,12.67,0,9.88-46.92-8.39-36.41-12.77,1-.39,7.42-5.63,7.73-9,.49-5.18.23-13.43.23-13.43Z"/><path class="cls-16" d="M2039.36,1746.69s11,3,16.66,3.78,13.08-5.61,17.07-3.89c4.4,1.89,4.57,18.92,4.57,18.92s-59.35,5.65-76-.17C1995.14,1763.07,2016.84,1753.73,2039.36,1746.69Z"/><path class="cls-10" d="M2061.14,1364.55s8,38.44,4.72,67.59-3.5,132.71-3.5,132.71l12.37,165.69-29.35.64s-49.16-172-48.51-167.73-11.67-116.61-11.67-116.61l55.85-85.94Z"/><path class="cls-14" d="M1942.21,1327.19l40,14.93s10.68-33.21,14.87-49.28c5.09-19.5,10-45,7.49-45.13-7-.2-16.86,1.12-24.06,7C1955.61,1275.14,1942.21,1327.19,1942.21,1327.19Z"/><path class="cls-20" d="M1972.26,1289.06c-1.21,6.1-31,159.82-31,159.82,75.31,41.3,130.75,21.64,130.75,21.64s-2.86-113.82,1-129.61c2.55-10.44,11.82-79.24,5.08-81.55-8.64-3-21.71-7.35-32.61-9.06-9.31-1.45-45.64-3.89-52.26-2C1993.24,1248.25,1977.33,1263.45,1972.26,1289.06Z"/><path class="cls-10" d="M2032.89,1122.83s-27.91-12.23-35.36,12c0,0-24.31-.65-18.29,24,0,0-23.37,14-5.68,44.32,0,0-4.55,30.09,30.2,29.39,0,0,6,10.1,21.56,6.49s19.33-8.07,19.33-8.07,28.62,6.11,35.22-19.8c0,0,18.9-6,4.15-29.76,0,0,14.43-33.28-15.87-40.71C2068.15,1140.72,2062.28,1108.23,2032.89,1122.83Z"/><path class="cls-13" d="M2053.88,1196.06c-1.74,6.25.29,12.27,4.51,13.44s9.06-3,10.79-9.2-.29-12.27-4.52-13.44S2055.61,1189.81,2053.88,1196.06Z"/><path class="cls-13" d="M1980.33,1186.48c.17,6.48,3.86,11.64,8.25,11.53s7.79-5.47,7.62-12-3.87-11.64-8.25-11.53S1980.15,1180,1980.33,1186.48Z"/><path class="cls-13" d="M2012.16,1226.19c0,.46-2.55,17-3.92,25.79a6.93,6.93,0,0,0,4.46,7.59c8.29,3.06,24.44,7,34.61-3.68a4.54,4.54,0,0,0,1.22-3.65l-4.21-38.78Z"/><path class="cls-21" d="M2010.8,1235.47c8.81,3.65,19.49,2.94,31-5a49,49,0,0,0,4.08-3.16l-1.51-13.89-32.16,12.73C2012.18,1226.42,2011.58,1230.41,2010.8,1235.47Z"/><path class="cls-13" d="M2029.58,1142.77a38.6,38.6,0,0,1,22.21,14.81c8.72,12.29,15.77,49.17-10.78,67.5s-48.6-5.38-49.84-29.25S1998.26,1140.7,2029.58,1142.77Z"/><path class="cls-18" d="M2004.13,1206.47l27.63.19s-.71,10.49-12.87,10.76C2004.08,1217.74,2004.13,1206.47,2004.13,1206.47Z"/><path class="cls-10" d="M2002.57,1148s14.67-1.38,23.24,3.21,28.75,37.94,34.47,36.18,8.12-22.74,5.88-26.87-12.27-18-13.36-18.58-13.41-5.55-15.73-5.89-20.47.52-20.47.52Z"/><path class="cls-13" d="M1991.25,1429.69c-2.58-1.57,6.65-12.12,5.4-14.81s-15.46,8.68-17.57,7.14c-3.88-2.83,14.79-13.41,13.08-14.83s-21.49,8.55-22.06,4.18,21.6-8.2,20.45-10.53-20.29,5.41-23.55.89c-1.74-2.42,34.4-9.09,36.25-12.7s-13-9.49-12-13,26,12.8,28.2,12.29,48.67-14.42,63.12-21.18c-1.83-5.2-8.16-36.27-10-41.1,10.62-.74,17-12.51,27.48-13.85,5.3,16.68,21.67,66,19.47,70.48-6.68,13.54-78.63,24-91.63,24.86s-16.15,6.67-23.22,9.38S1993.82,1431.25,1991.25,1429.69Z"/><path class="cls-14" d="M2113.91,1341.87l-48.61,23.5s-7.63-35.71-13.33-57.77c-4.9-19,19.32-52.73,27.39-48.11C2097.41,1269.83,2113.91,1341.87,2113.91,1341.87Z"/><path class="cls-6" d="M1829.77,1437l-6.52-8.21,2.15-1.21a33.87,33.87,0,0,0,16.21-20.84,33.49,33.49,0,0,0-3.61-25.88,35,35,0,0,0-2.78-4.07,33.93,33.93,0,0,0-51.31-1.51l-1.67,1.88-6.5-8.19,1.29-1.33a43,43,0,0,1,33.44-13.65,44.12,44.12,0,0,1,27.88,77,46.74,46.74,0,0,1-7,5.1Z"/><path class="cls-16" d="M1836,1440.38h0l-57.25-72.1a2,2,0,0,1-.25-.3l-.4-.51-2.49-3.13-1.39-1.76h0c-.46-.6-.92-1.2-1.37-1.81-.87-1.19-1.52-1.46-2.89-.63-5.94,3.63-12,7.12-18,10.69a13.9,13.9,0,0,1-4,1.6c-8.76,2-17.5,4.11-26.26,6.12-1.34.3-1.65.67-1,2,.84,1.65,1.31,3.48,2.14,5.14s.37,2.3-1.1,3c-2.19,1.12-2.1,1.21-1.14,3.5,3.34,7.9,6.64,15.81,10,23.72q6.38,15.16,12.77,30.32c1.27,3,2.5,6,3.88,9.4l-4-1.51q-32-11.94-63.92-23.88a5.48,5.48,0,0,1-2.86-2.29c-2.68-4.12-5.45-8.19-8.2-12.27-1-1.51-2.08-3-3.32-4.75l-12.85,34.34c7-1.84,13.5-3.54,20-5.31a3.67,3.67,0,0,1,2.59.16q39.68,17.08,79.38,34.12a3.33,3.33,0,0,1,1.88,2c1.94,4.72,4,9.39,5.89,14.11.43,1.07.84,1.06,1.69.54,2.46-1.5,4.95-2.94,7.43-4.41q33.8-20,67.6-40c1.14-.67,1.58-1,.49-2.32S1837.06,1441.67,1836,1440.38Z"/><polygon class="cls-17" points="1719.42 1378.15 1722.69 1388.18 1753.62 1369.88 1719.42 1378.15"/><path class="cls-6" d="M1677.24,1428.86a7.05,7.05,0,0,1-.7-.89c-2.68-4.12-5.45-8.19-8.2-12.27-1-1.51-2.08-3-3.32-4.75l-12.85,34.34c7-1.84,13.5-3.54,20-5.31l5-11.12Z"/><path class="cls-22" d="M1839.15,1444.19c-1.06-1.24-2.09-2.52-3.11-3.81h0l-57.25-72.1a2,2,0,0,1-.25-.3l-.4-.51-2.49-3.13-1.39-1.76h0c-.46-.6-.92-1.2-1.37-1.81-.87-1.19-1.52-1.46-2.89-.63-3.49,2.13-7,4.22-10.53,6.3,12.6,23.52,37.37,81.35-.42,117q1.47,3.48,2.9,7c.43,1.07.84,1.06,1.69.54,2.46-1.5,4.95-2.94,7.43-4.41q33.8-20,67.6-40C1839.8,1445.84,1840.24,1445.46,1839.15,1444.19Z"/><path class="cls-23" d="M1845.17,1382.62a5.46,5.46,0,0,1-1.16,7.19c-4,3.3-11.4,8-16.26,3.47-7-6.48-10.16-27.11-6.51-27.24s22.29,7.31,21.93,11.19C1843,1379.48,1844.08,1380.92,1845.17,1382.62Z"/><path class="cls-24" d="M2926.86,1557.61c13.79-35.88,27.3-71.78,37.1-109.1,30.17-114.86,22.89-198.58,21.76-238.84-.15-5.31,8.39-6.77,9.13-1.29,2.57,18.9,3.14,38.09,3.26,57.16a721.74,721.74,0,0,1-5.87,96.63c22.13,5.76,43.06-2.87,60.19-18.37,29.52-26.73,40.06-62.35,44.7-101.81.47-4,.62-7.84,3.91-10.17.72-2.07,3.75-2.71,4.5.38,4.67,4.81,2.41,14.46,1.69,20.67-9.74,84-60.83,124.77-102,124.42a58.64,58.64,0,0,1-14.89-1.63q-4.46,30.15-11.44,59.82c-8.89,37.63-21.36,74-35.07,109.93-46.9,123-61.87,185.89-75.19,221.5-2,7.16-12.61,4.16-10.75-3.09C2858.59,1761.24,2895.18,1640,2926.86,1557.61Z"/><path class="cls-24" d="M2738.94,1234.15c.44-2.64,2-4.4,2.57-6.88.78-3.27,6.12-3.6,6.68,0,.32,2.06,1.46,3.32,1.9,5.43,1.43,6.81-2,45.08,7,103.67,2.4,15.57,5,31.06,10.23,45.92,8.39,24,23.66,49.92,42.65,66.29a1004.12,1004.12,0,0,1,6.78-102.68q3.69-30.62,9.34-60.9,2.76-14.73,6-29.39c2.24-10.24,4.35-20.08,9.26-29.35,1.51-2.85,5.79-1.53,5.8,1.63,0,9.1-1.8,17.48-3.7,26.32s-3.66,17.62-5.31,26.48c-12.2,65.6-16.79,123.86-16.74,189.54,20.12-25.31,37.71-55.62,50.75-85.39a393.54,393.54,0,0,0,30.61-113.38q1.84-16.41,2.21-32.94.18-8.54.35-17.09c.06-2.93,1.19-11.77,6.13-9.18,4.54,2.38,4.11,7.7,4.49,12.34.41,5.07.45,10.12.38,15.2q-.18,14.6-1.54,29.14c-6.53,70.18-33,139.56-73.28,196.4-6.14,8.67-12.48,18-19.93,25.52,1.71,112.33,18.76,262.1,19.05,273.44.07,2.51,0,1.86-.93,2.79-3.64,3.65-7.92,4.85-9.29.93-2.58-7.4-2.16-14.34-6-55.32-6.88-73.08-14.59-240.48-14.56-247.27-23.91-17.18-40.84-43.6-51.9-71.2-5.87-14.64-9.31-29.71-11.9-45.31C2737.21,1295.86,2737.48,1242.83,2738.94,1234.15Z"/><path class="cls-25" d="M2903.29,1142.47a222.15,222.15,0,0,1-1.38-24.8c0-93.94,58.37-170.09,130.38-170.09s130.39,76.15,130.39,170.09a222.15,222.15,0,0,1-1.38,24.8Z"/><path class="cls-8" d="M2755.72,1100.47q-1.35-17.13-1.38-35c0-132.48,58.38-239.88,130.39-239.88S3015.12,933,3015.12,1065.5q0,17.82-1.38,35Z"/><path class="cls-25" d="M3012.14,1247.47a349,349,0,0,0,1.74-35c0-132.48-74-239.88-165.29-239.88S2683.3,1080,2683.3,1212.5a349,349,0,0,0,1.75,35Z"/><path class="cls-8" d="M2885.22,972.62c45.63,0,86.39,34.07,113.29,87.51a128,128,0,0,1,43.34-7.55c81,0,146.66,76.15,146.66,170.09a198.47,198.47,0,0,1-1.55,24.8H2740.11q-1.53-17.13-1.55-35C2738.56,1080,2804.22,972.62,2885.22,972.62Z"/><rect class="cls-19" y="1763.47" width="3141" height="8"/></g></g></g></svg>