<svg xmlns="http://www.w3.org/2000/svg" xmlns:xlink="http://www.w3.org/1999/xlink" viewBox="0 0 500 500"><defs><style>.cls-1{fill:none;}.cls-2{clip-path:url(#clip-path);}.cls-3{fill:#eae0bc;}.cls-4{fill:#b6ac88;}.cls-5{fill:#fff5d1;}.cls-6{fill:#9a9375;}.cls-7{fill:#39382d;}.cls-8{fill:#564c54;}.cls-9{fill:#fbb981;}.cls-10{fill:#e0e0db;}.cls-11{fill:#f8a163;}.cls-12{fill:#6f636d;}.cls-13{fill:#61565f;}.cls-14{fill:#494047;}.cls-15{fill:#c3c3c0;}.cls-16{fill:#2d2c22;}.cls-17{fill:#4a483c;}.cls-18{fill:#c7b59d;}.cls-19{fill:#c4ba92;}</style><clipPath id="clip-path" transform="translate(9.16 27.55)"><path class="cls-1" d="M66.84,458.45C-38.43,409.1,5.49,345.17,32.49,228.06,54,129.8,77.77,104.67,178.8,59.33,279.55,10.74,331.5-14.31,383.3,8.54,455.21,47,491,139.11,484.32,229.19c-8.34,72.86-46.59,87.25-38.82,141.26,7.05,48.95,42.42,64.71,33.34,83.33-12.53,25.69-80.13-3.56-192.67-.66C169.56,456.12,131.15,490.38,66.84,458.45Z"/></clipPath></defs><g id="Layer_2" data-name="Layer 2"><g id="Layer_4" data-name="Layer 4"><g class="cls-2"><g id="OBJECTS"><rect class="cls-3" width="500" height="500"/><polygon class="cls-4" points="240.43 247 223 247 224.43 106 239 106 240.43 247"/><polygon class="cls-4" points="275.43 247 258 247 259.43 106 274 106 275.43 247"/><polygon class="cls-4" points="310.43 247 293 247 294.43 106 309 106 310.43 247"/><polygon class="cls-4" points="394.36 255 390 255 390.36 133 394 133 394.36 255"/><rect class="cls-4" x="381" y="143" width="4" height="108"/><rect class="cls-4" x="373" y="151" width="4" height="108"/><rect class="cls-4" x="366" y="157" width="4" height="108"/><rect class="cls-4" x="357" y="162" width="4" height="108"/><rect class="cls-4" x="191" y="223" width="154" height="72"/><rect class="cls-4" y="244" width="154" height="51"/><polygon class="cls-4" points="12.05 271 105.36 271 90.88 173 26.54 173 12.05 271"/><rect class="cls-4" x="116" y="148" width="82" height="146"/><rect class="cls-4" x="127" y="136" width="59" height="146"/><rect class="cls-4" x="328" y="168" width="71" height="127"/><rect class="cls-4" x="390" y="201" width="110" height="94"/><rect class="cls-4" x="422" y="184" width="64" height="94"/><rect class="cls-4" x="22" y="167" width="74" height="11"/><rect class="cls-4" y="292" width="500" height="208"/><rect class="cls-4" x="426" y="176" width="12" height="19"/><rect class="cls-4" x="425" y="172" width="15" height="5"/><rect class="cls-4" x="222" y="103" width="18" height="4"/><rect class="cls-4" x="258" y="103" width="18" height="4"/><rect class="cls-4" x="293" y="103" width="18" height="4"/><rect class="cls-4" x="448" y="176" width="12" height="19"/><rect class="cls-4" x="446" y="172" width="15" height="5"/><rect class="cls-4" x="470" y="176" width="12" height="19"/><rect class="cls-4" x="468" y="172" width="15" height="5"/><polygon class="cls-4" points="240.43 247 223 247 224.43 106 239 106 240.43 247"/><polygon class="cls-4" points="275.43 247 258 247 259.43 106 274 106 275.43 247"/><polygon class="cls-4" points="310.43 247 293 247 294.43 106 309 106 310.43 247"/><polygon class="cls-4" points="394.36 255 390 255 390.36 133 394 133 394.36 255"/><rect class="cls-4" x="381" y="143" width="4" height="108"/><rect class="cls-4" x="373" y="151" width="4" height="108"/><rect class="cls-4" x="366" y="157" width="4" height="108"/><rect class="cls-4" x="357" y="162" width="4" height="108"/><rect class="cls-4" x="191" y="223" width="154" height="72"/><rect class="cls-4" y="244" width="154" height="51"/><polygon class="cls-4" points="12.05 271 105.36 271 90.88 173 26.54 173 12.05 271"/><rect class="cls-4" x="116" y="148" width="82" height="146"/><rect class="cls-4" x="127" y="136" width="59" height="146"/><rect class="cls-4" x="328" y="168" width="71" height="127"/><rect class="cls-4" x="390" y="201" width="110" height="94"/><rect class="cls-4" x="422" y="184" width="64" height="94"/><rect class="cls-4" x="22" y="167" width="74" height="11"/><rect class="cls-4" y="292" width="500" height="208"/><rect class="cls-4" x="426" y="176" width="12" height="19"/><rect class="cls-4" x="425" y="172" width="15" height="5"/><rect class="cls-4" x="222" y="103" width="18" height="4"/><rect class="cls-4" x="258" y="103" width="18" height="4"/><rect class="cls-4" x="293" y="103" width="18" height="4"/><rect class="cls-4" x="448" y="176" width="12" height="19"/><rect class="cls-4" x="446" y="172" width="15" height="5"/><rect class="cls-4" x="470" y="176" width="12" height="19"/><rect class="cls-4" x="468" y="172" width="15" height="5"/><path class="cls-5" d="M23.6,123.29a10.57,10.57,0,0,1-4.18-2.5c-3.27-3.72,0-9.69,4.12-12.4,6-4,13.54-4.81,20.31-7.34S57.39,93,57.2,85.79C56.94,76,45.26,71.56,36.63,66.85c-7.91-4.33-15-11.57-16-20.53s4.26-17.61,11.43-23,16-8,24.7-10.07A315.84,315.84,0,0,1,153.6,5.12c6.29.44,12.82,1.16,18.18,4.49s9.13,10.05,7.12,16c-1.52,4.53-5.82,7.5-10.11,9.61-17.3,8.47-37.83,7.93-55.46,15.67-1.63.72-3.33,1.59-4.19,3.15-2.31,4.19,2.84,8.43,4.62,12.87,2.65,6.6-3,14-9.52,16.69s-13.95,2.5-20.88,4.06-14.22,6-15.16,13.07c-.47,3.48.72,7,.86,10.47C70.1,136.12,36.75,128.47,23.6,123.29Z" transform="translate(9.16 27.55)"/><path class="cls-5" d="M318.32,63.79c5.91-2.45,10.67-8.74,8.95-14.74-.69-2.42-2.37-4.68-2.16-7.19.33-4,5-6.06,9-7.09A108.6,108.6,0,0,1,359,31.35c4.71-.09,9.57.1,13.95-1.58s8.16-5.88,7.47-10.38c-.16-1.07-.56-2.1-.63-3.17-.4-5.92,7.9-7.94,14-8.26A146.73,146.73,0,0,0,432.6.62c1.66-.55,3.45-1.25,4.25-2.75,1.7-3.2-2.26-6.4-5.67-7.84A115.65,115.65,0,0,0,361-16c-3.59.82-7.61,2.22-8.9,5.56-.92,2.39-.11,5.05-.24,7.6C351.49,4,344.39,8.94,337.4,10.26s-14.23.16-21.34.62c-5.42.36-11.89,2.83-12.4,8-.27,2.72,1.23,5.26,2.07,7.87a17,17,0,0,1-3.94,16.66c-2.74,2.84-6.4,4.69-9.46,7.21-6.81,5.58-6.58,14.7,2.69,16.93C300.19,68.83,313.72,65.69,318.32,63.79Z" transform="translate(9.16 27.55)"/><path class="cls-5" d="M270.17,45.91c1.71-3.47,5.86-4.81,9.47-6.2s7.58-3.88,7.71-7.75a15.27,15.27,0,0,0-1.09-4.8C283,16,292.17,3,303.79,2.4c3.18-.16,6.41.46,9.55-.1s6.35-2.84,6.44-6c.13-4.85-6.16-6.77-11-7.15-8.38-.65-17.06-1.16-24.94,1.76S269.06,1.06,269.29,9.46c.06,2.48.72,5-.16,7.36-2.57,6.79-14.53,4.51-17.95,10.92-3.64,6.84,6.53,14.42,4.67,21.94-2.09,8.42-14.29,18.83,3,18.44C276.24,67.72,265.6,55.19,270.17,45.91Z" transform="translate(9.16 27.55)"/><path class="cls-5" d="M227.63,31c1-7,8.91-10.24,15-13.78a44.14,44.14,0,0,0,11.89-10c2.26-2.71,4.26-6.46,2.67-9.61a7.84,7.84,0,0,0-2.73-2.82c-8.24-5.56-21.14-1.78-25.08,7.35-1.66,3.82-1.91,8.26-4.28,11.69-4.22,6.13-13,6.45-19.72,9.65-3.85,1.84-7.52,5.83-6.26,9.91.89,2.86,3.8,4.48,6.19,6.29,3.6,2.74,6.56,7.35,5,11.62-2.19,6.08-10.69,9.1-6,16.56,3.87,6.21,10.93,3.74,16.42,1.45,7.78-3.25,15.55-8.92,14.68-18.13C234.75,43.81,226.51,38.9,227.63,31Z" transform="translate(9.16 27.55)"/><path class="cls-5" d="M418.65,91.86c-4.25-6.28-2.39-15.22,2.46-21s12-9.14,19.11-11.83c4.61-1.75,9.64-3.58,12.3-7.73s2.21-9.39,2.29-14.28c.13-9,4.28-19.8,13.2-20.64,8.14-.78,14.54,8.25,13.92,16.4s-6.11,15-11.89,20.81-12.46,12.06-11.79,20.06,8.72,15.77,4.81,22.75c-2.17,3.87-7,5.1-11.2,6.59-23,8.18,20,29.05-10.16,34.25-8,1.38-34.11.08-31.67-12.49,1.28-6.58,14-9,16.64-15C430.23,101.39,423,98.22,418.65,91.86Z" transform="translate(9.16 27.55)"/><path class="cls-5" d="M473.65,122.65c-.61-.9-1.48-1.86-1.19-2.91a2.86,2.86,0,0,1,1.57-1.52,21.35,21.35,0,0,0,4.53-2.82,5.06,5.06,0,0,0,1.75-4.78c-.77-3-4.57-3.64-7.62-3.77a13.55,13.55,0,0,0-5.5.54,4.58,4.58,0,0,0-3.13,4.17,22.66,22.66,0,0,0,.75,3c.45,2.33-.85,4.61-2.16,6.59C451,138.83,482,134.82,473.65,122.65Z" transform="translate(9.16 27.55)"/><path class="cls-5" d="M326.25,104.68c-2.12-1.28-4.29-3.15-4.33-5.62-.05-3.18,3.34-5.18,6.32-6.29a77.27,77.27,0,0,1,15.17-4c1.93-.31,4.32-1,4.59-2.89.32-2.19-2.34-3.4-3.91-5-2.83-2.81-2.08-7.86.59-10.81s6.68-4.29,10.54-5.29a115.18,115.18,0,0,1,27.1-3.55c7.3-.1,15.25.71,20.59,5.69,1.79,1.67,3.26,4.1,2.66,6.47-.5,2-2.27,3.31-4,4.33a32,32,0,0,1-14.86,4.33c-4,.15-8.12-.46-12.06.37s-7.9,3.65-8.28,7.67c-.19,1.93.47,3.83.63,5.77C368.53,114.53,335.17,110.05,326.25,104.68Z" transform="translate(9.16 27.55)"/><path class="cls-5" d="M141.57,98c-2.92-1-6.19-3.07-6.07-6.16.07-2.08,1.79-3.8,3.71-4.62A25.67,25.67,0,0,1,145.32,86a31.75,31.75,0,0,0,7.15-2,4.13,4.13,0,0,0,2.05-1.45c.76-1.22.16-2.84-.71-4s-2-2.1-2.57-3.43a5.65,5.65,0,0,1,1.5-5.75,14.85,14.85,0,0,1,5.37-3.17c8.67-3.45,18-5.54,27.35-4.68,3.88.36,8.48,2,9.18,5.79.55,3-1.72,5.85-4.4,7.27s-5.75,1.87-8.61,2.86-5.75,2.83-6.6,5.74c-2.58,8.74,5.32,15.63-8.12,18C159,102.52,149,100.68,141.57,98Z" transform="translate(9.16 27.55)"/><path class="cls-5" d="M27.11,6.43C22.88,5.92,17.85,4,17.31-.19,16.8-4.27,21-7.39,24.94-8.58c9.51-2.86,19.84-.25,29.62-2,5.59-1,10.92-3.36,16.59-3.72S83.33-12.14,85-6.71a6.55,6.55,0,0,1,.09,3.87c-.74,2.39-3.1,4-5.5,4.64-8.16,2.33-17.11-3.15-25.19-.6C44.34,4.38,38.26,7.79,27.11,6.43Z" transform="translate(9.16 27.55)"/><polygon class="cls-6" points="500 500 0 500 0 295 22 295 22 329 54 329 54 234 81 234 81 273 140 273 140 209 174 209 174 265 243 265 243 329 280 329 280 271 376 271 376 306 398 306 398 234 438 234 438 355 466 355 466 293 500 293 500 500"/><path class="cls-5" d="M-9.16,55.54c0-19.36,26.11-18.73,29.8-9s28,15.64,42.44,1.21,35.19-28.7,47-19.15S175.23,40.3,178.93,19,233.69-9.38,229.42,2.31s23.8,16.42,28,.07,18.12-12.55,15-2.64S297-7.63,297-7.63s18.22,17.41,22.81,4.09,33.78-4.43,32.05.87,43.42-.91,43.42-.91S436.5-15,436.85-1.94,453,15.29,460.52,6.93s30.32-6.29,30.32,9.55v-44h-500Z" transform="translate(9.16 27.55)"/><path class="cls-7" d="M115.52,418.81c-1.59,18.78-3.53,41.39-4.63,53.64H162c.58-11.86,2-31.71,5.22-31.95s7.41,19.36,10.37,31.95h49.27c-1.94-13.76-5.42-38.58-8-57.58C182.65,427.11,133.34,421.47,115.52,418.81Zm19.81,6.52c-1.54,3.95-5.62,7.28-8.77,10-3,2.52-6.16,5.21-10.24,5a.74.74,0,0,1,0-1.48c4-.47,7.61-5.1,10.26-7.92,2.19-2.33,4-5.32,6.66-7.16A1.44,1.44,0,0,1,135.33,425.33Zm68.38-.34a23.2,23.2,0,0,0,7.43,7c2.43,1.41,5.69,1.57,7.77,3.35a1.35,1.35,0,0,1-.59,2.24c-3,.93-7.11-1.79-9.45-3.51a22,22,0,0,1-6.76-8.14A.93.93,0,0,1,203.71,425Z" transform="translate(9.16 27.55)"/><path class="cls-8" d="M178.69,272.19a8.89,8.89,0,0,1,1.81-2.52,66.57,66.57,0,0,0-9.11-9.34c-1.19-1-2.49-1.95-3.83-2.87a59.72,59.72,0,0,0-17.07,14.87,8.46,8.46,0,0,1,1.8,2.52c1.17,4.23-16.93,37.79-32.94,53.36-2.94,25.89-8,70.16-10.61,89.3,0,0,2.48.47,6.78,1.11,17.82,2.66,67.13,8.29,103.33-3.94,2.79-.94,5.5-2,8.11-3.15,0,0-8.59-46.14-13.1-83.93C197.35,313.17,177.48,276.62,178.69,272.19Zm-1.92,120a96.45,96.45,0,0,1-30.47-.84c-5-1-15-2.54-16.67-6.84-1.34-3.39-.55-7.52-.36-11.11s-1.56-8.94.26-12.27c1.3-2.37,3.76-2.13,6.1-3.27a21.17,21.17,0,0,0,5.07-3.46c1.61-1.49,5.49-11,8.46-9.44,6,3.15,12.64,3.88,19.31,3.07,4.65-.57,16.3-6.21,19.81-1.93,2.11,2.58,2.67,6.59,5.47,8.6,2.43,1.75,5.62,1.62,8,3.16,2.05,1.34,1.46,5.52,1.74,7.69.22,1.71.45,3.35.62,5.06.37,3.62,2.95,9.11,1.14,12.57-1.52,2.91-5.88,3.45-8.63,4.51A82.58,82.58,0,0,1,176.77,392.17Z" transform="translate(9.16 27.55)"/><path class="cls-8" d="M194.92,257.11a8,8,0,0,1,2.37-1.21s36.07,37.68,44.37,51.4c-5.46-12.13-22.58-50.18-25.55-56.49-1.06-2.25-5.52-4.78-11.26-7.21-4.27-1.82-9.24-3.58-14-5.14C192.63,246,194.13,253.22,194.92,257.11Z" transform="translate(9.16 27.55)"/><path class="cls-8" d="M133.7,258.56a7.83,7.83,0,0,1,2.36,1.21c.89-4.37,2.68-12.89,4.79-21.41a243.58,243.58,0,0,0-23.06,10.92,69.7,69.7,0,0,0-8.6,5.52c-11.07,8.63-21.38,54.68-21.54,58.88C88.76,305.49,133.7,258.56,133.7,258.56Z" transform="translate(9.16 27.55)"/><path class="cls-9" d="M189,218c-.12.42-.25.84-.38,1.26C188.72,218.81,188.85,218.39,189,218Z" transform="translate(9.16 27.55)"/><path class="cls-9" d="M130.29,212.11c-.09-.54-.18-1.08-.26-1.61C130.11,211,130.2,211.57,130.29,212.11Z" transform="translate(9.16 27.55)"/><path class="cls-9" d="M133.41,222.79a51.35,51.35,0,0,1-3.11-10.68A51.35,51.35,0,0,0,133.41,222.79Z" transform="translate(9.16 27.55)"/><path class="cls-9" d="M188,221.09c-.14.39-.28.77-.43,1.15C187.68,221.86,187.82,221.48,188,221.09Z" transform="translate(9.16 27.55)"/><path class="cls-9" d="M187.4,222.57c-.16.39-.31.78-.48,1.17C187.09,223.35,187.24,223,187.4,222.57Z" transform="translate(9.16 27.55)"/><path class="cls-9" d="M188.49,219.55c-.13.4-.27.79-.4,1.18C188.22,220.34,188.36,220,188.49,219.55Z" transform="translate(9.16 27.55)"/><path class="cls-9" d="M134.7,225.61c-.19-.38-.37-.76-.55-1.15C134.33,224.85,134.51,225.23,134.7,225.61Z" transform="translate(9.16 27.55)"/><path class="cls-9" d="M190.35,211.77a52.8,52.8,0,0,1-1.34,6,55.75,55.75,0,0,0,.84-26.76c-25.58-2.22-37.67-16.1-37.67-16.1a38.89,38.89,0,0,1-22,17.85,54.65,54.65,0,0,0-.19,17.69A128.61,128.61,0,0,0,190.35,211.77Zm-11.84-5.28c-2.24,3.5-7.94,2.64-9.89-.63a1,1,0,0,1,1.51-1.16,4.74,4.74,0,0,0,4.87.9c1-.42,2.61-2.15,3.51-.52A1.4,1.4,0,0,1,178.51,206.49Zm-10.29-11.86c2.11-.25,3.62-1.26,5.83-.85a15,15,0,0,1,5.65,2.72,1.65,1.65,0,0,1,.71,1.76,1,1,0,0,1-.71.93,1.57,1.57,0,0,1-1.57,0c-1.65-1.19-3.49-2.54-5.6-2.62-1.67-.07-3,.89-4.61.31A1.15,1.15,0,0,1,168.22,194.63ZM138.49,197a8.21,8.21,0,0,1,6.34-3.85c1.93-.22,6,0,6,2.69a1.16,1.16,0,0,1-.59,1c-1.45.83-3.07-.43-4.64-.46a7.74,7.74,0,0,0-5.18,2.08A1.22,1.22,0,0,1,138.49,197Zm14.75,8.92c-2,3.4-9,4.57-10.64.2a.8.8,0,0,1,1-1,9.86,9.86,0,0,0,3.86,1,5.71,5.71,0,0,0,3.69-1.83,1.36,1.36,0,0,1,1.31-.35,1.51,1.51,0,0,1,.6.35A1.38,1.38,0,0,1,153.24,205.88Z" transform="translate(9.16 27.55)"/><path class="cls-9" d="M136.24,228.41c-.22-.35-.42-.71-.63-1.08C135.82,227.7,136,228.06,136.24,228.41Z" transform="translate(9.16 27.55)"/><path class="cls-9" d="M138.76,232.12a37.64,37.64,0,0,1-2.39-3.49A37.64,37.64,0,0,0,138.76,232.12Z" transform="translate(9.16 27.55)"/><path class="cls-9" d="M134,224.18c-.18-.4-.37-.81-.54-1.23C133.65,223.37,133.84,223.78,134,224.18Z" transform="translate(9.16 27.55)"/><path class="cls-9" d="M139.48,233c-.22-.26-.44-.53-.65-.8C139,232.48,139.26,232.75,139.48,233Z" transform="translate(9.16 27.55)"/><path class="cls-9" d="M141.5,235.24l-.6-.62Z" transform="translate(9.16 27.55)"/><path class="cls-9" d="M135.44,227c-.2-.36-.39-.73-.58-1.1C135.05,226.29,135.24,226.66,135.44,227Z" transform="translate(9.16 27.55)"/><path class="cls-9" d="M140.45,234.13c-.21-.23-.41-.45-.61-.69C140,233.68,140.24,233.9,140.45,234.13Z" transform="translate(9.16 27.55)"/><path class="cls-10" d="M146.46,228.31a3,3,0,0,1,.8-1.85c1.55-1.55,5.76,0,5.76,0s-1.55-3.76,2.88-4c1.81-.09,6.66,2.66,11.74,5.93,3.34-2,6.16-3.34,7.45-3.28,4.43.22,2.88,4,2.88,4a13.24,13.24,0,0,1,3.05-.67,5.14,5.14,0,0,1,.11-.88c.4-1.59,2.39-3,4.58-1.25.41-.81.8-1.63,1.16-2.47l0-.11c.17-.39.32-.78.48-1.17l.13-.33c.15-.38.29-.76.43-1.15l.13-.36c.13-.39.27-.78.4-1.18,0-.11.06-.21.1-.32.13-.42.26-.84.38-1.26,0-.06,0-.11,0-.16a52.8,52.8,0,0,0,1.34-6A128.61,128.61,0,0,1,130,210.49h0c.08.53.17,1.07.26,1.61h0a52,52,0,0,0,3.12,10.68l.07.16c.17.42.36.83.54,1.23,0,.1.09.19.13.28.18.39.36.77.55,1.15.05.11.11.21.16.31.19.37.38.74.58,1.1l.17.31c.21.37.41.73.63,1.08,0,.08.09.15.13.22a37.64,37.64,0,0,0,2.39,3.49l.07.09c.21.27.43.54.65.8l.36.43c.2.24.4.46.61.69l.45.49.6.62.17.17C143.15,230.78,144.93,228.82,146.46,228.31Z" transform="translate(9.16 27.55)"/><path class="cls-11" d="M147.61,240.84a36.32,36.32,0,0,1-2.78-5.3c-1.33-3.1,2-4.65,2-4.65a6.43,6.43,0,0,1-.36-2.58c-1.53.51-3.31,2.47-4.79,7.1-.23.72-.46,1.49-.67,2.34l-.15.61c-2.11,8.52-3.9,17-4.79,21.41a96.09,96.09,0,0,1,14.43,12.56,59.72,59.72,0,0,1,17.07-14.87c-7.64-5.25-17-9.36-19.41-12.18C145.27,242,147.61,240.84,147.61,240.84Z" transform="translate(9.16 27.55)"/><path class="cls-11" d="M175.09,225.13c-1.29-.06-4.11,1.31-7.45,3.28,7.28,4.69,15,10.45,15,10.45s-1.82-7.11-1.66-10.41a13.24,13.24,0,0,0-3.05.67S179.52,225.35,175.09,225.13Z" transform="translate(9.16 27.55)"/><path class="cls-12" d="M152.29,274.85a8.46,8.46,0,0,0-1.8-2.52,96.09,96.09,0,0,0-14.43-12.56,7.83,7.83,0,0,0-2.36-1.21s-44.94,46.93-46,55.12.89,20.37,17.27,22.36c4.07.5,9.13-2.68,14.43-7.83C135.36,312.64,153.46,279.08,152.29,274.85Zm-20.43-11c3.92-.29,7.3,2.23,10,4.83,2.37,2.31,7.07,6.81,6.74,10.33a1.41,1.41,0,0,1-2.09,1.2c-1.63-.83-2.1-2.26-3.05-3.75a39.37,39.37,0,0,0-3.4-4.53,25.29,25.29,0,0,0-8.61-6.49C130.59,265,131.1,263.86,131.86,263.81Z" transform="translate(9.16 27.55)"/><path class="cls-9" d="M190,235.1c-1.25-5-2.81-7.59-4.28-8.78.41-.8.8-1.63,1.16-2.47-.36.84-.75,1.66-1.16,2.47-2.19-1.77-4.18-.34-4.58,1.25a5.14,5.14,0,0,0-.11.88c-.16,3.3,1.66,10.41,1.66,10.41s-7.76-5.76-15-10.45c-5.08-3.27-9.93-6-11.74-5.93-4.43.22-2.88,4-2.88,4s-4.21-1.55-5.76,0a3,3,0,0,0-.8,1.85,6.43,6.43,0,0,0,.36,2.58s-3.32,1.55-2,4.65a36.32,36.32,0,0,0,2.78,5.3s-2.34,1.12.54,4.44c2.44,2.82,11.77,6.93,19.41,12.18,1.34.92,2.64,1.88,3.83,2.87a66.57,66.57,0,0,1,9.11,9.34,97.1,97.1,0,0,1,14.42-12.56c-.79-3.89-2.29-11.09-4.11-18.65C190.54,237.34,190.27,236.22,190,235.1Z" transform="translate(9.16 27.55)"/><path class="cls-12" d="M226.07,333.39c16.38-2,18.38-14.17,17.27-22.36a11.52,11.52,0,0,0-1.68-3.73c-8.3-13.72-44.37-51.4-44.37-51.4a8,8,0,0,0-2.37,1.21,97.1,97.1,0,0,0-14.42,12.56,8.89,8.89,0,0,0-1.81,2.52c-1.21,4.43,18.66,41,35.17,55.41C218.34,331.52,222.57,333.81,226.07,333.39ZM189.5,265.45c3-2,7.59-4.58,11.28-3.74a1.68,1.68,0,0,1,.4,3c-2.71,1.79-6.37,2.05-9.27,3.76a29,29,0,0,0-8.58,7.46,1.18,1.18,0,0,1-2-1.2A25.94,25.94,0,0,1,189.5,265.45Z" transform="translate(9.16 27.55)"/><path class="cls-8" d="M133.24,423.72c-2.62,1.84-4.47,4.83-6.66,7.16-2.65,2.82-6.23,7.45-10.26,7.92a.74.74,0,0,0,0,1.48c4.08.23,7.29-2.46,10.24-5,3.15-2.69,7.23-6,8.77-10A1.44,1.44,0,0,0,133.24,423.72Z" transform="translate(9.16 27.55)"/><path class="cls-8" d="M208.87,434.06c2.34,1.72,6.44,4.44,9.45,3.51a1.35,1.35,0,0,0,.59-2.24c-2.08-1.78-5.34-1.94-7.77-3.35a23.2,23.2,0,0,1-7.43-7,.93.93,0,0,0-1.6.93A22,22,0,0,0,208.87,434.06Z" transform="translate(9.16 27.55)"/><path class="cls-12" d="M205.22,383.16c1.81-3.46-.77-9-1.14-12.57-.17-1.71-.4-3.35-.62-5.06-.28-2.17.31-6.35-1.74-7.69-2.35-1.54-5.54-1.41-8-3.16-2.8-2-3.36-6-5.47-8.6-3.51-4.28-15.16,1.36-19.81,1.93-6.67.81-13.34.08-19.31-3.07-3-1.56-6.85,7.95-8.46,9.44a21.17,21.17,0,0,1-5.07,3.46c-2.34,1.14-4.8.9-6.1,3.27-1.82,3.33-.06,8.6-.26,12.27s-1,7.72.36,11.11c1.7,4.3,11.68,5.83,16.67,6.84a96.45,96.45,0,0,0,30.47.84,82.58,82.58,0,0,0,19.82-4.5C199.34,386.61,203.7,386.07,205.22,383.16Z" transform="translate(9.16 27.55)"/><path class="cls-7" d="M210.52,190.31s4.08-62.56-61.85-50.41c-36.61,6.75-32.92,55.22-32.92,55.22,2.16,21.37,3.9,39,2,54.16a243.58,243.58,0,0,1,23.06-10.92l.15-.61c.21-.85.44-1.62.67-2.34l-.17-.17-.6-.62-.45-.49c-.21-.23-.41-.45-.61-.69l-.36-.43c-.22-.26-.44-.53-.65-.8l-.07-.09a37.64,37.64,0,0,1-2.39-3.49c0-.07-.09-.14-.13-.22-.22-.35-.42-.71-.63-1.08l-.17-.31c-.2-.36-.39-.73-.58-1.1-.05-.1-.11-.2-.16-.31-.19-.38-.37-.76-.55-1.15,0-.09-.09-.18-.13-.28-.18-.4-.37-.81-.54-1.23l-.07-.16a51.35,51.35,0,0,1-3.11-10.68h0c-.09-.54-.18-1.08-.26-1.61h0a54.65,54.65,0,0,1,.19-17.69,38.89,38.89,0,0,0,22-17.85s12.09,13.88,37.67,16.1a55.75,55.75,0,0,1-.84,26.76c0,.05,0,.1,0,.16-.12.42-.25.84-.38,1.26,0,.11-.07.21-.1.32-.13.4-.27.79-.4,1.18l-.13.36c-.14.39-.28.77-.43,1.15l-.13.33c-.16.39-.31.78-.48,1.17l0,.11c-.36.84-.75,1.67-1.16,2.47,1.47,1.19,3,3.8,4.28,8.78.28,1.12.55,2.24.82,3.36,4.8,1.56,9.77,3.32,14,5.14a55.11,55.11,0,0,1,1.2-15.24C210.52,210.71,211,202,210.52,190.31Z" transform="translate(9.16 27.55)"/><path class="cls-7" d="M131.43,265.4a25.29,25.29,0,0,1,8.61,6.49,39.37,39.37,0,0,1,3.4,4.53c.95,1.49,1.42,2.92,3.05,3.75a1.41,1.41,0,0,0,2.09-1.2c.33-3.52-4.37-8-6.74-10.33-2.68-2.6-6.06-5.12-10-4.83C131.1,263.86,130.59,265,131.43,265.4Z" transform="translate(9.16 27.55)"/><path class="cls-7" d="M183.33,276a29,29,0,0,1,8.58-7.46c2.9-1.71,6.56-2,9.27-3.76a1.68,1.68,0,0,0-.4-3c-3.69-.84-8.28,1.72-11.28,3.74a25.94,25.94,0,0,0-8.21,9.32A1.18,1.18,0,0,0,183.33,276Z" transform="translate(9.16 27.55)"/><path class="cls-7" d="M150.22,196.82a1.16,1.16,0,0,0,.59-1c0-2.64-4.05-2.91-6-2.69a8.21,8.21,0,0,0-6.34,3.85,1.22,1.22,0,0,0,1.91,1.48,7.74,7.74,0,0,1,5.18-2.08C147.15,196.39,148.77,197.65,150.22,196.82Z" transform="translate(9.16 27.55)"/><path class="cls-7" d="M167.92,196.88c1.64.58,2.94-.38,4.61-.31,2.11.08,3.95,1.43,5.6,2.62a1.57,1.57,0,0,0,1.57,0,1,1,0,0,0,.71-.93,1.65,1.65,0,0,0-.71-1.76,15,15,0,0,0-5.65-2.72c-2.21-.41-3.72.6-5.83.85A1.15,1.15,0,0,0,167.92,196.88Z" transform="translate(9.16 27.55)"/><path class="cls-7" d="M152.43,203.9a1.36,1.36,0,0,0-1.31.35,5.71,5.71,0,0,1-3.69,1.83,9.86,9.86,0,0,1-3.86-1,.8.8,0,0,0-1,1c1.63,4.37,8.67,3.2,10.64-.2a1.38,1.38,0,0,0-.21-1.63A1.51,1.51,0,0,0,152.43,203.9Z" transform="translate(9.16 27.55)"/><path class="cls-7" d="M175,205.6a4.74,4.74,0,0,1-4.87-.9,1,1,0,0,0-1.51,1.16c1.95,3.27,7.65,4.13,9.89.63a1.4,1.4,0,0,0,0-1.41C177.61,203.45,176,205.18,175,205.6Z" transform="translate(9.16 27.55)"/><path class="cls-13" d="M145.88,290.85a100.4,100.4,0,0,1-32.33,27.62c-5.36,2.87-11.25,5.3-17.32,5a25,25,0,0,1-8.52-2.18c1.1,6.68,5.45,13.36,17.21,14.79,4.07.5,9.13-2.68,14.43-7.83C129,318.84,139.38,302.94,145.88,290.85Z" transform="translate(9.16 27.55)"/><path class="cls-13" d="M243.49,312.39c-5.76,2.75-12.72,3.75-19.17,3.67-5.18-.06-10.48-.61-15.11-2.91-4.29-2.12-7.74-5.6-11.1-9s-6.71-6.82-9.89-10.39c7,12.08,16.81,26.13,25.64,33.85,4.48,3.92,8.71,6.21,12.21,5.79C241.56,331.5,244.18,320.51,243.49,312.39Z" transform="translate(9.16 27.55)"/><path class="cls-14" d="M218.85,414.68c2.79-.94,5.5-2,8.11-3.15,0,0-8.59-46.14-13.1-83.93-5.92-5.17-12.27-13.19-17.92-21.55a386.15,386.15,0,0,0,11.45,40.48c4.35,12.69,9.38,26.54,4.71,39.11-4.13,11.12-15,18.32-25.91,22.93a109.42,109.42,0,0,1-70.94,4.59c-1.9-.53-3.81-1.11-5.72-1.63-.28,2.19-.55,4.19-.79,6,0,0,2.48.47,6.78,1.11C133.34,421.28,182.65,426.91,218.85,414.68Z" transform="translate(9.16 27.55)"/><path class="cls-13" d="M176.77,392.17a82.58,82.58,0,0,0,19.82-4.5c2.75-1.06,7.11-1.6,8.63-4.51,1.81-3.46-.77-9-1.14-12.57-.17-1.71-.4-3.35-.62-5.06-.28-2.17.31-6.35-1.74-7.69-2.35-1.54-5.54-1.41-8-3.16-2.8-2-3.36-6-5.47-8.6-1.18-1.43-3.27-1.75-5.71-1.52a.64.64,0,0,0,0,.07,18,18,0,0,0,9.79,18.72c1.56.73,3.29,1.28,4.44,2.56,3,3.3.06,8.59-3.44,11.33-7.66,6-17.74,7.89-27.44,8.71-12.6,1.05-25.94.43-37-5.44a12,12,0,0,0,.75,4c1.7,4.3,11.68,5.83,16.67,6.84A96.45,96.45,0,0,0,176.77,392.17Z" transform="translate(9.16 27.55)"/><path class="cls-11" d="M157.5,244.18c-2.83-1.33-5.93-3.2-9.06-3.65a.33.33,0,0,0-.18.64c2.63,1.1,5.13,2.55,7.7,3.8,2.29,1.11,4.8,2,6.61,3.81a.47.47,0,0,0,.77-.45C163,245.91,159.37,245.06,157.5,244.18Z" transform="translate(9.16 27.55)"/><path class="cls-11" d="M165.86,241.38c-.64-1-1.52-1.13-2.6-1.51a53.3,53.3,0,0,1-5.73-2.4c-3.45-1.7-6.48-3.95-9.75-5.92a.21.21,0,0,0-.26.33c4.78,5,11.65,7.59,18,10C165.75,242,166,241.61,165.86,241.38Z" transform="translate(9.16 27.55)"/><path class="cls-11" d="M169.63,237.41c-5.78-2.09-10.37-6.16-15.59-9.32-.16-.1-.35.14-.21.27a67.22,67.22,0,0,0,8,6.07c2.2,1.49,4.91,3.79,7.73,3.61A.32.32,0,0,0,169.63,237.41Z" transform="translate(9.16 27.55)"/><path class="cls-11" d="M190.35,211.77h0c-.11.65-.23,1.29-.36,1.94C190.11,213.06,190.25,212.42,190.35,211.77Z" transform="translate(9.16 27.55)"/><path class="cls-11" d="M189.85,191.05c-25.58-2.22-37.67-16.1-37.67-16.1a38.89,38.89,0,0,1-22,17.85c0,.23-.07.47-.11.71,8.44.43,16.56-4.28,22.68-10.22a3.79,3.79,0,0,1,1.84-1.21c1.22-.21,2.27.8,3.14,1.68A34,34,0,0,0,178,193.57c2.08.23,4.51.46,5.62,2.23a5.77,5.77,0,0,1,.67,1.89,35.38,35.38,0,0,1-.11,15.26c2-.34,4.1-.73,6.2-1.18A55.46,55.46,0,0,0,189.85,191.05Z" transform="translate(9.16 27.55)"/><path class="cls-11" d="M190,213.71c-.06.31-.11.64-.18,1C189.87,214.35,189.92,214,190,213.71Z" transform="translate(9.16 27.55)"/><path class="cls-11" d="M189.8,214.67c-.23,1.05-.49,2.1-.79,3.14C189.31,216.77,189.56,215.72,189.8,214.67Z" transform="translate(9.16 27.55)"/><path class="cls-15" d="M179.88,225.22,178.22,228a4.31,4.31,0,0,1-.25,1.14,13.24,13.24,0,0,1,3.05-.67,5.14,5.14,0,0,1,.11-.88c.4-1.59,2.39-3,4.58-1.25.41-.81.8-1.63,1.16-2.47l0-.11c.17-.39.32-.78.48-1.17l.13-.33c.15-.38.29-.76.43-1.15l.13-.36c.13-.39.27-.78.4-1.18,0-.11.06-.21.1-.32.13-.42.26-.84.38-1.26,0-.06,0-.11,0-.16a52.8,52.8,0,0,0,1.34-6c-2,.43-4,.8-5.93,1.13C184.5,217.2,182.15,221.43,179.88,225.22Z" transform="translate(9.16 27.55)"/><path class="cls-16" d="M196.46,183.43a9.37,9.37,0,0,0-2.22-3,10.7,10.7,0,0,0-3.85-1.62,122.62,122.62,0,0,1-27.45-11.49,20.84,20.84,0,0,1-5.79-4.34,6.7,6.7,0,0,0-2.34-2.16c-1.81-.68-3.65.8-5,2.17l-14.15,14.24c-4.14,4.16-8.55,8.49-14.22,10a140.5,140.5,0,0,0,9.84,55.25c3.55-1.62,6.88-3.06,9.58-4.18l.15-.61c.21-.85.44-1.62.67-2.34l-.17-.17-.6-.62-.45-.49c-.21-.23-.41-.45-.61-.69l-.36-.43c-.22-.26-.44-.53-.65-.8l-.07-.09a37.64,37.64,0,0,1-2.39-3.49c0-.07-.09-.14-.13-.22-.22-.35-.42-.71-.63-1.08l-.17-.31c-.2-.36-.39-.73-.58-1.1-.05-.1-.11-.2-.16-.31-.19-.38-.37-.76-.55-1.15,0-.09-.09-.18-.13-.28-.18-.4-.37-.81-.54-1.23l-.07-.16a51.35,51.35,0,0,1-3.11-10.68h0c-.09-.54-.18-1.08-.26-1.61h0a54.65,54.65,0,0,1,.19-17.69,38.89,38.89,0,0,0,22-17.85s12.09,13.88,37.67,16.1a55.75,55.75,0,0,1-.84,26.76c0,.05,0,.1,0,.16-.12.42-.25.84-.38,1.26,0,.11-.07.21-.1.32-.13.4-.27.79-.4,1.18l-.13.36c-.14.39-.28.77-.43,1.15l-.13.33c-.16.39-.31.78-.48,1.17l0,.11c-.36.84-.75,1.67-1.16,2.47,1.47,1.19,3,3.8,4.28,8.78.28,1.12.55,2.24.82,3.36,2.15.7,4.32,1.44,6.46,2.2a81,81,0,0,0,4.89-16.21C204.72,210.61,203.17,195.8,196.46,183.43Z" transform="translate(9.16 27.55)"/><path class="cls-17" d="M199.11,159.24c-1-6.12-9.19-10.86-14.4-13-7.82-3.26-16-3.6-24.29-2.33-1.41.21-1,2.39.32,2.41,7.51.12,15.36.78,22.28,3.93a31.6,31.6,0,0,1,8.25,5.35c1.94,1.77,3.34,4,5.57,5.41A1.56,1.56,0,0,0,199.11,159.24Z" transform="translate(9.16 27.55)"/><path class="cls-17" d="M195.56,164.6c-1.93-3.35-5.69-5.63-9.18-7-1.07-.43-1.79,1.32-.78,1.85,3.26,1.72,5.36,4.18,7.82,6.82A1.37,1.37,0,0,0,195.56,164.6Z" transform="translate(9.16 27.55)"/><path class="cls-17" d="M144,147.7a30.34,30.34,0,0,0-14.35,7.72c-2.75,2.7-8.2,8.77-6.47,12.93a1,1,0,0,0,1.46.6c1.7-.84,2.26-2.43,3.21-4a37.21,37.21,0,0,1,4.4-6.1,33.6,33.6,0,0,1,12.41-8.76A1.24,1.24,0,0,0,144,147.7Z" transform="translate(9.16 27.55)"/><path class="cls-17" d="M130.57,164.9a14.92,14.92,0,0,0-3.88,7.78c-.26,1.78,2.45,2.59,2.76.76a13.49,13.49,0,0,1,2.94-6.71C133.45,165.48,131.71,163.67,130.57,164.9Z" transform="translate(9.16 27.55)"/><path class="cls-14" d="M150.49,292.78a47.44,47.44,0,0,0,2.67-8.71c1.71-6.68,4.43-13.58,10.06-17.57a7.32,7.32,0,0,1,4.43-1.61c2.59.11,4.55,2.32,6.08,4.42,2.1,2.9,4.14,6.05,6.5,8.77-1.2-2.92-1.77-5-1.54-5.89a8.89,8.89,0,0,1,1.81-2.52,66.57,66.57,0,0,0-9.11-9.34c-1.19-1-2.49-1.95-3.83-2.87a59.72,59.72,0,0,0-17.07,14.87,8.46,8.46,0,0,1,1.8,2.52c.72,2.62-5.94,16.48-14.92,30.35C142.85,302.13,147.85,298.35,150.49,292.78Z" transform="translate(9.16 27.55)"/><path class="cls-16" d="M218.85,414.87c-34.86,11.78-81.85,7-101.2,4.25,4.07,3,9,4.78,14.18,6a13.06,13.06,0,0,1,1.41-1.17,1.44,1.44,0,0,1,2.09,1.61l-.12.26c1.16.22,2.33.42,3.48.61a355.29,355.29,0,0,0,45.71,4.47c6.66.21,13.68.34,19.39,3.78,8.58,5.17,11.5,16,13.69,25.77q1.35,6,2.69,12h6.66C224.89,458.69,221.41,433.87,218.85,414.87Zm-.53,22.7c-3,.93-7.11-1.79-9.45-3.51a22,22,0,0,1-6.76-8.14.93.93,0,0,1,1.6-.93,23.2,23.2,0,0,0,7.43,7c2.43,1.41,5.69,1.57,7.77,3.35A1.35,1.35,0,0,1,218.32,437.57Z" transform="translate(9.16 27.55)"/><path class="cls-16" d="M166.22,441.24a3.19,3.19,0,0,0-2.1,1.53c-5.81,8.58-7.17,19.37-8.06,29.67H162C162.49,461.86,163.69,444.92,166.22,441.24Z" transform="translate(9.16 27.55)"/><path class="cls-7" d="M152.74,348.7a24.4,24.4,0,0,0-3.32-1.11.87.87,0,0,0-.84,1.44,6,6,0,0,0,3.9,1.6C153.68,350.66,153.7,349.09,152.74,348.7Z" transform="translate(9.16 27.55)"/><path class="cls-7" d="M159.55,350.14a15.63,15.63,0,0,0-3.28-.27c-1.17-.05-1.46,1.86-.28,2.08a15.05,15.05,0,0,0,3.24.5A1.18,1.18,0,0,0,159.55,350.14Z" transform="translate(9.16 27.55)"/><path class="cls-7" d="M168.47,350.75a11.43,11.43,0,0,0-3.2,0,.88.88,0,0,0,0,1.76,11.43,11.43,0,0,0,3.2,0A.92.92,0,0,0,168.47,350.75Z" transform="translate(9.16 27.55)"/><path class="cls-7" d="M176.28,349.65A9.52,9.52,0,0,0,173,350c-1.22.21-.93,2.2.29,2.15a9.21,9.21,0,0,0,3-.28,1.2,1.2,0,0,0,.84-1.1A1.16,1.16,0,0,0,176.28,349.65Z" transform="translate(9.16 27.55)"/><path class="cls-7" d="M184.34,347.28c-.58-.23-1.15,0-1.69-.12a1.32,1.32,0,0,0-1.59.9,1.3,1.3,0,0,0,.9,1.58c1.2.17,2.54.08,3-1.21A1,1,0,0,0,184.34,347.28Z" transform="translate(9.16 27.55)"/><path class="cls-7" d="M136.66,385.41a32.87,32.87,0,0,1-4.66-1.3c-.62-.23-1.12.68-.64,1.11a10.49,10.49,0,0,0,4.66,2.53C137.54,388.11,138.18,385.74,136.66,385.41Z" transform="translate(9.16 27.55)"/><path class="cls-7" d="M147,388a26,26,0,0,1-4-.81.77.77,0,0,0-.74,1.28,6,6,0,0,0,4.43,1.85C147.92,390.35,148.32,388.24,147,388Z" transform="translate(9.16 27.55)"/><path class="cls-7" d="M160.43,390.06a9.82,9.82,0,0,0-2.1-.18,9.76,9.76,0,0,1-2.08-.45c-1.16-.38-2,1.49-.84,2,1.4.63,3.49,1.46,5,.89A1.18,1.18,0,0,0,160.43,390.06Z" transform="translate(9.16 27.55)"/><path class="cls-7" d="M175.25,389.09a11.48,11.48,0,0,0-4.16.4c-1.33.34-.76,2.31.56,2a19.76,19.76,0,0,1,3.6-.25A1.1,1.1,0,0,0,175.25,389.09Z" transform="translate(9.16 27.55)"/><path class="cls-7" d="M187.22,387.39a12.26,12.26,0,0,0-1.48.21,7.62,7.62,0,0,1-1.51,0,1.32,1.32,0,0,0-1.31,1.31,1.36,1.36,0,0,0,1.31,1.31,6,6,0,0,0,3.64-.44A1.29,1.29,0,0,0,187.22,387.39Z" transform="translate(9.16 27.55)"/><path class="cls-7" d="M198.11,385.64c-.79-.74-2-.17-2.9.05-1.29.31-.75,2.31.55,2,.93-.23,2.17-.27,2.55-1.3A.74.74,0,0,0,198.11,385.64Z" transform="translate(9.16 27.55)"/><path class="cls-7" d="M203.29,383.06a5.18,5.18,0,0,1-.73-.4,1.29,1.29,0,1,0,0,2.23,6.51,6.51,0,0,1,.73-.41A.83.83,0,0,0,203.29,383.06Z" transform="translate(9.16 27.55)"/><path class="cls-14" d="M159.07,310.52c-3.09.54-5.48,3.08-8.23,4.53-4.25,2.22-9.08,3.07-13.59,1a.72.72,0,0,0-.73,1.25,14.66,14.66,0,0,0,11.94,1.7c4-1.05,9.58-3.51,11.4-7.44A.71.71,0,0,0,159.07,310.52Z" transform="translate(9.16 27.55)"/><path class="cls-14" d="M194.48,315.06c-2.64-1.11-5.73-.21-8.56-.47a13.74,13.74,0,0,1-8.83-3.88c-.87-.9-2.55.31-1.78,1.37a13.79,13.79,0,0,0,7.75,5.36c3.46.92,8.55,1.54,11.67-.45A1.07,1.07,0,0,0,194.48,315.06Z" transform="translate(9.16 27.55)"/><path class="cls-9" d="M361,440.16c1.81,1.3,3.63,2.16,4.83,1.56,3.23-1.62,12.13-8.09,12.13-14.16,0-3.6-.28-7.41-.52-9.91A83.46,83.46,0,0,1,359,420.16C359.62,426.12,360.32,433.07,361,440.16Zm6.74-8.63c.25-.54.63-1,.91-1.55s.53-1.05.78-1.59a1.22,1.22,0,0,1,2.26.62,7.37,7.37,0,0,1-1.58,4.35,1.5,1.5,0,0,1-2,.12A1.53,1.53,0,0,1,367.71,431.53Z" transform="translate(9.16 27.55)"/><path class="cls-8" d="M381.81,414.69C364.69,352.5,375.9,287.78,373,279.81s-5.75-15.94-17.93-22.8l-17.8-9.42-.19-.1c.08,3.55-.67,6.94-1.71,8.44-1.67,2.41-5.93,3-8,4.26s-3,5.68-7,8.1a6.12,6.12,0,0,1,1.69,1.62c1.77,3.1-11.12,48.86-33,65.91a37.17,37.17,0,0,1-20.34,7.89C267,361.65,263,400.8,261,408.43c0,0,.94.23,2.63.61,12.4,2.77,65.84,13.71,94.53,3.47.25,2.27.53,4.85.82,7.65a83.46,83.46,0,0,0,18.42-2.51C380.28,416.81,382.12,415.8,381.81,414.69Zm-45-52.78a1.1,1.1,0,0,1,2.19,0,14.87,14.87,0,0,0,4.14,9.58c1.78,1.9,5.42,2.85,6.47,5.24a1,1,0,0,1-.34,1.29c-3.19,1.87-7.24-2.25-9.05-4.54A16.41,16.41,0,0,1,336.83,361.91Zm-53.08,7.94c1.79-2.16,5.4-2.92,7.77-4.43a15.23,15.23,0,0,0,6.74-8,1.23,1.23,0,0,1,2.38.65,16.68,16.68,0,0,1-6,8.87c-2.52,2-6.78,5-10.11,4.78A1.13,1.13,0,0,1,283.75,369.85ZM356.36,411c-3.14-9.52-3.14-20.39-4.16-30.3-1.1-10.67-2.67-21.41-3.21-32.12-.51-9.9,0-20.08,3.36-29.5,1.68-4.72,5.6-9.24,4-14.4a91.76,91.76,0,0,0-6.4-15.33.5.5,0,0,1,.86-.51A71.23,71.23,0,0,1,357.2,302c1.26,3.47,2.24,6.12.66,9.56-2.36,5.16-4.62,10-5.78,15.6a77.09,77.09,0,0,0-1.42,16.47c.1,11,1.48,21.91,2.64,32.84q.88,8.31,1.77,16.62c.62,5.9.81,11.89,2.81,17.53C358.22,411.56,356.68,412,356.36,411Zm21.08,2.69c-4.64,1.71-12.41,3.14-17,.75a.87.87,0,0,1,.2-1.57c2.47-.87,5.29-.59,7.88-.95s5.26-1.13,7.91-1.74A1.82,1.82,0,0,1,377.44,413.72Z" transform="translate(9.16 27.55)"/><path class="cls-7" d="M358.17,412.71c-28.69,10.23-82.13-.71-94.53-3.48-.88,9.18-4.34,45.45-5.79,63.22h52.21c3.13-8.27,6.27-17.95,7.16-19.55,1-1.78,2.5,10,4,19.55h42c-.24-8.4-1.18-20.41-2.26-32.1-.65-7.08-1.35-14-2-20C358.7,417.55,358.42,415,358.17,412.71Zm-80.26,14.57c-2.24,1.82-6.9,5-9.83,3.69a1,1,0,0,1-.37-1.41c.81-1.19,1.58-1.29,2.92-1.77a26.73,26.73,0,0,0,4.3-2,9.91,9.91,0,0,0,5.29-6.83.83.83,0,0,1,1.58,0C282.72,422.24,280.32,425.32,277.91,427.28Zm39.57,15.92a1.19,1.19,0,0,1-2.37,0c-.15-1.8-.19-3.63-.16-5.48-4.14-4.61-5-12.72-6-18.38-.11-.71.93-1,1.1-.3a83.66,83.66,0,0,0,2.59,9.42,29.81,29.81,0,0,0,2.51,5.06c.32-4.35.95-8.72,1.5-12.9.14-1,1.75-1.1,1.68,0C317.89,428.1,318.28,435.77,317.48,443.2Zm26.32-22.09a.86.86,0,0,1,1.66-.46,16,16,0,0,0,6.7,8.55c1.29.79,6.22,1.88,4.16,4.21a1.53,1.53,0,0,1-1.52.4A16.21,16.21,0,0,1,343.8,421.11Z" transform="translate(9.16 27.55)"/><path class="cls-16" d="M286.4,166.34c-.58-2.86-.78-6.18.4-8.84,2.65-6,10.29-11.29,18.59-8a22.62,22.62,0,0,1,6.17,3.51,50.09,50.09,0,0,1,5.46-.3l.85,0c-.25-3.71-3-22-32.95-13.08-33.21,10-20.48,46.6-23.8,56.9s-16.27,14.27-16.27,14.27,16.86,17.55,30.16,7.59c-.11-.92-.2-1.86-.28-2.83C274.73,215.61,271.59,184.82,286.4,166.34Z" transform="translate(9.16 27.55)"/><path class="cls-18" d="M286.8,157.5c-1.18,2.66-1,6-.4,8.84,5.52-6.9,13.55-12.07,25.16-13.3a22.62,22.62,0,0,0-6.17-3.51C297.09,146.21,289.45,151.53,286.8,157.5Z" transform="translate(9.16 27.55)"/><path class="cls-11" d="M304.47,242.6a.88.88,0,0,1,0-.15.18.18,0,0,0-.07,0l-.6-.52c-.19-.16-.38-.32-.56-.49l-.61-.56-.5-.5-.61-.62-.44-.48-.62-.7-.35-.42c-.22-.27-.44-.53-.65-.81l-.07-.09c-.56-.72-1.09-1.46-1.6-2.23-1.08,3.47-2.8,8.16-4.73,10.74a28.53,28.53,0,0,0,11.49,7C304.26,248.69,304.08,244.59,304.47,242.6Z" transform="translate(9.16 27.55)"/><path class="cls-8" d="M302.07,262.6c.33-.84,1.67-1,3.51-.68-.24-1.92-.68-5.53-1-9.2a28.53,28.53,0,0,1-11.49-7l-1.63.63c-4.29,1.7-16.07,6.59-23.39,11.77-7.68,5.43-16.78,47.77-19.13,64a25.85,25.85,0,0,1,1.64-2.72C265,298.63,291.89,288.94,302.07,262.6Zm2.65-7.43a.75.75,0,0,1-.27,1c-1.89,1.34-5.25-.58-7-1.59a14.76,14.76,0,0,1-5.85-5.85c-.49-1,.75-2,1.53-1.19a22.72,22.72,0,0,0,5.92,5C300.81,253.48,303.51,253.53,304.72,255.17Z" transform="translate(9.16 27.55)"/><path class="cls-9" d="M347.54,229a40,40,0,0,1-1.79,3.66A40,40,0,0,0,347.54,229Z" transform="translate(9.16 27.55)"/><path class="cls-9" d="M345.56,233c-.17.31-.35.6-.52.9C345.21,233.56,345.39,233.27,345.56,233Z" transform="translate(9.16 27.55)"/><path class="cls-9" d="M344.74,234.34l-.51.81Z" transform="translate(9.16 27.55)"/><path class="cls-9" d="M348.08,227.67l-.48,1.16Z" transform="translate(9.16 27.55)"/><path class="cls-9" d="M343.88,235.68l-.53.75Z" transform="translate(9.16 27.55)"/><path class="cls-9" d="M348.64,226.19c-.14.38-.28.76-.43,1.14C348.36,227,348.5,226.57,348.64,226.19Z" transform="translate(9.16 27.55)"/><path class="cls-9" d="M349.65,223.06c-.13.42-.25.84-.38,1.26C349.4,223.9,349.52,223.48,349.65,223.06Z" transform="translate(9.16 27.55)"/><path class="cls-9" d="M349.16,224.65l-.39,1.17Z" transform="translate(9.16 27.55)"/><path class="cls-9" d="M337.07,243l-.48.36a13.73,13.73,0,0,0-.65-2.06c-2-5-6.85-8.15-11.29-8.15s-18.92,4.71-20.13,9.29a.88.88,0,0,0,0,.15c-.39,2-.21,6.09.13,10.12.3,3.67.74,7.28,1,9.2,4.36.71,11.53,3.93,14.89,6.37,4-2.42,4.93-6.81,7-8.1s6.29-1.85,8-4.26c1-1.5,1.79-4.89,1.71-8.44a19.42,19.42,0,0,0-.51-4.11Zm-3.2,6.4a8,8,0,0,1-2.76,4.48,1.61,1.61,0,0,1-2.27-2.27c1.17-1,2.25-2.12,3.36-3.18A1,1,0,0,1,333.87,249.41Z" transform="translate(9.16 27.55)"/><path class="cls-9" d="M351,216.86c.15-.94.28-1.88.39-2.83-8.7-6.72-23.63-19.41-26.88-29.63,0,0-15,20.87-34.17,28.52a52.71,52.71,0,0,0,3.72,15,51.93,51.93,0,0,1-3.38-12.29C314.14,221.15,325.65,223.14,351,216.86Zm-11.58-1.76c-2,2.61-5.91,2.4-8.25.47a.93.93,0,0,1,.9-1.55,5.32,5.32,0,0,0,2.82.27,10.38,10.38,0,0,0,2.56-1.16C338.62,212.59,340.41,213.83,339.45,215.1Zm-9.58-10.29a5.77,5.77,0,0,1,7.05,1.14,1.36,1.36,0,0,1-1.64,2.12,7.32,7.32,0,0,0-4.79-1C329.25,207.24,328.89,205.36,329.87,204.81Zm-21.1-.47c2.3-1.46,7.06-2.61,9.37-.77a1.2,1.2,0,0,1-.24,1.88c-1.2.61-2.45.4-3.76.47-1.51.08-2.93.47-4.42.68A1.24,1.24,0,0,1,308.77,204.34Zm-2,7.8a8.71,8.71,0,0,0,4.87,1.74c1.47,0,3-1,4.41-.58a.9.9,0,0,1,.61,1.08c-.58,2-3.7,2.23-5.45,2a7.82,7.82,0,0,1-5.57-3.13C305.2,212.6,306.13,211.7,306.8,212.14Z" transform="translate(9.16 27.55)"/><path class="cls-9" d="M343,237c-.17.24-.35.48-.53.71C342.61,237.44,342.79,237.2,343,237Z" transform="translate(9.16 27.55)"/><path class="cls-9" d="M338.26,242.05l-.55.45Z" transform="translate(9.16 27.55)"/><path class="cls-9" d="M351,216.86a52.16,52.16,0,0,1-1.34,6A52.16,52.16,0,0,0,351,216.86Z" transform="translate(9.16 27.55)"/><path class="cls-9" d="M339.4,241l-.53.48Z" transform="translate(9.16 27.55)"/><path class="cls-9" d="M342,238.2l-.54.66Z" transform="translate(9.16 27.55)"/><path class="cls-9" d="M340.93,239.44c-.3.33-.61.65-.92,1C340.32,240.09,340.63,239.77,340.93,239.44Z" transform="translate(9.16 27.55)"/><path class="cls-9" d="M296.12,232.12l-.58-1.1Z" transform="translate(9.16 27.55)"/><path class="cls-9" d="M295.38,230.7c-.19-.38-.38-.76-.56-1.15C295,229.94,295.19,230.32,295.38,230.7Z" transform="translate(9.16 27.55)"/><path class="cls-9" d="M296.91,233.51c-.21-.36-.42-.72-.62-1.09C296.49,232.79,296.7,233.15,296.91,233.51Z" transform="translate(9.16 27.55)"/><path class="cls-9" d="M294.7,229.28c-.19-.41-.37-.82-.54-1.24C294.33,228.46,294.51,228.87,294.7,229.28Z" transform="translate(9.16 27.55)"/><path class="cls-9" d="M301.13,239.23l-.62-.7Z" transform="translate(9.16 27.55)"/><path class="cls-9" d="M300.16,238.11c-.22-.27-.44-.53-.65-.81C299.72,237.58,299.94,237.84,300.16,238.11Z" transform="translate(9.16 27.55)"/><path class="cls-9" d="M303.29,241.39l-.61-.56Z" transform="translate(9.16 27.55)"/><path class="cls-9" d="M304.45,242.4l-.6-.52Z" transform="translate(9.16 27.55)"/><path class="cls-9" d="M302.18,240.33l-.61-.62Z" transform="translate(9.16 27.55)"/><path class="cls-9" d="M297.05,233.72c.26.43.52.85.79,1.26.51.77,1,1.51,1.6,2.23A35.78,35.78,0,0,1,297.05,233.72Z" transform="translate(9.16 27.55)"/><path class="cls-10" d="M299.44,237.21l.07.09c.21.28.43.54.65.81l.35.42.62.7.44.48.61.62.5.5.61.56c.18.17.37.33.56.49l.6.52a.18.18,0,0,1,.07,0c1.21-4.58,15.74-9.29,20.13-9.29s9.26,3.15,11.29,8.15a13.73,13.73,0,0,1,.65,2.06l.48-.36.64-.51.55-.45.61-.55.53-.48c.21-.2.41-.41.61-.62s.62-.63.92-1,.35-.38.52-.58l.54-.66.44-.53c.18-.23.36-.47.53-.71l.39-.53.53-.75.35-.53.51-.81.3-.48c.17-.3.35-.59.52-.9l.19-.35a40,40,0,0,0,1.79-3.66l.06-.12.48-1.16c0-.12.09-.23.13-.34.15-.38.29-.76.43-1.14,0-.13.08-.25.13-.37l.39-1.17.11-.33c.13-.42.25-.84.38-1.26,0-.05,0-.11,0-.17a52.16,52.16,0,0,0,1.34-6h0c-25.38,6.28-36.89,4.29-60.32-1.27a51.93,51.93,0,0,0,3.38,12.29,1.11,1.11,0,0,0,.07.16c.17.42.35.83.54,1.24l.12.27c.18.39.37.77.56,1.15l.16.32.58,1.1c.05.1.11.2.17.3.2.37.41.73.62,1.09l.14.21A35.78,35.78,0,0,0,299.44,237.21Z" transform="translate(9.16 27.55)"/><path class="cls-12" d="M322.16,269.91a6.12,6.12,0,0,0-1.69-1.62c-3.36-2.44-10.53-5.66-14.89-6.37-1.84-.31-3.18-.16-3.51.68-10.18,26.34-37.08,36-51.47,56.84a25.85,25.85,0,0,0-1.64,2.72c-6.92,13.24,4.92,22.49,19.82,21.55a37.17,37.17,0,0,0,20.34-7.89C311,318.77,323.93,273,322.16,269.91Zm-19.05-4.14c3-.54,6.44.68,9.2,1.85,3,1.26,6.77,2.92,8.54,5.77a1.81,1.81,0,0,1-2,2.62c-2.74-.89-5.05-3.09-7.61-4.46s-5.91-2.26-8.34-4C302.29,267.09,302.21,265.93,303.11,265.77Z" transform="translate(9.16 27.55)"/><path class="cls-11" d="M332.2,248.44c-1.11,1.06-2.19,2.18-3.36,3.18a1.61,1.61,0,0,0,2.27,2.27,8,8,0,0,0,2.76-4.48A1,1,0,0,0,332.2,248.44Z" transform="translate(9.16 27.55)"/><path class="cls-7" d="M355.07,393.08q-.87-8.31-1.77-16.62c-1.16-10.93-2.54-21.84-2.64-32.84a77.09,77.09,0,0,1,1.42-16.47c1.16-5.61,3.42-10.44,5.78-15.6,1.58-3.44.6-6.09-.66-9.56a71.23,71.23,0,0,0-6.36-13.12.5.5,0,0,0-.86.51,91.76,91.76,0,0,1,6.4,15.33c1.57,5.16-2.35,9.68-4,14.4-3.35,9.42-3.87,19.6-3.36,29.5.54,10.71,2.11,21.45,3.21,32.12,1,9.91,1,20.78,4.16,30.3.32,1,1.86.53,1.52-.42C355.88,405,355.69,399,355.07,393.08Z" transform="translate(9.16 27.55)"/><path class="cls-7" d="M302.88,267.52c2.43,1.77,5.67,2.59,8.34,4s4.87,3.57,7.61,4.46a1.81,1.81,0,0,0,2-2.62c-1.77-2.85-5.54-4.51-8.54-5.77-2.76-1.17-6.18-2.39-9.2-1.85C302.21,265.93,302.29,267.09,302.88,267.52Z" transform="translate(9.16 27.55)"/><path class="cls-7" d="M376.47,410.21c-2.65.61-5.21,1.37-7.91,1.74s-5.41.08-7.88.95a.87.87,0,0,0-.2,1.57c4.55,2.39,12.32,1,17-.75A1.82,1.82,0,0,0,376.47,410.21Z" transform="translate(9.16 27.55)"/><path class="cls-8" d="M280.22,419a9.91,9.91,0,0,1-5.29,6.83,26.73,26.73,0,0,1-4.3,2c-1.34.48-2.11.58-2.92,1.77a1,1,0,0,0,.37,1.41c2.93,1.32,7.59-1.87,9.83-3.69,2.41-2,4.81-5,3.89-8.33A.83.83,0,0,0,280.22,419Z" transform="translate(9.16 27.55)"/><path class="cls-8" d="M316.67,420.62c-.55,4.18-1.18,8.55-1.5,12.9a29.81,29.81,0,0,1-2.51-5.06,83.66,83.66,0,0,1-2.59-9.42c-.17-.72-1.21-.41-1.1.3.95,5.66,1.84,13.77,6,18.38,0,1.85,0,3.68.16,5.48a1.19,1.19,0,0,0,2.37,0c.8-7.43.41-15.1.87-22.58C318.42,419.52,316.81,419.58,316.67,420.62Z" transform="translate(9.16 27.55)"/><path class="cls-8" d="M356.32,433.41c2.06-2.33-2.87-3.42-4.16-4.21a16,16,0,0,1-6.7-8.55.86.86,0,0,0-1.66.46,16.21,16.21,0,0,0,11,12.7A1.53,1.53,0,0,0,356.32,433.41Z" transform="translate(9.16 27.55)"/><path class="cls-7" d="M317.87,152.76l-.85,0a50.09,50.09,0,0,0-5.46.3c-11.61,1.23-19.64,6.4-25.16,13.3-14.81,18.48-11.67,49.27-11.67,49.27.08,1,.17,1.91.28,2.83,1.69,14.33,7.78,23,16.47,27.91l1.63-.63c1.93-2.58,3.65-7.27,4.73-10.74-.27-.41-.53-.83-.79-1.26l-.14-.21c-.21-.36-.42-.72-.62-1.09-.06-.1-.12-.2-.17-.3l-.58-1.1-.16-.32c-.19-.38-.38-.76-.56-1.15l-.12-.27c-.19-.41-.37-.82-.54-1.24a1.11,1.11,0,0,1-.07-.16,52.71,52.71,0,0,1-3.72-15c19.13-7.65,34.17-28.52,34.17-28.52,3.25,10.22,18.18,22.91,26.88,29.63-.11.95-.24,1.89-.39,2.83h0a52.16,52.16,0,0,1-1.34,6c0,.06,0,.12,0,.17-.13.42-.25.84-.38,1.26l-.11.33-.39,1.17c0,.12-.09.24-.13.37-.14.38-.28.76-.43,1.14,0,.11-.09.22-.13.34l-.48,1.16-.06.12a40,40,0,0,1-1.79,3.66l-.19.35c-.17.31-.35.6-.52.9l-.3.48-.51.81-.35.53-.53.75L343,237c-.17.24-.35.48-.53.71l-.44.53-.54.66c-.17.2-.35.39-.52.58s-.61.65-.92,1-.4.42-.61.62l-.53.48-.61.55-.55.45-.64.51-.48.37a19.42,19.42,0,0,1,.51,4.11l.19.1c11.33-5.22,19.08-15.13,20.46-28.88C357.75,218.71,365.61,153.54,317.87,152.76Z" transform="translate(9.16 27.55)"/><path class="cls-12" d="M284.54,371.75c3.33.2,7.59-2.81,10.11-4.78a16.68,16.68,0,0,0,6-8.87,1.23,1.23,0,0,0-2.38-.65,15.23,15.23,0,0,1-6.74,8c-2.37,1.51-6,2.27-7.77,4.43A1.13,1.13,0,0,0,284.54,371.75Z" transform="translate(9.16 27.55)"/><path class="cls-12" d="M349.29,378a1,1,0,0,0,.34-1.29c-1.05-2.39-4.69-3.34-6.47-5.24a14.87,14.87,0,0,1-4.14-9.58,1.1,1.1,0,0,0-2.19,0,16.41,16.41,0,0,0,3.41,11.57C342.05,375.77,346.1,379.89,349.29,378Z" transform="translate(9.16 27.55)"/><path class="cls-7" d="M293.14,247.55c-.78-.84-2,.23-1.53,1.19a14.76,14.76,0,0,0,5.85,5.85c1.74,1,5.1,2.93,7,1.59a.75.75,0,0,0,.27-1c-1.21-1.64-3.91-1.69-5.66-2.62A22.72,22.72,0,0,1,293.14,247.55Z" transform="translate(9.16 27.55)"/><path class="cls-7" d="M311.24,216.4c1.75.21,4.87,0,5.45-2a.9.9,0,0,0-.61-1.08c-1.41-.42-2.94.59-4.41.58a8.71,8.71,0,0,1-4.87-1.74c-.67-.44-1.6.46-1.13,1.13A7.82,7.82,0,0,0,311.24,216.4Z" transform="translate(9.16 27.55)"/><path class="cls-7" d="M332.1,214a.93.93,0,0,0-.9,1.55c2.34,1.93,6.28,2.14,8.25-.47,1-1.27-.83-2.51-2-2a10.38,10.38,0,0,1-2.56,1.16A5.32,5.32,0,0,1,332.1,214Z" transform="translate(9.16 27.55)"/><path class="cls-7" d="M309.72,206.6c1.49-.21,2.91-.6,4.42-.68,1.31-.07,2.56.14,3.76-.47a1.2,1.2,0,0,0,.24-1.88c-2.31-1.84-7.07-.69-9.37.77A1.24,1.24,0,0,0,309.72,206.6Z" transform="translate(9.16 27.55)"/><path class="cls-7" d="M330.49,207.08a7.32,7.32,0,0,1,4.79,1,1.36,1.36,0,0,0,1.64-2.12,5.77,5.77,0,0,0-7.05-1.14C328.89,205.36,329.25,207.24,330.49,207.08Z" transform="translate(9.16 27.55)"/><path class="cls-11" d="M370.08,433.36a7.37,7.37,0,0,0,1.58-4.35,1.22,1.22,0,0,0-2.26-.62q-.37.81-.78,1.59c-.28.53-.66,1-.91,1.55a1.53,1.53,0,0,0,.39,2A1.5,1.5,0,0,0,370.08,433.36Z" transform="translate(9.16 27.55)"/><path class="cls-16" d="M351.33,204.26c-11.65-8.92-16.93-23.94-27.4-34.22a60.05,60.05,0,0,1-25.12,21.6c-3.45,1.58-7.14,2.88-9.91,5.47-4.39,4.1-5.58,10.56-5.74,16.56-.28,11,2.18,22.17,8.11,31.42.23.36.47.71.72,1.06l1.12-.43c1.93-2.58,3.65-7.27,4.73-10.74-.27-.41-.53-.83-.79-1.26l-.14-.21c-.21-.36-.42-.72-.62-1.09-.06-.1-.12-.2-.17-.3l-.58-1.1-.16-.32c-.19-.38-.38-.76-.56-1.15l-.12-.27c-.19-.41-.37-.82-.54-1.24a1.11,1.11,0,0,1-.07-.16,52.71,52.71,0,0,1-3.72-15c19.13-7.65,34.17-28.52,34.17-28.52,3.25,10.22,18.18,22.91,26.88,29.63-.11.95-.24,1.89-.39,2.83h0a52.16,52.16,0,0,1-1.34,6c0,.06,0,.12,0,.17-.13.42-.25.84-.38,1.26l-.11.33-.39,1.17c0,.12-.09.24-.13.37-.14.38-.28.76-.43,1.14,0,.11-.09.22-.13.34l-.48,1.16-.06.12a40,40,0,0,1-1.79,3.66l-.19.35c-.17.31-.35.6-.52.9l-.3.48-.51.81-.35.53-.53.75L343,237c-.17.24-.35.48-.53.71l-.44.53-.54.66c-.17.2-.35.39-.52.58s-.61.65-.92,1-.4.42-.61.62l-.53.48-.61.55-.55.45-.64.51-.48.37a19.42,19.42,0,0,1,.51,4.11l.19.1a37.61,37.61,0,0,0,7.46-4.54c6.28-9.47,8.48-21.49,9.53-33a6.61,6.61,0,0,0-.15-2.77A7.4,7.4,0,0,0,351.33,204.26Z" transform="translate(9.16 27.55)"/><path class="cls-17" d="M313.78,156.44c-6.1-1.21-12.7,1.37-17.78,4.65-4.31,2.79-11,8.07-10.87,13.66a1.48,1.48,0,0,0,2.21,1.27c2-1.14,2.92-2.87,4.34-4.6a32.85,32.85,0,0,1,6.73-6.22c4.76-3.3,10-4.37,15.37-6.28C314.88,158.53,315.13,156.71,313.78,156.44Z" transform="translate(9.16 27.55)"/><path class="cls-17" d="M313.77,162.59a19.74,19.74,0,0,0-9.8,3.21c-1.88,1.28,0,4.36,1.77,3a17.19,17.19,0,0,1,8-3.48C315.49,165.14,315.59,162.46,313.77,162.59Z" transform="translate(9.16 27.55)"/><path class="cls-17" d="M345.21,167.23a29.83,29.83,0,0,0-15.32-8.85c-1.16-.25-2.07,1.49-.86,2a40.1,40.1,0,0,1,12.29,8.1,28.44,28.44,0,0,1,4.6,6c1.11,2,1.2,4.18,2.68,5.91a1,1,0,0,0,1.43,0C353.43,176.49,348,170.14,345.21,167.23Z" transform="translate(9.16 27.55)"/><path class="cls-17" d="M343.45,177.64A30.62,30.62,0,0,0,340.2,172a1.11,1.11,0,0,0-1.92,1.13c1,1.82,1.68,3.79,2.68,5.58a1.38,1.38,0,0,0,1.54.63l.32-.14A1.36,1.36,0,0,0,343.45,177.64Z" transform="translate(9.16 27.55)"/><path class="cls-11" d="M290.73,215.72c0-.05,0-.09,0-.13h0A.69.69,0,0,0,290.73,215.72Z" transform="translate(9.16 27.55)"/><path class="cls-11" d="M291.09,217.73c-.12-.67-.26-1.34-.36-2,.1.67.22,1.35.35,2Z" transform="translate(9.16 27.55)"/><path class="cls-11" d="M324.54,184.4s-15,20.87-34.17,28.52c.09.89.21,1.78.34,2.67l4.3,1a45.26,45.26,0,0,0,16.66-10l.39-.38c-.78.14-1.55.3-2.34.41a1.24,1.24,0,0,1-1-2.26,12.15,12.15,0,0,1,6.7-1.69,54.8,54.8,0,0,1,5.57-5.42,2.22,2.22,0,0,1,1.56-.66,2.43,2.43,0,0,1,1.42,1.12,34,34,0,0,0,6.94,6.67,5.7,5.7,0,0,1,6,1.59,1.43,1.43,0,0,1-.39,2.17l2.41,1.49c3.81,2.34,8.08,4.75,12.39,5.09,0-.23.06-.44.09-.67C342.72,207.31,327.79,194.62,324.54,184.4Z" transform="translate(9.16 27.55)"/><path class="cls-15" d="M309.74,237.77A41.2,41.2,0,0,1,303,232c-3.79-4.11-6.5-9.54-6.45-15.06l-5.83-1.36a51.93,51.93,0,0,0,3.38,12.29,1.11,1.11,0,0,0,.07.16c.17.42.35.83.54,1.24l.12.27c.18.39.37.77.56,1.15l.16.32.58,1.1c.05.1.11.2.17.3.2.37.41.73.62,1.09l.14.21a35.78,35.78,0,0,0,2.39,3.49l.07.09c.21.28.43.54.65.81l.35.42.62.7.44.48.61.62.5.5.61.56c.18.17.37.33.56.49l.6.52a.18.18,0,0,1,.07,0C305,240.84,307,239.21,309.74,237.77Z" transform="translate(9.16 27.55)"/><path class="cls-13" d="M285.72,321.2c-4,3.53-8.46,6.71-13.6,8.07s-11.07.65-15-2.9a11.59,11.59,0,0,1-3.55-10.83q-1.54,1.89-2.94,3.9a25.85,25.85,0,0,0-1.64,2.72c-6.92,13.24,4.92,22.49,19.82,21.55a37.17,37.17,0,0,0,20.34-7.89c16.95-13.18,28.51-43.55,32.05-58.07C308.89,291.88,299.74,308.8,285.72,321.2Z" transform="translate(9.16 27.55)"/><path class="cls-14" d="M291.69,279.75a30.28,30.28,0,0,0-2.58-7.52,2.43,2.43,0,0,0-.81-1.05c-1.08-.66-2.34.5-3.07,1.53a117.61,117.61,0,0,1-9.66,12c-5.46,5.81-11.78,10.76-17.23,16.59a50.74,50.74,0,0,0-7.57,10.23c-.78,4.11-1.4,7.76-1.81,10.61a25.85,25.85,0,0,1,1.64-2.72C261.38,303.86,279.16,294.51,291.69,279.75Z" transform="translate(9.16 27.55)"/><path class="cls-14" d="M294.23,407.58c-3.91-2.32-7.74-5.14-9.84-9.17s-2.21-8.54-2.13-13A88.12,88.12,0,0,1,283.53,371a1.16,1.16,0,0,1,.22-1.18h0a49.3,49.3,0,0,1,2.82-9.29c2.58-6.08,6.53-11.46,10.05-17.05a134.54,134.54,0,0,0,9-16.88c1.82-.1,4.17-2.19,5.17-3.05a24,24,0,0,0,5.33-6.66,1.27,1.27,0,0,0-2.19-1.28,22.22,22.22,0,0,1-6.27,6.14,135.67,135.67,0,0,0,7.4-25.51c-5.73,14.29-14.64,30.76-26,39.56a37.17,37.17,0,0,1-20.34,7.89C267,361.65,263,400.8,261,408.43c0,0,.94.23,2.63.61,7.51,1.68,30.11,6.36,53.14,7.51A77.65,77.65,0,0,1,294.23,407.58Z" transform="translate(9.16 27.55)"/><path class="cls-14" d="M359,420.16c.59,0,1.22,0,1.87-.07a5.79,5.79,0,0,0,.42-1.58c.13-1.2.2-2.39.23-3.59a8,8,0,0,1-1-.45.87.87,0,0,1,.2-1.57c.27-.09.55-.17.82-.24-.17-5.91-1.42-11.82-2.4-17.69a196.8,196.8,0,0,1,4.28-84.15,8.39,8.39,0,0,0,.42-2.32,7.57,7.57,0,0,0-.46-2.2c-.5-1.48-6.24-14.17-8.73-10.66a.23.23,0,0,0,0,.1A67.56,67.56,0,0,1,357.2,302c1.26,3.47,2.24,6.12.66,9.56-2.36,5.16-4.62,10-5.78,15.6a77.09,77.09,0,0,0-1.42,16.47c.1,11,1.48,21.91,2.64,32.84q.88,8.31,1.77,16.62c.62,5.9.81,11.89,2.81,17.53.31.87-.94,1.29-1.4.62.09.59.18,1.18.25,1.77.49-.15,1-.32,1.44-.49C358.42,414.78,358.7,417.36,359,420.16Z" transform="translate(9.16 27.55)"/><path class="cls-14" d="M352.09,379.79c.21,2.71.44,5.41.72,8.11-.19-2.42-.37-4.82-.61-7.17C352.16,380.42,352.13,380.1,352.09,379.79Z" transform="translate(9.16 27.55)"/><path class="cls-14" d="M346.14,320.41c-2.56-.06-4.82.59-7.36-.22a14.18,14.18,0,0,1-6.46-4.2c-.87-1-2.85.07-2.32,1.35,2.48,6,11,11.34,17.31,7.4A2.34,2.34,0,0,0,346.14,320.41Z" transform="translate(9.16 27.55)"/><path class="cls-16" d="M331.38,424.73A79.2,79.2,0,0,0,343.81,421a.85.85,0,0,1,1.41-.57,78.28,78.28,0,0,0,13-6.83c0-.31-.06-.63-.1-.93-28.69,10.23-82.13-.71-94.53-3.48-.88,9.18-4.34,45.45-5.79,63.22h7c1.08-3.87,1.94-7.84,2.83-11.7,2.55-11.08,6.72-23.12,16.75-28.5a35.08,35.08,0,0,1,10.74-3.3c5-.87,10.08-1.31,15.15-1.72-.59-2.7-1-5.4-1.35-7.7-.11-.7.93-1,1.1-.3.61,2.63,1.25,5.27,2.07,7.85l3.75-.31c.25-2,.52-4,.78-5.95.14-1,1.75-1.11,1.68,0-.12,1.91-.18,3.83-.22,5.76A122.74,122.74,0,0,0,331.38,424.73Zm-53.47,2.55c-2.24,1.82-6.9,5-9.83,3.69a1,1,0,0,1-.37-1.41c.81-1.19,1.58-1.29,2.92-1.77a26.73,26.73,0,0,0,4.3-2,9.91,9.91,0,0,0,5.29-6.83.83.83,0,0,1,1.58,0C282.72,422.24,280.32,425.32,277.91,427.28Z" transform="translate(9.16 27.55)"/><path class="cls-16" d="M327.46,472.45a80.41,80.41,0,0,0-5.69-19.27,5.79,5.79,0,0,0-2.41-2.84.82.82,0,0,0-.37-.1,1,1,0,0,0-.62.32,6.2,6.2,0,0,0-2.08,4.59,23.13,23.13,0,0,1,.93-2.25c1-1.78,2.5,10,4,19.55Z" transform="translate(9.16 27.55)"/><path class="cls-7" d="M284.53,145.88c-7.86-1-14.41,8.75-16.8,15.1a30.9,30.9,0,0,0-1.66,13.88,74.39,74.39,0,0,1,.77,8.69c-.08,2.91-1.07,5.62-1.49,8.48-.09.62.51,1.28,1.15.88,6.37-4,3.49-13.77,3.11-19.84-.55-8.88,4.2-24,14.92-25A1.1,1.1,0,0,0,284.53,145.88Z" transform="translate(9.16 27.55)"/><path class="cls-7" d="M262.73,199.53a13.71,13.71,0,0,1-1.62,2.7c-.27.36-.62.66-.9,1a4.32,4.32,0,0,0-.74,1.58,1.23,1.23,0,0,0,1.17,1.54,3.29,3.29,0,0,0,1.86-.51,6.54,6.54,0,0,0,1.53-1.74,7.92,7.92,0,0,0,1.28-3.89A1.39,1.39,0,0,0,262.73,199.53Z" transform="translate(9.16 27.55)"/><path class="cls-7" d="M265.12,207c-1.43.63-2.26,2.27-3.57,3.14a25.7,25.7,0,0,1-4.39,1.86,1.36,1.36,0,0,0,.32,2.46,8.51,8.51,0,0,0,6-1.46c1.61-1,3.78-2.71,3.65-4.83A1.38,1.38,0,0,0,265.12,207Z" transform="translate(9.16 27.55)"/><path class="cls-19" d="M430.2,404.45c4-.8,8.39-1.93,10.37-5.46,4.15-7.39-6.39-15.12-6.54-23.61a14.5,14.5,0,0,1,2-7c7.83-14.65,28.49-20.46,32.87-36.49a21.69,21.69,0,0,0-6.16-21.25c-1.82-1.66-4-3.06-5.26-5.17-3.26-5.38.51-12.09,3.76-17.47,5.74-9.52,10.14-20.06,11.12-31.13s-1.76-22.73-8.93-31.23-19.06-13.24-29.83-10.48S414.33,228.93,415.82,240c1.36,10.07,9.91,18,11.61,28,2.2,13-7.47,24.73-16.66,34.19-2.74,2.83-5.63,5.87-6.37,9.74-1,5.06,2,9.94,4.42,14.48,5.94,11,9.27,25.39,1.77,35.37-4.81,6.42-13.9,11.16-13.27,19.15.33,4.09,3.33,7.5,4.23,11.5,1.54,6.84-4.8,10.64-8.6,15.18,3.86,2.54,12.49,3.05,17,2.31C416.85,408.73,423.34,405.84,430.2,404.45Z" transform="translate(9.16 27.55)"/><path class="cls-19" d="M391.49,257.22c-2-3.74-3.44-8-3-12.17.6-5.26,4.05-9.73,7.78-13.49a73.22,73.22,0,0,1,17.94-13.27c3.9-2,8-3.77,11.47-6.53s6.17-6.84,6-11.24c-.32-7.59-8.5-12.1-15.73-14.41-4.35-1.38-9.39-2.45-13.25,0-7.72,4.89-3.22,17.59-8,25.37-4.4,7.11-15.18,7.92-19.78,14.9-2.87,4.35-2.58,10-2.1,15.17.73,7.81,1.72,15.79,5.2,22.82,3.37,6.8,12,15.93,20.64,14C411.77,275.54,394.59,263,391.49,257.22Z" transform="translate(9.16 27.55)"/><path class="cls-19" d="M238.69,255c1.32-1,2.88-2,3.45-3.58.74-2.08-.56-4.33-2.13-5.89-5.46-5.43-14.3-6.66-19.18-12.62-5.33-6.52-3.1-17.74,4.36-21.66s18,.64,20.2,8.77c1,3.67.45,7.55.54,11.35s1,7.94,4.08,10.2c2.63,1.95,6.23,2.08,9,3.86a6.76,6.76,0,0,1,3.22,5.25c.21,6.1-7.52,7.69-10,12.22-2.89,5.24,3.33,10.81-1,14.35C240.75,285.7,226.68,264.49,238.69,255Z" transform="translate(9.16 27.55)"/><path class="cls-19" d="M42.84,431.17C37,425.86,33.28,417.65,35.08,410c1.65-7.07,7.46-12.39,13.5-16.44s12.7-7.36,17.66-12.67c3.6-3.85,6.18-9.79,3.46-14.3-1.42-2.36-4-3.76-6.4-5.06l-25-13.31c-9.78-5.2-19.82-10.61-26.93-19.11S.7,308.12,5.6,298.19C8.53,292.25,14,288,19.24,284c14-10.73,29-21.85,46.58-23.83,4.76-.54,9.83-.31,14,2.11s7,7.49,5.63,12.08c-1.28,4.29-5.56,6.82-9.44,9-7.72,4.4-15.44,9.35-20.57,16.61s-7.1,17.38-2.69,25.1c4.15,7.26,12.58,10.65,19.54,15.3,9,6,16.23,15.13,18.15,25.75S88.14,388.73,79,394.39c-3.38,2.09-7.47,3.47-9.59,6.82-2.77,4.36-.91,10.32,2.4,14.29s7.84,6.73,11.45,10.44c8.77,9,5.47,18.82-6.9,17.88C65.05,443,51.31,438.88,42.84,431.17Z" transform="translate(9.16 27.55)"/><path class="cls-19" d="M35.54,236.91c-4.76-6.48-4.91-16.67,1.21-21.88,2.52-2.15,5.76-3.27,8.41-5.24s4.75-5.46,3.48-8.51a11.61,11.61,0,0,0-3.09-3.69c-5-4.77-8.47-12.47-5.29-18.62a16.59,16.59,0,0,1,5-5.47c5.91-4.42,14.9-6.63,20.28-1.6,4,3.75,4.35,10.15,2.62,15.35s-5.12,9.67-7.83,14.44S55.56,212,56.82,217.37C59,226.76,70,230.82,79.38,232.92c15.21,3.38,22.57,18.5,2.47,17.22C67,249.2,45.3,250.24,35.54,236.91Z" transform="translate(9.16 27.55)"/><path class="cls-19" d="M231.31,387.2c-.5-4.81-.93-9.81.63-14.39,2.55-7.49,10.14-22.53,19.92-14.76,8.27,6.55,6.63,14.44-.21,21.24-7.61,7.57-8.79,15.53-5.27,25.62,1.85,5.31,4.25,10.58,4.42,16.2,0,1.15-.18,2.55-1.24,3a2.88,2.88,0,0,1-2.41-.42C234.73,417.1,232.61,399.62,231.31,387.2Z" transform="translate(9.16 27.55)"/><path class="cls-5" d="M30.27,165.38c-3.5,0-3.5,5.43,0,5.43S33.76,165.38,30.27,165.38Z" transform="translate(9.16 27.55)"/><path class="cls-7" d="M89.78,223.43l-.19-.37a3.2,3.2,0,0,0-5.5,0l-.19.37a3.49,3.49,0,0,0,0,3.44,3.41,3.41,0,0,0,5.88,0A3.49,3.49,0,0,0,89.78,223.43Z" transform="translate(9.16 27.55)"/><path class="cls-7" d="M37.18,261.51a2.29,2.29,0,0,0-.68-1.29,1.54,1.54,0,1,0-2.18,2.18,2.64,2.64,0,0,0,1.1.66,1.49,1.49,0,0,0,1.38-.36A1.42,1.42,0,0,0,37.18,261.51Z" transform="translate(9.16 27.55)"/><path class="cls-5" d="M44.41,272.09c-4.32,0-4.33,6.72,0,6.72S48.74,272.09,44.41,272.09Z" transform="translate(9.16 27.55)"/><path class="cls-7" d="M76.55,330.93a1.74,1.74,0,0,0,0,3.47A1.74,1.74,0,0,0,76.55,330.93Z" transform="translate(9.16 27.55)"/><path class="cls-5" d="M31,356.57a4,4,0,0,0-3.83,1,3.44,3.44,0,0,0,.09,5.8,4,4,0,0,0,6.68-2.94A4.13,4.13,0,0,0,31,356.57Z" transform="translate(9.16 27.55)"/><path class="cls-7" d="M20.41,374.09a2.05,2.05,0,0,0-2.25-.92,2,2,0,0,0-.23,3.74,2,2,0,0,0,2.48-.81A1.73,1.73,0,0,0,20.41,374.09Z" transform="translate(9.16 27.55)"/><path class="cls-5" d="M75.27,435.45c-5.06,0-5.07,7.86,0,7.86S80.33,435.45,75.27,435.45Z" transform="translate(9.16 27.55)"/><path class="cls-7" d="M238.77,349.86l-1.05-.21a1.72,1.72,0,1,0,0,3.32l1.05-.21A1.52,1.52,0,0,0,238.77,349.86Z" transform="translate(9.16 27.55)"/><path class="cls-5" d="M259.79,374.64a5.11,5.11,0,0,0-1.08-1.84,4.05,4.05,0,0,0-2.4-1.15,4.16,4.16,0,0,0-4.16,2,6.66,6.66,0,0,0-.53,1.31,4.23,4.23,0,0,0,2.45,5,4.19,4.19,0,0,0,5.27-1.73A4.54,4.54,0,0,0,259.79,374.64Z" transform="translate(9.16 27.55)"/><path class="cls-7" d="M259.36,252.38c-.2-.12-.41-.23-.62-.34a1.81,1.81,0,0,0-2.45,2.46l.33.62a2,2,0,1,0,2.74-2.74Z" transform="translate(9.16 27.55)"/><path class="cls-5" d="M239.35,223.22a3,3,0,0,0-4.17,0l-.12.14a3.21,3.21,0,0,0-.89,2.1,2.53,2.53,0,0,0,2.94,2.95,3.31,3.31,0,0,0,2.11-.89,1.59,1.59,0,0,0,.13-.13A3,3,0,0,0,239.35,223.22Z" transform="translate(9.16 27.55)"/><path class="cls-7" d="M369.05,156.25a1.56,1.56,0,0,0,0,3.12A1.56,1.56,0,0,0,369.05,156.25Z" transform="translate(9.16 27.55)"/><path class="cls-5" d="M392.84,187.06a3.54,3.54,0,1,0,3.53,3.53A3.58,3.58,0,0,0,392.84,187.06Z" transform="translate(9.16 27.55)"/><path class="cls-7" d="M461.51,166.15a2.59,2.59,0,0,0-.83.75,1,1,0,0,0,0,1.1,2.59,2.59,0,0,0,.83.75,1.5,1.5,0,1,0,0-2.6Z" transform="translate(9.16 27.55)"/><path class="cls-7" d="M444.52,230.35a3.7,3.7,0,1,0,3.7,3.7A3.74,3.74,0,0,0,444.52,230.35Z" transform="translate(9.16 27.55)"/><path class="cls-7" d="M431.41,248.27a3.51,3.51,0,0,0-1,.16,2.1,2.1,0,0,0-1.48,1.95,2.15,2.15,0,0,0,1.48,2,3.51,3.51,0,0,0,1,.16,2.11,2.11,0,0,0,0-4.22Z" transform="translate(9.16 27.55)"/><path class="cls-5" d="M402.91,298.07A4.27,4.27,0,0,0,399.7,296a3.93,3.93,0,0,0-3.74,1.48,3.16,3.16,0,0,0-.6,2.84,2.93,2.93,0,0,0,.08.93,3.53,3.53,0,0,0,2.67,2.53,3.6,3.6,0,0,0,4.06-.69A4.19,4.19,0,0,0,402.91,298.07Z" transform="translate(9.16 27.55)"/><path class="cls-7" d="M416,323.64a1.31,1.31,0,0,0,0,2.62A1.31,1.31,0,0,0,416,323.64Z" transform="translate(9.16 27.55)"/><path class="cls-5" d="M461.33,365.16c-.06-.1-.12-.2-.17-.3a2.46,2.46,0,0,0-4.22,0l-.16.3C454.06,370.1,464,370.1,461.33,365.16Z" transform="translate(9.16 27.55)"/><path class="cls-7" d="M441.69,397.36a1.52,1.52,0,0,0,0,3A1.52,1.52,0,0,0,441.69,397.36Z" transform="translate(9.16 27.55)"/><path class="cls-5" d="M412.76,431.53a2.6,2.6,0,0,0-3.09.4l-.16.17-.2.26a2.48,2.48,0,0,0-.63.78,3.1,3.1,0,0,0-.21.55,2.67,2.67,0,0,0-.21,1.91,2.61,2.61,0,0,0,1.87,1.86,5.77,5.77,0,0,0,.93.12l-.74-.1a4.52,4.52,0,0,0,1.32.08,3.14,3.14,0,0,0,2.7-3.12A3.11,3.11,0,0,0,412.76,431.53Z" transform="translate(9.16 27.55)"/><path class="cls-7" d="M466.12,458.45a1.51,1.51,0,0,0,0,3A1.51,1.51,0,0,0,466.12,458.45Z" transform="translate(9.16 27.55)"/><path class="cls-7" d="M243.69,446.15a2.25,2.25,0,0,0-1.92,3.35,2.84,2.84,0,0,0,.56.73,2,2,0,0,0,2.73,0,3.08,3.08,0,0,0,.56-.73A2.25,2.25,0,0,0,243.69,446.15Z" transform="translate(9.16 27.55)"/></g></g></g></g></svg>