<svg xmlns="http://www.w3.org/2000/svg" xmlns:xlink="http://www.w3.org/1999/xlink" viewBox="0 0 500 500"><defs><style>.cls-1,.cls-28,.cls-35{fill:none;}.cls-2{isolation:isolate;}.cls-3{clip-path:url(#clip-path);}.cls-4{fill:#e8eff2;}.cls-5,.cls-7{fill:#a4a4a4;}.cls-6{fill:#dedede;}.cls-10,.cls-11,.cls-12,.cls-14,.cls-7{fill-rule:evenodd;}.cls-8{fill:#c0b49a;}.cls-12,.cls-9{fill:#969595;}.cls-10,.cls-16{fill:#838383;}.cls-11,.cls-17{fill:#7a7a7a;}.cls-13{fill:#e5e6e5;}.cls-14,.cls-15{fill:#d7d7d7;}.cls-18{fill:#d6d1bf;}.cls-19{fill:#a19a94;}.cls-20{fill:#e5e5e5;}.cls-21{fill:#c1c1c1;}.cls-22{fill:#febb82;}.cls-23{fill:#f2aa75;}.cls-24{fill:#6d6d6d;}.cls-25{fill:#343434;}.cls-26{fill:#fff;}.cls-27{fill:#ccf2e3;}.cls-28{stroke:#ccf2e3;}.cls-28,.cls-35{stroke-miterlimit:10;}.cls-29{fill:#b3e0cd;}.cls-30{fill:#5d5d5d;}.cls-31{fill:#4f4f4f;}.cls-32{fill:#3d3d3d;}.cls-33{fill:#b2b2b2;}.cls-34{fill:#a06645;}.cls-35{stroke:#5d5d5d;stroke-width:0.97px;}.cls-36{fill:#895236;}.cls-37{fill:#e2e2e2;mix-blend-mode:lighten;}.cls-38,.cls-39{opacity:0.3;}.cls-38{fill:url(#linear-gradient);}.cls-39{fill:url(#linear-gradient-2);}</style><clipPath id="clip-path" transform="translate(7.65 14.02)"><path class="cls-1" d="M66.63,458.45C-38.63,409.1,11.94,278.21,13.47,217.9,16,117.35,77.57,104.67,178.6,59.33,279.35,10.74,331.29-14.31,383.09,8.54,455,47,490.75,139.11,484.11,229.19c-8.34,72.86-46.58,87.25-38.81,141.26,7,48.95,42.42,64.71,33.33,83.33-12.52,25.69-80.12-3.56-192.66-.66C169.36,456.12,131,490.38,66.63,458.45Z"/></clipPath><linearGradient id="linear-gradient" x1="181.84" y1="331.55" x2="181.84" y2="407.18" gradientUnits="userSpaceOnUse"><stop offset="0" stop-color="#fff"/><stop offset="0.09" stop-color="#fff" stop-opacity="0.97"/><stop offset="0.22" stop-color="#fff" stop-opacity="0.89"/><stop offset="0.38" stop-color="#fff" stop-opacity="0.75"/><stop offset="0.56" stop-color="#fff" stop-opacity="0.57"/><stop offset="0.76" stop-color="#fff" stop-opacity="0.33"/><stop offset="0.97" stop-color="#fff" stop-opacity="0.04"/><stop offset="1" stop-color="#fff" stop-opacity="0"/></linearGradient><linearGradient id="linear-gradient-2" x1="243.66" y1="383.11" x2="243.66" y2="461.99" gradientTransform="matrix(-1, 0, 0, 1, 486.69, 0)" gradientUnits="userSpaceOnUse"><stop offset="0" stop-color="#fff"/><stop offset="0.18" stop-color="#fff" stop-opacity="0.99"/><stop offset="0.32" stop-color="#fff" stop-opacity="0.95"/><stop offset="0.43" stop-color="#fff" stop-opacity="0.89"/><stop offset="0.54" stop-color="#fff" stop-opacity="0.8"/><stop offset="0.64" stop-color="#fff" stop-opacity="0.69"/><stop offset="0.74" stop-color="#fff" stop-opacity="0.55"/><stop offset="0.83" stop-color="#fff" stop-opacity="0.38"/><stop offset="0.92" stop-color="#fff" stop-opacity="0.2"/><stop offset="1" stop-color="#fff" stop-opacity="0"/></linearGradient></defs><g class="cls-2"><g id="Layer_2" data-name="Layer 2"><g id="OBJECTS"><g class="cls-3"><rect class="cls-4" width="500" height="500"/><rect class="cls-5" y="275" width="500" height="225"/><path class="cls-6" d="M114.74,42.69a9.92,9.92,0,0,0-3.3-2.44,15.69,15.69,0,0,0-3.8-1.2c-5.94-1.13-11.4.81-16.51,3.69-1.41.79-2.79,1.6-4.18,2.41a33.57,33.57,0,0,1-3.86,2.3,14.69,14.69,0,0,1-4.65.84A33.94,33.94,0,0,1,68.33,47c-1.83-.45-3.65-1-5.48-1.37-6.29-1.45-14.49-2.46-20.08,1.66a8.6,8.6,0,0,0-3,3.77c-1.09,3.44,1.51,5.66,3.3,8.17s1.93,4.66-1.17,6.25c-4.1,2.1-10.46,4-11.29,9.41a7,7,0,0,0,1.39,5c2,2.27,5,3.34,7.79,4.17,1.44.43,2.79,1,4.2,1.54A5.05,5.05,0,0,1,47,91h2.53A4,4,0,0,0,51,88.12c-.22-3-4-4.32-4.16-7.3s3.41-3.69,5.59-4c2-.25,4.9-.47,5.42-2.91.66-3.06-3.54-3.47-5.06-5.07-1.06-1.12-.3-2.4.79-3.23a8.74,8.74,0,0,1,3.57-1.49c3.2-.67,6.49.57,9.49,1.57,3.17,1.06,6.39,2.09,9.78,2a10,10,0,0,0,6.23-2.07c2.1-1.75,2.29-4.13,3.42-6.43,2.32-4.71,8.8-3.87,13-3.28,3.35.47,6.77,1.06,10.15.5a9.69,9.69,0,0,0,6.68-4.28C118,49,117.12,45.45,114.74,42.69Z" transform="translate(7.65 14.02)"/><path class="cls-6" d="M292.8,89.69a9.78,9.78,0,0,0-3.29-2.44,15.76,15.76,0,0,0-3.81-1.2c-5.94-1.13-11.4.81-16.51,3.69-1.4.79-2.79,1.6-4.18,2.41a32.74,32.74,0,0,1-3.86,2.3,14.63,14.63,0,0,1-4.64.84A34,34,0,0,1,246.39,94c-1.82-.45-3.64-.95-5.47-1.37-6.29-1.45-14.5-2.46-20.08,1.66a8.6,8.6,0,0,0-3,3.77c-1.09,3.44,1.51,5.66,3.29,8.17s1.93,4.66-1.17,6.25c-4.09,2.1-10.46,4-11.29,9.41a7,7,0,0,0,1.4,5c2,2.27,5,3.34,7.79,4.17,1.44.43,2.79,1,4.19,1.54a5,5,0,0,1,3,5.47h2.53a4,4,0,0,0,1.43-2.86c-.22-3-4-4.32-4.16-7.3s3.42-3.69,5.6-4c2-.25,4.9-.47,5.42-2.91.65-3.06-3.54-3.47-5.07-5.07-1.06-1.12-.29-2.4.8-3.23a8.76,8.76,0,0,1,3.56-1.49c3.2-.67,6.5.57,9.49,1.57,3.18,1.06,6.39,2.09,9.78,2a10,10,0,0,0,6.24-2.07c2.1-1.75,2.28-4.13,3.42-6.43,2.32-4.71,8.8-3.87,13-3.28,3.35.47,6.77,1.06,10.14.5A9.69,9.69,0,0,0,294,99.17C296,96,295.19,92.45,292.8,89.69Z" transform="translate(7.65 14.02)"/><path class="cls-6" d="M481.88,13a12.2,12.2,0,0,0-4.57-2.24,19.57,19.57,0,0,0-4.92-.62c-7.51-.06-13.75,3.53-19.36,8.19-1.54,1.28-3,2.59-4.57,3.88a41.74,41.74,0,0,1-4.2,3.68,18.18,18.18,0,0,1-5.5,2.06,42.65,42.65,0,0,1-12.66.64c-2.33-.15-4.67-.35-7-.46-8-.37-18.26.23-24.17,6.52a10.69,10.69,0,0,0-2.77,5.27c-.56,4.44,3.11,6.57,5.85,9.24s3.4,5.27,0,7.9c-4.54,3.48-12.45,7.33-11.71,14,.62,5.5,7.11,4.5,7,8.16-.14,6.64-6.31,5-6.25,7.75l25.89-.4c.72-1.19,1.48-2.42,1.12-3.82-.94-3.62-5.81-4.4-6.72-8s3.35-5.27,6-6.1c2.41-.76,5.89-1.67,6-4.77.11-3.88-5.1-3.44-7.32-5.06-1.55-1.13-.9-2.87.25-4.13a10.78,10.78,0,0,1,4-2.62c3.77-1.53,8.07-.75,11.95-.2,4.12.59,8.28,1.13,12.41.27a12.43,12.43,0,0,0,7.16-3.91c2.17-2.61,1.87-5.56,2.75-8.63,1.78-6.27,9.89-6.69,15.21-6.92,4.21-.17,8.51-.21,12.52-1.65a12,12,0,0,0,7.21-6.73C487.23,20,485.42,15.83,481.88,13Z" transform="translate(7.65 14.02)"/><path class="cls-5" d="M46.54,217H67.45A1.55,1.55,0,0,1,69,218.55v3.91A1.55,1.55,0,0,1,67.45,224H46.54A1.54,1.54,0,0,1,45,222.46v-3.91A1.54,1.54,0,0,1,46.54,217Z"/><rect class="cls-5" x="47" y="185" width="21" height="5" rx="2.39"/><polygon class="cls-5" points="66.35 219 48 219 52.18 106 62.49 106 66.35 219"/><rect class="cls-5" x="49" y="101" width="16" height="6" rx="1.12"/><rect class="cls-5" x="48" y="155" width="19" height="6" rx="1.21"/><rect class="cls-5" x="49" y="127" width="17" height="4" rx="1.94"/><polygon class="cls-7" points="187.04 174 87 174 87 160 182.2 160 187.04 174"/><polygon class="cls-7" points="87.47 159 185.14 159 186.1 162 89.29 162 87.47 159"/><path class="cls-7" d="M196.47,156a5.4,5.4,0,0,0-3.62,1.37,4.43,4.43,0,0,0-1.5,3.29v23.69a4.45,4.45,0,0,0,1.5,3.29h0a5.39,5.39,0,0,0,3.62,1.36h50.75a5.39,5.39,0,0,0,3.62-1.36h0a4.42,4.42,0,0,0,1.51-3.28V160.64a4.44,4.44,0,0,0-1.51-3.29h0a5.4,5.4,0,0,0-3.62-1.37Zm51.88,3.6v-.09a13.6,13.6,0,0,1,1,1.43v23.55a5.15,5.15,0,0,1-.95,1.44h0c-.4.37-1,.6-1.58,1.07H196.39a14.9,14.9,0,0,0-1.58-1H195a1.92,1.92,0,0,1-.65-1.43V161a2,2,0,0,1,.65-1.43,2.36,2.36,0,0,1,1.58-.6h50.19A2.32,2.32,0,0,1,248.35,159.58Z" transform="translate(7.65 14.02)"/><path class="cls-7" d="M207.46,193a5.36,5.36,0,0,0-3.61,1.37,4.43,4.43,0,0,0-1.5,3.29v23.69a4.45,4.45,0,0,0,1.5,3.29h0a5.35,5.35,0,0,0,3.61,1.36h39.77a5.37,5.37,0,0,0,3.61-1.36h0a4.44,4.44,0,0,0,1.5-3.28V197.64a4.47,4.47,0,0,0-1.5-3.29h0a5.38,5.38,0,0,0-3.61-1.37Zm40.89,3.6v-.09a12.54,12.54,0,0,1,1,1.43v23.55a5.3,5.3,0,0,1-.95,1.44h0c-.4.37-1,.6-1.58,1.07H207.18a14.9,14.9,0,0,0-1.58-1H206a2,2,0,0,1-.64-1.43V198a2,2,0,0,1,.65-1.44,2.31,2.31,0,0,1,1.56-.6h39.22A2.32,2.32,0,0,1,248.35,196.58Z" transform="translate(7.65 14.02)"/><rect class="cls-5" x="224" y="152" width="24" height="110"/><rect class="cls-5" x="220" y="229" width="30.57" height="6" rx="3"/><path class="cls-7" d="M239.92,235H215.35a3,3,0,0,0-3,3h0a3,3,0,0,0,3,3h24.57a3,3,0,0,0,3-3h0A3,3,0,0,0,239.92,235Z" transform="translate(7.65 14.02)"/><path class="cls-7" d="M239.92,160H215.35a3,3,0,0,0-3,3h0a3,3,0,0,0,3,3h24.57a3,3,0,0,0,3-3h0A3,3,0,0,0,239.92,160Z" transform="translate(7.65 14.02)"/><rect class="cls-5" x="221" y="148" width="31" height="10.99" rx="3.2"/><rect class="cls-5" x="27" y="174" width="191" height="99"/><polygon class="cls-7" points="218.51 174 27.14 174 26.16 170 219.5 170 218.51 174"/><rect class="cls-5" x="27" y="267" width="191" height="8"/><rect class="cls-5" x="87" y="136" width="47" height="140"/><polygon class="cls-7" points="134.37 136 87.47 136 87.07 132 134.77 132 134.37 136"/><rect class="cls-5" x="87" y="266" width="47" height="9"/><rect class="cls-5" x="264" y="136" width="47" height="140"/><polygon class="cls-7" points="311.31 136 264.4 136 264.01 132 311.7 132 311.31 136"/><rect class="cls-5" x="264" y="266" width="47" height="9"/><rect class="cls-5" x="218" y="262" width="35" height="13"/><rect class="cls-5" x="218" y="262" width="35" height="1"/><rect class="cls-5" x="218" y="271" width="35" height="4"/><polygon class="cls-5" points="431.87 232 374.56 232 387.63 109 419.8 109 431.87 232"/><rect class="cls-5" x="378" y="100" width="51" height="10" rx="2.7"/><rect class="cls-5" x="377" y="149" width="53" height="7" rx="3.24"/><rect class="cls-5" x="322" y="174" width="110" height="99"/><polygon class="cls-7" points="432.06 174 322.08 174 321.52 170 432.62 170 432.06 174"/><rect class="cls-5" x="322" y="267" width="110" height="8"/><polygon class="cls-5" points="342.02 269 315.7 269 321.7 107 336.48 107 342.02 269"/><rect class="cls-5" x="318" y="100" width="23" height="8" rx="1.6"/><rect class="cls-5" x="316" y="178" width="27" height="8" rx="1.72"/><path class="cls-5" d="M319.76,137h18.47a2.77,2.77,0,0,1,2.77,2.77v.47a2.76,2.76,0,0,1-2.76,2.76H319.76a2.76,2.76,0,0,1-2.76-2.76v-.47A2.76,2.76,0,0,1,319.76,137Z"/><rect class="cls-5" x="312" y="265" width="35" height="10" rx="2.21"/><rect class="cls-5" x="314" y="221" width="30" height="7" rx="3.41"/><circle class="cls-5" cx="366.18" cy="223.81" r="4.87"/><circle class="cls-5" cx="366.18" cy="223.81" r="2.84"/><rect class="cls-5" x="444" y="207" width="35" height="61" rx="6.73"/><path class="cls-7" d="M454.35,193v-1.59a4.45,4.45,0,0,1,1.27-3.11,4.32,4.32,0,0,1,3.07-1.3H474a4.3,4.3,0,0,1,3.07,1.3,4.42,4.42,0,0,1,1.28,3.11v52.2A4.4,4.4,0,0,1,474,248H341.73a4.37,4.37,0,0,1-4.38-4.39V207.37a4.39,4.39,0,0,1,4.38-4.39H356a4.13,4.13,0,0,1,3,1.38,4.86,4.86,0,0,1,1.27,3.14V210a1.93,1.93,0,0,1-1.84,2h0a1.93,1.93,0,0,1-1.85-2c0-1.17,0-2.43,0-2.45a.61.61,0,0,0-.17-.34A.6.6,0,0,0,356,207H342a.6.6,0,0,0-.45.21.71.71,0,0,0-.18.48v35.68a.63.63,0,0,0,.64.63H474.71a.67.67,0,0,0,.45-.18.68.68,0,0,0,.19-.45V191.63a.65.65,0,0,0-.64-.65H459.05s-.64-.22-.7.13V193Z" transform="translate(7.65 14.02)"/><rect class="cls-5" x="468" y="267" width="5" height="8"/><rect class="cls-5" x="449" y="267" width="5" height="8"/><rect class="cls-4" width="500" height="275"/><rect class="cls-5" y="275" width="500" height="225"/><path class="cls-6" d="M387.79,42.69a9.92,9.92,0,0,0-3.3-2.44,15.55,15.55,0,0,0-3.8-1.2c-5.94-1.13-11.4.81-16.51,3.69-1.4.79-2.79,1.6-4.18,2.41a33.57,33.57,0,0,1-3.86,2.3,14.69,14.69,0,0,1-4.65.84A33.94,33.94,0,0,1,341.38,47c-1.83-.45-3.65-1-5.48-1.37-6.29-1.45-14.49-2.46-20.07,1.66a8.62,8.62,0,0,0-3,3.77c-1.09,3.44,1.52,5.66,3.3,8.17s1.93,4.66-1.17,6.25c-4.1,2.1-10.46,4-11.29,9.41a6.94,6.94,0,0,0,1.4,5c2,2.27,4.95,3.34,7.78,4.17,1.45.43,2.79,1,4.2,1.54A5,5,0,0,1,320,91h2.53A4,4,0,0,0,324,88.12c-.22-3-4-4.32-4.16-7.3s3.41-3.69,5.59-4c2-.25,4.9-.47,5.42-2.91.66-3.06-3.54-3.47-5.06-5.07-1.06-1.12-.3-2.4.79-3.23a8.74,8.74,0,0,1,3.57-1.49c3.2-.67,6.49.57,9.49,1.57,3.18,1.06,6.39,2.09,9.78,2a10,10,0,0,0,6.23-2.07c2.1-1.75,2.29-4.13,3.43-6.43,2.31-4.71,8.79-3.87,13-3.28,3.36.47,6.77,1.06,10.15.5A9.69,9.69,0,0,0,389,52.17C391,49,390.18,45.45,387.79,42.69Z" transform="translate(7.65 14.02)"/><path class="cls-6" d="M114.74,42.69a9.92,9.92,0,0,0-3.3-2.44,15.69,15.69,0,0,0-3.8-1.2c-5.94-1.13-11.4.81-16.51,3.69-1.41.79-2.79,1.6-4.18,2.41a33.57,33.57,0,0,1-3.86,2.3,14.69,14.69,0,0,1-4.65.84A33.94,33.94,0,0,1,68.33,47c-1.83-.45-3.65-1-5.48-1.37-6.29-1.45-14.49-2.46-20.08,1.66a8.6,8.6,0,0,0-3,3.77c-1.09,3.44,1.51,5.66,3.3,8.17s1.93,4.66-1.17,6.25c-4.1,2.1-10.46,4-11.29,9.41a7,7,0,0,0,1.39,5c2,2.27,5,3.34,7.79,4.17,1.44.43,2.79,1,4.2,1.54A5.05,5.05,0,0,1,47,91h2.53A4,4,0,0,0,51,88.12c-.22-3-4-4.32-4.16-7.3s3.41-3.69,5.59-4c2-.25,4.9-.47,5.42-2.91.66-3.06-3.54-3.47-5.06-5.07-1.06-1.12-.3-2.4.79-3.23a8.74,8.74,0,0,1,3.57-1.49c3.2-.67,6.49.57,9.49,1.57,3.17,1.06,6.39,2.09,9.78,2a10,10,0,0,0,6.23-2.07c2.1-1.75,2.29-4.13,3.42-6.43,2.32-4.71,8.8-3.87,13-3.28,3.35.47,6.77,1.06,10.15.5a9.69,9.69,0,0,0,6.68-4.28C118,49,117.12,45.45,114.74,42.69Z" transform="translate(7.65 14.02)"/><path class="cls-6" d="M292.8,89.69a9.78,9.78,0,0,0-3.29-2.44,15.76,15.76,0,0,0-3.81-1.2c-5.94-1.13-11.4.81-16.51,3.69-1.4.79-2.79,1.6-4.18,2.41a32.74,32.74,0,0,1-3.86,2.3,14.63,14.63,0,0,1-4.64.84A34,34,0,0,1,246.39,94c-1.82-.45-3.64-.95-5.47-1.37-6.29-1.45-14.5-2.46-20.08,1.66a8.6,8.6,0,0,0-3,3.77c-1.09,3.44,1.51,5.66,3.29,8.17s1.93,4.66-1.17,6.25c-4.09,2.1-10.46,4-11.29,9.41a7,7,0,0,0,1.4,5c2,2.27,5,3.34,7.79,4.17,1.44.43,2.79,1,4.19,1.54a5,5,0,0,1,3,5.47h2.53a4,4,0,0,0,1.43-2.86c-.22-3-4-4.32-4.16-7.3s3.42-3.69,5.6-4c2-.25,4.9-.47,5.42-2.91.65-3.06-3.54-3.47-5.07-5.07-1.06-1.12-.29-2.4.8-3.23a8.76,8.76,0,0,1,3.56-1.49c3.2-.67,6.5.57,9.49,1.57,3.18,1.06,6.39,2.09,9.78,2a10,10,0,0,0,6.24-2.07c2.1-1.75,2.28-4.13,3.42-6.43,2.32-4.71,8.8-3.87,13-3.28,3.35.47,6.77,1.06,10.14.5A9.69,9.69,0,0,0,294,99.17C296,96,295.19,92.45,292.8,89.69Z" transform="translate(7.65 14.02)"/><path class="cls-6" d="M481.88,13a12.2,12.2,0,0,0-4.57-2.24,19.57,19.57,0,0,0-4.92-.62c-7.51-.06-13.75,3.53-19.36,8.19-1.54,1.28-3,2.59-4.57,3.88a41.74,41.74,0,0,1-4.2,3.68,18.18,18.18,0,0,1-5.5,2.06,42.65,42.65,0,0,1-12.66.64c-2.33-.15-4.67-.35-7-.46-8-.37-18.26.23-24.17,6.52a10.69,10.69,0,0,0-2.77,5.27c-.56,4.44,3.11,6.57,5.85,9.24s3.4,5.27,0,7.9c-4.54,3.48-12.45,7.33-11.71,14,.62,5.5,7.11,4.5,7,8.16-.14,6.64-6.31,5-6.25,7.75l25.89-.4c.72-1.19,1.48-2.42,1.12-3.82-.94-3.62-5.81-4.4-6.72-8s3.35-5.27,6-6.1c2.41-.76,5.89-1.67,6-4.77.11-3.88-5.1-3.44-7.32-5.06-1.55-1.13-.9-2.87.25-4.13a10.78,10.78,0,0,1,4-2.62c3.77-1.53,8.07-.75,11.95-.2,4.12.59,8.28,1.13,12.41.27a12.43,12.43,0,0,0,7.16-3.91c2.17-2.61,1.87-5.56,2.75-8.63,1.78-6.27,9.89-6.69,15.21-6.92,4.21-.17,8.51-.21,12.52-1.65a12,12,0,0,0,7.21-6.73C487.23,20,485.42,15.83,481.88,13Z" transform="translate(7.65 14.02)"/><path class="cls-8" d="M46.54,217H67.45A1.55,1.55,0,0,1,69,218.55v3.91A1.55,1.55,0,0,1,67.45,224H46.54A1.54,1.54,0,0,1,45,222.46v-3.91A1.54,1.54,0,0,1,46.54,217Z"/><rect class="cls-8" x="47" y="185" width="21" height="5" rx="2.39"/><polygon class="cls-5" points="66.35 219 48 219 52.18 106 62.49 106 66.35 219"/><rect class="cls-9" x="49" y="101" width="16" height="6" rx="1.12"/><rect class="cls-9" x="48" y="155" width="19" height="6" rx="1.21"/><rect class="cls-9" x="49" y="127" width="17" height="4" rx="1.94"/><polygon class="cls-10" points="187.04 174 87 174 87 160 182.2 160 187.04 174"/><polygon class="cls-11" points="87.47 159 185.14 159 186.1 162 89.29 162 87.47 159"/><path class="cls-10" d="M196.47,156a5.4,5.4,0,0,0-3.62,1.37,4.43,4.43,0,0,0-1.5,3.29v23.69a4.45,4.45,0,0,0,1.5,3.29h0a5.39,5.39,0,0,0,3.62,1.36h50.75a5.39,5.39,0,0,0,3.62-1.36h0a4.42,4.42,0,0,0,1.51-3.28V160.64a4.44,4.44,0,0,0-1.51-3.29h0a5.4,5.4,0,0,0-3.62-1.37Zm51.88,3.6v-.09a13.6,13.6,0,0,1,1,1.43v23.55a5.15,5.15,0,0,1-.95,1.44h0c-.4.37-1,.6-1.58,1.07H196.39a14.9,14.9,0,0,0-1.58-1H195a1.92,1.92,0,0,1-.65-1.43V161a2,2,0,0,1,.65-1.43,2.36,2.36,0,0,1,1.58-.6h50.19A2.32,2.32,0,0,1,248.35,159.58Z" transform="translate(7.65 14.02)"/><path class="cls-10" d="M207.46,193a5.36,5.36,0,0,0-3.61,1.37,4.43,4.43,0,0,0-1.5,3.29v23.69a4.45,4.45,0,0,0,1.5,3.29h0a5.35,5.35,0,0,0,3.61,1.36h39.77a5.37,5.37,0,0,0,3.61-1.36h0a4.44,4.44,0,0,0,1.5-3.28V197.64a4.47,4.47,0,0,0-1.5-3.29h0a5.38,5.38,0,0,0-3.61-1.37Zm40.89,3.6v-.09a12.54,12.54,0,0,1,1,1.43v23.55a5.3,5.3,0,0,1-.95,1.44h0c-.4.37-1,.6-1.58,1.07H207.18a14.9,14.9,0,0,0-1.58-1H206a2,2,0,0,1-.64-1.43V198a2,2,0,0,1,.65-1.44,2.31,2.31,0,0,1,1.56-.6h39.22A2.32,2.32,0,0,1,248.35,196.58Z" transform="translate(7.65 14.02)"/><rect class="cls-5" x="224" y="152" width="24" height="110"/><rect class="cls-9" x="220" y="229" width="30.57" height="6" rx="3"/><path class="cls-12" d="M239.92,235H215.35a3,3,0,0,0-3,3h0a3,3,0,0,0,3,3h24.57a3,3,0,0,0,3-3h0A3,3,0,0,0,239.92,235Z" transform="translate(7.65 14.02)"/><path class="cls-12" d="M239.92,160H215.35a3,3,0,0,0-3,3h0a3,3,0,0,0,3,3h24.57a3,3,0,0,0,3-3h0A3,3,0,0,0,239.92,160Z" transform="translate(7.65 14.02)"/><rect class="cls-9" x="221" y="148" width="31" height="10.99" rx="3.2"/><rect class="cls-13" x="27" y="174" width="191" height="99"/><polygon class="cls-14" points="218.51 174 27.14 174 26.16 170 219.5 170 218.51 174"/><rect class="cls-15" x="27" y="267" width="191" height="8"/><rect class="cls-5" x="87" y="136" width="47" height="140"/><polygon class="cls-12" points="134.37 136 87.47 136 87.07 132 134.77 132 134.37 136"/><rect class="cls-9" x="87" y="266" width="47" height="9"/><rect class="cls-5" x="264" y="136" width="47" height="140"/><polygon class="cls-12" points="311.31 136 264.4 136 264.01 132 311.7 132 311.31 136"/><rect class="cls-9" x="264" y="266" width="47" height="9"/><rect class="cls-5" x="218" y="262" width="35" height="13"/><rect class="cls-9" x="218" y="262" width="35" height="1"/><rect class="cls-9" x="218" y="271" width="35" height="4"/><polygon class="cls-16" points="431.87 232 374.56 232 387.63 109 419.8 109 431.87 232"/><rect class="cls-17" x="378" y="100" width="51" height="10" rx="2.7"/><rect class="cls-17" x="377" y="149" width="53" height="7" rx="3.24"/><rect class="cls-13" x="322" y="174" width="110" height="99"/><polygon class="cls-14" points="432.06 174 322.08 174 321.52 170 432.62 170 432.06 174"/><rect class="cls-15" x="322" y="267" width="110" height="8"/><polygon class="cls-5" points="342.02 269 315.7 269 321.7 107 336.48 107 342.02 269"/><rect class="cls-9" x="318" y="100" width="23" height="8" rx="1.6"/><rect class="cls-9" x="316" y="178" width="27" height="8" rx="1.72"/><path class="cls-9" d="M319.76,137h18.47a2.77,2.77,0,0,1,2.77,2.77v.47a2.76,2.76,0,0,1-2.76,2.76H319.76a2.76,2.76,0,0,1-2.76-2.76v-.47A2.76,2.76,0,0,1,319.76,137Z"/><rect class="cls-9" x="312" y="265" width="35" height="10" rx="2.21"/><rect class="cls-9" x="314" y="221" width="30" height="7" rx="3.41"/><circle class="cls-5" cx="366.18" cy="223.81" r="4.87"/><circle class="cls-16" cx="366.18" cy="223.81" r="2.84"/><rect class="cls-5" x="444" y="207" width="35" height="61" rx="6.73"/><path class="cls-10" d="M454.35,193v-1.59a4.45,4.45,0,0,1,1.27-3.11,4.32,4.32,0,0,1,3.07-1.3H474a4.3,4.3,0,0,1,3.07,1.3,4.42,4.42,0,0,1,1.28,3.11v52.2A4.4,4.4,0,0,1,474,248H341.73a4.37,4.37,0,0,1-4.38-4.39V207.37a4.39,4.39,0,0,1,4.38-4.39H356a4.13,4.13,0,0,1,3,1.38,4.86,4.86,0,0,1,1.27,3.14V210a1.93,1.93,0,0,1-1.84,2h0a1.93,1.93,0,0,1-1.85-2c0-1.17,0-2.43,0-2.45a.61.61,0,0,0-.17-.34A.6.6,0,0,0,356,207H342a.6.6,0,0,0-.45.21.71.71,0,0,0-.18.48v35.68a.63.63,0,0,0,.64.63H474.71a.67.67,0,0,0,.45-.18.68.68,0,0,0,.19-.45V191.63a.65.65,0,0,0-.64-.65H459.05s-.64-.22-.7.13V193Z" transform="translate(7.65 14.02)"/><rect class="cls-18" x="468" y="267" width="5" height="8"/><rect class="cls-19" x="449" y="267" width="5" height="8"/><path class="cls-20" d="M160.41,486c-3.25-25.77-9.76-67.19-9.76-67.19s-21.18,17.42-35.65,33.5C102.57,466.1,93.21,478.41,90.48,486H58.88c0-.56,0-1.08,0-1.55,0-24.84,56.13-103.55,56.13-103.55l72.76-9.78a58.28,58.28,0,0,1,10.41,47.57c-5.84,27.15-9.06,59.91-8.83,67.31Z" transform="translate(7.65 14.02)"/><path class="cls-21" d="M150.65,418.79l-1.34-14.65-44,59.44S146.63,421.38,150.65,418.79Z" transform="translate(7.65 14.02)"/><path class="cls-22" d="M114.49,266.94s-2.14,1.21-7.59,8.51-15.26,18-25,17.24c-5.93-.48-5-8.35-5-8.35l.56-.46s1.24-1.13,1.24-8.43.55-25.31,11-24.74c0,0,6.43,10.58,14.09,13.77A34.65,34.65,0,0,0,114.49,266.94Z" transform="translate(7.65 14.02)"/><path class="cls-23" d="M97.33,260.07a40.36,40.36,0,0,1-3.92,10.24c-3.41,6.8-9.57,10.43-15.4,12.18a21.63,21.63,0,0,0,.57-4.17,22.17,22.17,0,0,0,6.83-8c2.3-4.59,5.38-10.64,4.28-19.6A50.77,50.77,0,0,0,97.33,260.07Z" transform="translate(7.65 14.02)"/><path class="cls-17" d="M200,383.56s-4.71,5.06-21.17,4.87c0,0-18.51,6.23-37.11,4.87s-19.19-4.58-33.6-6.43c0,0,9-10.91,9-14s-4-16.37-5.07-18.21-9.15-9.26-11.62-11.21c0,0-.39,9.68-2.4,14.67s-4.74,7.6-6.82,7.73S67.1,321,66.05,310.57a28.83,28.83,0,0,1,10.8-26.23s-.92,7.87,5,8.35c9.78.78,19.58-9.94,25-17.24s7.59-8.51,7.59-8.51a28.35,28.35,0,0,0,9.06-.65c3.9-1.07,16.75-.68,27.08,8.87s23.42,27.3,29.32,38.27c7.79,14.51-3.06,21.53-3.06,21.53a69.48,69.48,0,0,1,7.54,23.66s3,6.14,6.23,13A41,41,0,0,0,200,383.56Z" transform="translate(7.65 14.02)"/><path class="cls-24" d="M134.37,296.17s11.78,13.37,19.86,18l-11.29,2.34S141.48,307.63,134.37,296.17Z" transform="translate(7.65 14.02)"/><path class="cls-24" d="M78.78,318.11s9.2,14,13.4,18.31a62.69,62.69,0,0,0,8.16,7s-.33,5.06-.66,7.18C99.68,350.61,90.31,343.39,78.78,318.11Z" transform="translate(7.65 14.02)"/><path class="cls-24" d="M165.14,341.68a4.18,4.18,0,0,1-.16.5,10.94,10.94,0,0,1-.59,1.39,19.22,19.22,0,0,1-1.15,2,22.35,22.35,0,0,1-1.8,2.46c-.36.43-.72.89-1.13,1.34l-1.3,1.33a40,40,0,0,1-3,2.68c-1.13.82-2.23,1.78-3.49,2.52l-1.87,1.18c-.63.39-1.29.72-1.94,1.09l-2,1c-.66.32-1.34.61-2,.9a38.2,38.2,0,0,1-4,1.59c-1.3.47-2.55.93-3.77,1.26s-2.38.63-3.45.9a29.19,29.19,0,0,1-3,.6c-.88.16-1.65.27-2.29.36-1.27.19-2,.26-2,.26s.67-.33,1.85-.83c.58-.26,1.3-.57,2.12-.89s1.75-.7,2.74-1.14,2.07-.91,3.21-1.37,2.3-1.07,3.54-1.59c.61-.28,1.25-.53,1.86-.84s1.24-.64,1.87-.94l1.9-.93,1.88-1c.62-.33,1.27-.64,1.88-1l1.8-1.08c1.22-.7,2.35-1.47,3.47-2.19.56-.35,1.06-.78,1.59-1.13s1.06-.71,1.52-1.11c1-.76,1.87-1.46,2.66-2.18.42-.34.79-.69,1.14-1s.71-.64,1-1c.6-.63,1.14-1.18,1.55-1.66s.73-.86.93-1.14S165.14,341.68,165.14,341.68Z" transform="translate(7.65 14.02)"/><path class="cls-24" d="M147.09,364.34l1-.5c.65-.3,1.57-.73,2.68-1.2s2.38-1,3.74-1.57l4.25-1.75c.72-.31,1.45-.58,2.15-.9s1.4-.58,2.06-.89,1.33-.55,1.93-.85,1.22-.5,1.74-.78,1-.48,1.49-.68l1.14-.55c.65-.31,1.05-.46,1.05-.46s-.23.35-.67.92c-.23.28-.49.65-.84,1s-.75.77-1.21,1.19a17.42,17.42,0,0,1-1.54,1.28,22,22,0,0,1-1.84,1.27c-.65.42-1.36.8-2.08,1.17s-1.48.69-2.23,1a34,34,0,0,1-4.58,1.5,27.66,27.66,0,0,1-4.14.71,19.47,19.47,0,0,1-3,.12A11.12,11.12,0,0,1,147.09,364.34Z" transform="translate(7.65 14.02)"/><path class="cls-22" d="M122.56,329.72c-9.7.5-11.92,3.25-17.28,2.67s-11.82-8.57-12.15-10.19-1.62-10.07-.51-11.82,3.18-2.37,3.79-1.56,3,4.61,4.29,5.52,6.36,3.21,7.92,2.89,1.17-3-.91-4.48-4.87-2.5-6-4.32-.09-4.6,2.89-3.24c0,0,6,2.46,7.73,4.35s6,6,11.54,6.46C124.73,317.88,127.1,324.15,122.56,329.72Z" transform="translate(7.65 14.02)"/><path class="cls-24" d="M183.65,328.43c-1,2.34-3.12,7.08-11.56,7.27s-38.89-6.45-49-6a4.24,4.24,0,0,0-.51,0c4.54-5.57,2.17-11.84,1.27-13.72l.27,0c5.72.39,25.59-4.09,34.81-3.7s19.94,2,22.6,5.5S184.69,326.09,183.65,328.43Z" transform="translate(7.65 14.02)"/><path class="cls-24" d="M90.15,366.42c-4.58,1.17-16-1-20.07-9.65-3.94-8.35-14.94-42.22-17.3-46.41,8.86-1.44,10.18-7.21,10.18-7.21,3.16,4.91,15.26,22.08,19.68,28.5,5,7.2,11.21,16.85,12.18,20.74S94.72,365.25,90.15,366.42Z" transform="translate(7.65 14.02)"/><path class="cls-22" d="M63,303.15s-1.32,5.77-10.18,7.21a2.75,2.75,0,0,0-.23-.34c-1.75-1.95-7.69-2.56-9.77-5.68a22.19,22.19,0,0,1-3.48-11.9,8.79,8.79,0,0,1,4.87-7.54c1.61-.53,5.4-.39,7.08.87,0,0,4.87-1.11,7,.39s3.51,3.76,4,7.4-.78,6.69,0,8.38A11.51,11.51,0,0,0,63,303.15Z" transform="translate(7.65 14.02)"/><path class="cls-23" d="M55.13,292.7a10.69,10.69,0,0,1-.44,2.35,4.26,4.26,0,0,1-.51,1.14,2.88,2.88,0,0,1-1,.85,3.17,3.17,0,0,1-2.66.21,1.6,1.6,0,0,1-.64-.55,2.8,2.8,0,0,1-.3-.66,11.34,11.34,0,0,1-.33-1.2,15,15,0,0,1-.51-4.83,5.58,5.58,0,0,1,.27-1.3,6.16,6.16,0,0,1,.57-1.15,7.06,7.06,0,0,1,1.64-1.84l.12.1a10.75,10.75,0,0,0-1.11,4.27c.06,1.46,0,3,.2,4.54.12.72.21,1.62.54,1.76a2.41,2.41,0,0,0,1.9,0,2.07,2.07,0,0,0,.85-.54,3.62,3.62,0,0,0,.57-.94,12.59,12.59,0,0,0,.72-2.2Z" transform="translate(7.65 14.02)"/><path class="cls-23" d="M48.17,304.1a16,16,0,0,0,3.92-.53,3.86,3.86,0,0,0,1.62-.75,3.25,3.25,0,0,0,.87-1.45,5.1,5.1,0,0,0,.19-1.78,7,7,0,0,0-.11-.93c0-.33-.06-.66-.08-1a17.87,17.87,0,0,1,.22-4H55a18.26,18.26,0,0,1,1.13,3.94c.05.33.1.66.14,1a6.2,6.2,0,0,1,0,1.07,7.31,7.31,0,0,1-.55,2.16,4.12,4.12,0,0,1-1.39,1.79,3.22,3.22,0,0,1-1,.5,7.57,7.57,0,0,1-1,.22,14.66,14.66,0,0,1-4.08-.05Z" transform="translate(7.65 14.02)"/><path class="cls-22" d="M24.9,260.87S35,267,40.21,270.19,49,282,57.68,283.63c5.52,1,21.39-.67,27.73-13.31,2.51-5,5.94-11.75,3.88-22.11L69.59,232.3l-26-1.36L26.74,245Z" transform="translate(7.65 14.02)"/><path class="cls-25" d="M38,252.13a5.79,5.79,0,0,1-.2,1.39,7.92,7.92,0,0,1-.44,1.4,9.43,9.43,0,0,1-.78,1.51c-.14.26-.32.49-.48.74a4,4,0,0,1-.54.67,3.19,3.19,0,0,1-.64.47,2.79,2.79,0,0,1-.65.32,3.5,3.5,0,0,1-1.07.25,2.4,2.4,0,0,1-.43,0,.09.09,0,0,1-.09-.11,0,0,0,0,1,0,0h0a3.62,3.62,0,0,1,.21-.37c.07-.11.16-.24.26-.37s.21-.3.34-.45l.41-.48c.13-.17.31-.32.47-.49.35-.31.79-.58,1.15-1a11.84,11.84,0,0,0,1.72-2.3,9.17,9.17,0,0,0,.59-1.21.08.08,0,0,1,.11,0A.08.08,0,0,1,38,252.13Z" transform="translate(7.65 14.02)"/><path class="cls-25" d="M45.92,262.21h0a2.81,2.81,0,0,0-.83-3.88l-2.37-1.53a2.81,2.81,0,0,0-3.88.84h0a2.8,2.8,0,0,0,.84,3.87L42.05,263A2.8,2.8,0,0,0,45.92,262.21Z" transform="translate(7.65 14.02)"/><path class="cls-26" d="M42.47,260.92h0a1.81,1.81,0,0,0-.54-2.51l-.64-.42a1.83,1.83,0,0,0-2.52.55h0a1.82,1.82,0,0,0,.54,2.51l.64.42A1.82,1.82,0,0,0,42.47,260.92Z" transform="translate(7.65 14.02)"/><path class="cls-25" d="M45.67,216.55a17.9,17.9,0,0,0-19.74,4.29c-9,9.22-5.59,13-20.13,26.1a6.38,6.38,0,0,0,7.6,2.31,25.24,25.24,0,0,1-5.21,9.4s6.72-1.61,8.27-3.85c0,0,1.08,6.86-1.55,11.49,0,0,12.17-2,13.63-13.34,0,0,12.08-5,14.37-13.4,0,0,19.38,10.57,21.2,10.44s1-2.14,1-2.14-8-5.52-7.66-9.09,10.32.71,14.42,3.38,8.57,7.53,11.62,7.59,8.18-1.81,8.18-4.48-3-2.66-5.91-6.49S58.91,201.62,45.67,216.55Z" transform="translate(7.65 14.02)"/><path class="cls-27" d="M77.41,279.13c-7.14,4.62-15.91,5.21-19.73,4.5-8.33-1.57-12-9.63-16.89-13.06A6.24,6.24,0,0,1,43,267.49c1.45-.81,8.45-3.4,10.86-6.41a17.39,17.39,0,0,0,3.53-6.87s6.54,2,11.54-.87c0,0,6,7.5,7.18,11.49S77.41,279.13,77.41,279.13Z" transform="translate(7.65 14.02)"/><path class="cls-28" d="M57.76,238.48s-2.25,10.6.67,18.93" transform="translate(7.65 14.02)"/><path class="cls-28" d="M70.85,241.08a66.38,66.38,0,0,1-2.73,16.33" transform="translate(7.65 14.02)"/><path class="cls-22" d="M67.6,249.58c2.53,1,6-3.08,4.44-8-1.75-5.4-8.78-8.13-12.38-6.68s-2.87,6.27-2.87,6.27S58.38,245.9,67.6,249.58Z" transform="translate(7.65 14.02)"/><path class="cls-23" d="M61.62,244.48a11.27,11.27,0,0,1-1.08-.74l.06-.1a11.84,11.84,0,0,0,1.2.46,12.1,12.1,0,0,0,1.84.45,1.7,1.7,0,0,1-.15-.22,4.5,4.5,0,0,1-.24-1,8.51,8.51,0,0,1,0-2.75h.12s.06.33.2.8a12.8,12.8,0,0,0,.6,1.68c.13.28.32.53.45.77a4.06,4.06,0,0,1,.26.7.69.69,0,0,1,0,.1c.31,0,.62-.08.89-.13s.76-.17,1.08-.28c.15-.07.31-.12.45-.17l.35-.17.35-.16.09.07a2.19,2.19,0,0,1-.13.37,1.74,1.74,0,0,1-.2.42c-.11.13-.24.29-.4.45a2.75,2.75,0,0,1-.6.41,3,3,0,0,1-.76.28,4.94,4.94,0,0,1-1.67-.11A8.51,8.51,0,0,1,61.62,244.48Z" transform="translate(7.65 14.02)"/><path class="cls-23" d="M56.88,241.16a7.13,7.13,0,0,1,0-1.42,5.55,5.55,0,0,1,1.27-3.34,4.11,4.11,0,0,1,2-1.19,5.21,5.21,0,0,1,1.27-.19,7.74,7.74,0,0,1,1.35.07A11.58,11.58,0,0,1,68,237.4a9.86,9.86,0,0,1,2,2.11,9.31,9.31,0,0,1,1.16,2.41l.19.71c.06.23.07.4.12.6a5.79,5.79,0,0,1,.07.6,3,3,0,0,1,0,.6,5.77,5.77,0,0,1-.41,2.16,5,5,0,0,1-2.23,2.5,3.59,3.59,0,0,1-1,.33l-.36.07,0,.17.39.07a3.24,3.24,0,0,0,1.14,0,4.37,4.37,0,0,0,1.66-.71,5.52,5.52,0,0,0,1.64-1.74,6.24,6.24,0,0,0,.87-2.71,6.35,6.35,0,0,0,0-1.57c0-.27-.07-.57-.13-.81l-.19-.71a9.18,9.18,0,0,0-1.62-2.94,12,12,0,0,0-2.48-2.25,12.6,12.6,0,0,0-6-2.19,8.79,8.79,0,0,0-1.54,0,5.54,5.54,0,0,0-1.44.33,4.8,4.8,0,0,0-2.2,1.59,6.05,6.05,0,0,0-1.09,3.73,7,7,0,0,0,.14,1.46Z" transform="translate(7.65 14.02)"/><path class="cls-29" d="M58.13,265.9s-.56.81-1.5,2a44.09,44.09,0,0,1-3.71,3.95c-.71.68-1.44,1.36-2.17,1.93a15.63,15.63,0,0,1-2.15,1.36,11.72,11.72,0,0,1-1.64.75c-.41.15-.65.22-.65.22l0-.08s.18-.17.52-.44l.61-.47c.24-.18.49-.4.78-.62l2-1.52c.74-.53,1.52-1.1,2.28-1.71,1.51-1.22,2.92-2.57,4-3.6s1.68-1.77,1.68-1.77Z" transform="translate(7.65 14.02)"/><path class="cls-29" d="M62.88,270.72s-.53.81-1.43,1.95a37.43,37.43,0,0,1-3.57,4,25,25,0,0,1-2.12,1.92,14.28,14.28,0,0,1-2.11,1.36,11.13,11.13,0,0,1-1.61.73c-.41.16-.64.23-.64.23l0-.09s.19-.17.52-.43c.16-.14.36-.29.6-.46s.48-.41.76-.62l.91-.72c.32-.25.67-.5,1-.79.72-.52,1.48-1.1,2.22-1.71a46.32,46.32,0,0,0,3.83-3.61c1-1,1.6-1.79,1.6-1.79Z" transform="translate(7.65 14.02)"/><path class="cls-29" d="M67.62,275.53a16.41,16.41,0,0,1-1.09,1.67,23.91,23.91,0,0,1-3,3.26c-.59.54-1.18,1.08-1.79,1.54A12.69,12.69,0,0,1,60,283a8.36,8.36,0,0,1-1.36.54c-.33.11-.53.16-.53.16l0-.08s.15-.15.42-.38.66-.53,1.12-.9l.75-.57c.26-.21.55-.42.85-.63.6-.41,1.25-.83,1.87-1.31A28.69,28.69,0,0,0,66.27,277a16.45,16.45,0,0,0,1.27-1.5Z" transform="translate(7.65 14.02)"/><path class="cls-22" d="M366,486c1.67-9.48,2.93-18.64,2.93-22.06,0-5.67,1.74-49.94,1.74-49.94h34.8s-11.73,60.95-15.08,72Z" transform="translate(7.65 14.02)"/><path class="cls-22" d="M440.81,486a.5.5,0,0,0,0-.12c1.76-8.39,4.12-74,4.12-74l-33.29,4.77s4.36,43.92,5.14,49.52c.43,3.1.47,11.13.2,19.86Z" transform="translate(7.65 14.02)"/><path class="cls-30" d="M367,366s2.38,32.52,1.34,43.85S367,443.69,367,443.69s16-1.31,19.82,0,16.89,3.43,16.89,3.43l5.71-26.89,1.46,13c.26,2.32,0,13.9,0,13.9s15.62-3.81,20.36-2.9,17.07,1.59,17.07,1.59l-6.1-77.34-5.46-11.68L373.18,354Z" transform="translate(7.65 14.02)"/><path class="cls-31" d="M408.78,420.31s7.43-23.57,7.57-29.44v31.87l-6,23.63V434.7Z" transform="translate(7.65 14.02)"/><path class="cls-31" d="M384.06,368.7a13.5,13.5,0,0,1-.06,3.72,14.91,14.91,0,0,1-.33,1.79,14.5,14.5,0,0,1-.56,2c-.23.67-.53,1.35-.83,2a20.4,20.4,0,0,1-1.13,2,13.78,13.78,0,0,1-1.39,1.81c-.25.29-.5.56-.76.83l-.83.72c-.28.23-.53.48-.81.67l-.86.54-.81.5c-.27.14-.56.25-.82.36a14.36,14.36,0,0,1-1.43.56c-.45.12-.84.2-1.16.27-.64.13-1,.18-1,.18s.31-.22.86-.56c.27-.16.6-.37,1-.58s.75-.56,1.19-.86c.21-.16.44-.31.66-.49l.66-.58.69-.6.66-.7.68-.71.62-.79a16.93,16.93,0,0,0,1.21-1.67c.41-.55.71-1.19,1.08-1.76s.66-1.2.92-1.8.56-1.18.78-1.75.43-1.1.63-1.6c.37-1,.67-1.87.87-2.48S384.06,368.7,384.06,368.7Z" transform="translate(7.65 14.02)"/><path class="cls-23" d="M399.05,446.32c-.39,1.92-.78,3.86-1.18,5.79a103.15,103.15,0,0,1-11.09-2.42c-2.88-1-12.76-.48-17.39-.17.07-1.93.14-3.95.21-6,4.71-.31,14.34-.79,17.18.19A115.46,115.46,0,0,0,399.05,446.32Z" transform="translate(7.65 14.02)"/><path class="cls-23" d="M443.57,445.37c-.09,2-.19,4-.28,6-4-.28-9.32-.73-12.09-1.26-3.12-.6-10.93.84-15.92,1.89h0c-.2-1.88-.4-3.86-.61-5.87,4.94-1.06,13.29-2.64,16.54-2C434,444.63,439.57,445.09,443.57,445.37Z" transform="translate(7.65 14.02)"/><path class="cls-23" d="M456.31,301.65s2.36,18.74,1.41,23.52a15.35,15.35,0,0,1-7.21,9.75l-1.26-31.11Z" transform="translate(7.65 14.02)"/><path class="cls-22" d="M358.12,400.67c-2.35,2.66-9,2.36-10.85,2.1s-3.94-.41-6-6.45-1.59-7.53-.51-9a5.51,5.51,0,0,1,3.43-1.77,17.88,17.88,0,0,1,1.64-9.08c-3.31-24.5-5.62-45.33-5-63.93.08-2.32.25-5.18.45-8,.29.17,7.18,3.89,20.54,3l-2.82,9.2a165,165,0,0,1,.71,17.61c-.2,8.39-2.76,37.88-1.79,41s3.84,10.35,4.76,13S360.47,398,358.12,400.67Z" transform="translate(7.65 14.02)"/><path class="cls-20" d="M442.91,333.4s-3.84,11.82-3.23,13.05,5,7.68,5.28,8.55-3.74,3.27-3.74,3.27l1.17,8.09s-27-4.74-34.64-5-10.92,2.72-19.45,4.16-22.39.75-22.39.75,1-6,1.23-7.58a14.16,14.16,0,0,1,1.77-4.09s-3.07-1.71-3.62-3.21,3.14-8.26,3.14-8.26c-1.23-10.13-5.28-39.73-5.28-39.73l-1.27,4.11c-13.37.93-20.26-2.8-20.55-3,.18-2.52.39-5,.62-6.88,2.46-20.89,8.39-37.07,16.38-41.78,7.29-4.3,27-9.1,31.43-11.08,0,0,14.74,16.89,25.09,17.85,7.92.74,6.69-12.16,6.69-12.16,4.39,1.26,14.75,2.93,14.75,2.93s11,7.85,14.13,12.84,5.9,35.39,5.9,35.39l-7.06,2.15Z" transform="translate(7.65 14.02)"/><path class="cls-21" d="M375.73,273.91a16.32,16.32,0,0,1-6.14,12.28l-6.45,17.21L366.2,326s1-14.78,2.73-17.75,3.5-18.25,3.5-18.25S377.68,279.44,375.73,273.91Z" transform="translate(7.65 14.02)"/><path class="cls-21" d="M370.51,270.22s1.66,9.09-.92,16a19,19,0,0,0,4.06-4.85S371.89,274.36,370.51,270.22Z" transform="translate(7.65 14.02)"/><path class="cls-21" d="M440.76,340.53l-18.4,2.94,17.32,3S439.39,345.21,440.76,340.53Z" transform="translate(7.65 14.02)"/><path class="cls-21" d="M368.91,354.59s16.31,1.71,25.87,0a45.45,45.45,0,0,1,25.92,3.35s-11.93-3.76-19.84-2.73-20.14,3.68-33.55,2.73A8.89,8.89,0,0,1,368.91,354.59Z" transform="translate(7.65 14.02)"/><path class="cls-21" d="M374.81,337.08s1.73.34,4.25.92c1.26.28,2.73.61,4.3,1s3.23.76,4.91,1.1c.83.2,1.67.39,2.49.55l2.42.52,4.31.88c.63.12,1.22.25,1.73.36s1,.19,1.35.26c.74.16,1.17.27,1.17.27s-.43.06-1.2.13a25.26,25.26,0,0,1-3.17.12c-.66,0-1.37,0-2.12-.07s-1.54-.09-2.35-.21-1.66-.19-2.5-.36-1.71-.31-2.57-.5-1.69-.41-2.52-.63-1.64-.49-2.42-.73a42.88,42.88,0,0,1-4.19-1.59A27.46,27.46,0,0,1,374.81,337.08Z" transform="translate(7.65 14.02)"/><path class="cls-23" d="M344.2,385.52A75.52,75.52,0,0,0,346.6,396a30.9,30.9,0,0,1-4.44-9.81A6.64,6.64,0,0,1,344.2,385.52Z" transform="translate(7.65 14.02)"/><path class="cls-22" d="M414.85,262.65c-10.35-1-25.09-17.85-25.09-17.85a2.79,2.79,0,0,0,.83-.49c1.33-1.54,3.25-8.95,3.25-8.95l25.52,8.37s-.35,4.78.27,5.94a4.28,4.28,0,0,0,1.91.82S422.77,263.39,414.85,262.65Z" transform="translate(7.65 14.02)"/><path class="cls-23" d="M420.61,250.19a22.71,22.71,0,0,1-13.08-.39,28,28,0,0,1-14.33-12.16c.39-1.31.64-2.28.64-2.28,2.89,4.18,7.42,7.75,14.1,10.18a27.44,27.44,0,0,0,11.33,1.52,7.22,7.22,0,0,0,.36,2.61A2.07,2.07,0,0,0,420.61,250.19Z" transform="translate(7.65 14.02)"/><path class="cls-22" d="M389.75,224.47c1.12,8.66,6.17,16.7,18.19,21.07s24.93-1,28.14-6.11,3.41-13.92,7.23-17.61a25.57,25.57,0,0,0,5.64-9.07l-6.1-16.27-24.67-7.83-26.17,31Z" transform="translate(7.65 14.02)"/><path class="cls-25" d="M423.75,209.64a9.09,9.09,0,0,0,1.06.72,10.83,10.83,0,0,0,2.51,1.09c.47.14,1,.15,1.4.25a3.74,3.74,0,0,1,.62.18l.57.2c.35.15.65.27.88.39a2.35,2.35,0,0,1,.35.21h0a.09.09,0,0,1,0,.13l0,0a2.14,2.14,0,0,1-.36.2,3.12,3.12,0,0,1-1,.31,3.87,3.87,0,0,1-.69,0,3.27,3.27,0,0,1-.75-.09,3.54,3.54,0,0,1-.76-.3c-.25-.13-.51-.23-.75-.38a9.27,9.27,0,0,1-2.38-1.82,5.83,5.83,0,0,1-.83-1.06.09.09,0,0,1,0-.11A.09.09,0,0,1,423.75,209.64Z" transform="translate(7.65 14.02)"/><path class="cls-25" d="M421.25,215.47a2.46,2.46,0,0,1,.12-.42,2.15,2.15,0,0,1,.81-.93,3.13,3.13,0,0,1,1.7-.5,4.19,4.19,0,0,1,2,.46,4.45,4.45,0,0,1,.43.26,2.88,2.88,0,0,1,.43.33,3.63,3.63,0,0,1,.66.75,3,3,0,0,1,.58,1.68,2,2,0,0,1-.29,1.19,2.07,2.07,0,0,1-.28.35,2.08,2.08,0,0,0,0-.42,2.46,2.46,0,0,0-.22-1,3.46,3.46,0,0,0-.75-1.08,4.35,4.35,0,0,0-.56-.47,2.61,2.61,0,0,0-.3-.2,3,3,0,0,0-.34-.2,4.77,4.77,0,0,0-1.42-.48,3.58,3.58,0,0,0-1.31,0,2.68,2.68,0,0,0-.91.38A3.3,3.3,0,0,0,421.25,215.47Z" transform="translate(7.65 14.02)"/><path class="cls-25" d="M444.61,221.17a6.55,6.55,0,0,1-1.33-.18,9.14,9.14,0,0,1-2.77-1.16c-.25-.13-.47-.3-.71-.45a3.9,3.9,0,0,1-.63-.51,3,3,0,0,1-.46-.61,3.44,3.44,0,0,1-.3-.61,3.48,3.48,0,0,1-.24-1,2.17,2.17,0,0,1,0-.41.1.1,0,0,1,.1-.09h0a3.64,3.64,0,0,1,.35.21c.22.13.47.33.78.56l.46.39a6.31,6.31,0,0,1,.47.44c.29.33.56.75.91,1.09a10.82,10.82,0,0,0,2.2,1.63,9.68,9.68,0,0,0,1.15.55.08.08,0,0,1,.05.11A.08.08,0,0,1,444.61,221.17Z" transform="translate(7.65 14.02)"/><path class="cls-25" d="M440.84,226.1a2.79,2.79,0,0,0,.06-.42,2.64,2.64,0,0,0-.13-1,3.54,3.54,0,0,0-.64-1.14,4.93,4.93,0,0,0-1.13-1c-.07,0-.26-.16-.35-.2s-.2-.11-.32-.16a4.72,4.72,0,0,0-.69-.24,3.55,3.55,0,0,0-1.31-.11,2.75,2.75,0,0,0-.94.29,3.35,3.35,0,0,0-.36.23,1.85,1.85,0,0,1,.16-.41,2,2,0,0,1,.89-.85,3,3,0,0,1,1.74-.34,3.8,3.8,0,0,1,1,.2,4,4,0,0,1,.5.2c.19.09.25.14.44.24a4.18,4.18,0,0,1,1.39,1.48,3.13,3.13,0,0,1,.42,1.72,1.94,1.94,0,0,1-.71,1.48Z" transform="translate(7.65 14.02)"/><path class="cls-25" d="M405.38,212.89s1.14.66,2.51-.7,4.77-6.61,6.28-7.57,7.71-3.21,10.3-6.42c0,0,10.67,10.9,21.64,14,10.55,3,18-4.74,17.27-7.19s-7.06-3.08-11.26-10-15.67-26.62-35.84-17a25.44,25.44,0,0,0-13.72,7.17c-6.65,6.45-13.92,21.2-13.31,39.42a7.59,7.59,0,0,0,4.51-2.45C396.11,219.74,401.34,212,405.38,212.89Z" transform="translate(7.65 14.02)"/><path class="cls-27" d="M439.54,230.44c-1.34,4-1.35,5.74-3.42,9-3.21,5-16.13,10.48-28.14,6.11a32.38,32.38,0,0,1-9.27-5c-2.81-8.35,1.54-18.19,1.54-18.19,7.34-1.1,10.86-3.64,10.86-3.64s6.75,4.05,10.66,5.11c4.8,1.3,6.11,0,9.52,1.42C434.91,226.64,433.64,229.05,439.54,230.44Z" transform="translate(7.65 14.02)"/><path class="cls-29" d="M415.6,224.55s.3.22.84.58c.27.17.6.38,1,.61s.83.46,1.31.73,1,.54,1.58.81,1.17.54,1.8.83,1.29.52,1.95.81,1.35.52,2.05.75,1.38.49,2.07.69,1.36.43,2,.61l1.91.51,1.74.42c1.07.28,2,.46,2.61.6l1,.23s-.37,0-1,0-1.58-.05-2.68-.22c-.56-.08-1.16-.15-1.79-.26l-2-.39c-.68-.15-1.38-.34-2.09-.53s-1.41-.45-2.13-.67-1.39-.54-2.08-.81-1.33-.59-2-.91a28.55,28.55,0,0,1-3.3-1.94,23.42,23.42,0,0,1-2.12-1.68A8.28,8.28,0,0,1,415.6,224.55Z" transform="translate(7.65 14.02)"/><path class="cls-29" d="M411.06,229.64l.84.57c.27.17.6.39,1,.61s.84.46,1.31.73,1,.54,1.59.81,1.17.54,1.79.83,1.29.52,1.95.81,1.36.52,2.05.76,1.38.49,2.07.68,1.37.43,2,.61l1.92.52,1.73.41c1.07.28,2,.46,2.61.6s1,.24,1,.24l-1,0c-.65-.05-1.59-.05-2.69-.22-.55-.08-1.16-.14-1.79-.25l-2-.4c-.69-.15-1.39-.34-2.09-.53s-1.42-.45-2.13-.67-1.4-.54-2.08-.8-1.34-.59-2-.92A27.91,27.91,0,0,1,413.9,232a21.77,21.77,0,0,1-2.12-1.68A9.42,9.42,0,0,1,411.06,229.64Z" transform="translate(7.65 14.02)"/><path class="cls-29" d="M407.66,236.8s1,.6,2.66,1.37c.81.38,1.75.81,2.78,1.24.51.22,1,.42,1.59.63s1.1.41,1.66.61c1.11.4,2.25.74,3.32,1.06s2.07.57,2.94.77c.44.09.83.22,1.19.29l.93.2.8.2s-.3,0-.83,0-1.28,0-2.18-.12c-.45-.05-.95-.09-1.46-.19s-1.06-.17-1.61-.3-1.13-.25-1.7-.42-1.16-.34-1.73-.55a29.62,29.62,0,0,1-3.28-1.38,24,24,0,0,1-2.7-1.55c-.76-.49-1.35-1-1.76-1.3S407.66,236.8,407.66,236.8Z" transform="translate(7.65 14.02)"/><path class="cls-28" d="M406.3,202.73s4.13,4.92,5.63,17.67" transform="translate(7.65 14.02)"/><path class="cls-28" d="M397,213.76a74,74,0,0,0,4.74,12.31" transform="translate(7.65 14.02)"/><path class="cls-22" d="M403.17,215.89c-1.6,1.91-6.18.16-7.05-4.48-.94-5.1,3.52-10.36,7-10.76s5,3.79,5,3.79S409,208.92,403.17,215.89Z" transform="translate(7.65 14.02)"/><path class="cls-23" d="M405.75,209.2a9.33,9.33,0,0,0,.55-1.07l-.1,0a9.38,9.38,0,0,1-.75.89,12.84,12.84,0,0,1-1.29,1.16.93.93,0,0,0,0-.23,3.92,3.92,0,0,0-.25-1,7.8,7.8,0,0,0-1.19-2.22l-.1.05s.09.3.19.74a12.84,12.84,0,0,1,.24,1.61,7.06,7.06,0,0,1,0,.81,4.48,4.48,0,0,0,.09.68s0,.06,0,.1a7.27,7.27,0,0,1-.78.27,9.64,9.64,0,0,1-1,.26l-.44.05-.36,0a2.73,2.73,0,0,0-.35,0l0,.1a1.67,1.67,0,0,0,.26.24,2.29,2.29,0,0,0,.35.25c.15.06.32.13.52.19a2.67,2.67,0,0,0,.66.07,3.15,3.15,0,0,0,.73-.11,4.54,4.54,0,0,0,1.3-.82A7.58,7.58,0,0,0,405.75,209.2Z" transform="translate(7.65 14.02)"/><path class="cls-23" d="M408.12,204.47a6.56,6.56,0,0,0-.6-1.15,5.12,5.12,0,0,0-2.48-2.14,3.72,3.72,0,0,0-2.1-.09,4.77,4.77,0,0,0-1.1.39,8,8,0,0,0-1.06.65,10.58,10.58,0,0,0-3.25,4.16,9.06,9.06,0,0,0-.67,2.56,8.47,8.47,0,0,0,.11,2.44l.15.65c.06.21.12.36.18.54a2.69,2.69,0,0,0,.2.51,2.78,2.78,0,0,0,.24.49A5,5,0,0,0,399,215a4.58,4.58,0,0,0,2.88,1.05,3.55,3.55,0,0,0,.91-.15l.32-.11.09.14-.28.23a3.29,3.29,0,0,1-.94.45,3.8,3.8,0,0,1-1.64.16,5.28,5.28,0,0,1-2.08-.68,5.87,5.87,0,0,1-1.88-1.81,6,6,0,0,1-.67-1.26c-.08-.23-.19-.49-.25-.71l-.15-.65a8.33,8.33,0,0,1,0-3.07,10.91,10.91,0,0,1,1-2.89,11.52,11.52,0,0,1,3.9-4.38,7.72,7.72,0,0,1,1.24-.65,4.64,4.64,0,0,1,1.31-.37,4.45,4.45,0,0,1,2.46.32,5.53,5.53,0,0,1,2.5,2.53,7.26,7.26,0,0,1,.52,1.23Z" transform="translate(7.65 14.02)"/><path class="cls-22" d="M424.06,258.34s-3.22-.87-3.32-3.48-.11-8.09,1.66-11.26,5.86-5.74,9.55-5.53,9,3.89,9.73,8.34,1,11.73-.69,14.73-2.39,9.9,3.76,25.05,12.07,26.42,11.56,35.23-3,13.41-8,14.13S434.71,325,432.05,312.71s-3.38-46.48-3.38-46.48A14.84,14.84,0,0,1,424.06,258.34Z" transform="translate(7.65 14.02)"/><path class="cls-23" d="M433.68,254.17c-1-.08-2-.16-3-.19a23.52,23.52,0,0,0-2.91,0l.56-.59a7.77,7.77,0,0,1,0,1,7.45,7.45,0,0,1-.08.94,4,4,0,0,1-.23.95,3.48,3.48,0,0,1-.46.9,4.32,4.32,0,0,1-.73.75,2.2,2.2,0,0,1-.44.28,1.63,1.63,0,0,1-.47.2,4.34,4.34,0,0,1-.48.14l-.49,0a3.56,3.56,0,0,1-.94-.14v-.15c.27-.17.54-.25.77-.41a3.74,3.74,0,0,0,.63-.45,1.23,1.23,0,0,0,.26-.25,1.86,1.86,0,0,0,.23-.26,4.45,4.45,0,0,0,.38-.58,10.39,10.39,0,0,0,.6-1.34,4,4,0,0,0,.21-.75,5.61,5.61,0,0,0,.1-.77l0-.63.52,0a21,21,0,0,1,3,.42c1,.22,1.95.45,2.9.74Z" transform="translate(7.65 14.02)"/><path class="cls-22" d="M295.49,486c0-1.82-.1-3.39-.23-4.66-1.61-14.82-2.5-40-1.75-46.48.47-4.13,2.24-26.12,3.47-41.73a16.6,16.6,0,0,0-14.66-17.81L261,372.85s4.8,76.12,6.84,85.8c.66,3.13,2.2,14,4,27.33Z" transform="translate(7.65 14.02)"/><path class="cls-22" d="M218.56,486c0-1.82.1-3.39.23-4.66,1.61-14.82,2.5-40,1.75-46.48-.45-4-2.11-24.54-3.34-40a18.4,18.4,0,0,1,16.25-19.73l19.65-2.26s-4.8,76.12-6.84,85.8c-.66,3.13-2.2,14-4,27.33Z" transform="translate(7.65 14.02)"/><path class="cls-32" d="M299.91,469.7S286.12,474,254.76,474c-25.8,0-42-4.28-42-4.28s-5.32-48.49-3.9-72c1.93-32.33,13.2-43.53,13.2-43.53s11.49,6.38,34.31,6.38,34.31-6.38,34.31-6.38,11.27,11.2,13.2,43.53C305.24,421.21,299.91,469.7,299.91,469.7Z" transform="translate(7.65 14.02)"/><path class="cls-23" d="M294.84,477.11a174.48,174.48,0,0,1-23.91,2.7c-.29-2.18-.58-4.26-.85-6.2A179.66,179.66,0,0,0,294.34,471C294.5,473.09,294.66,475.15,294.84,477.11Z" transform="translate(7.65 14.02)"/><path class="cls-23" d="M243.94,473.73c-.27,1.94-.56,4-.86,6.2a192.41,192.41,0,0,1-23.91-2.64c.18-2,.35-4,.5-6.16A197.53,197.53,0,0,0,243.94,473.73Z" transform="translate(7.65 14.02)"/><polygon class="cls-33" points="327.55 351.91 335.86 376.93 325.73 377.61 318.4 356.96 327.55 351.91"/><path class="cls-34" d="M242.79,165.68a24.49,24.49,0,0,1,20.45-.68c11.59,4.57,19.48,19.48,19.87,37.92s-1.94,31.42,0,36a8.25,8.25,0,0,0,4.44,2.81c3.11.87,5.55,4.14,5.06,6.77s-3.7,4.38-5.94,4.28-61.09,4.32-63.55-2,2.27-7.66,2.82-12.08-7.07-38.85-5.84-52.89C221.62,168.21,237.79,161.68,242.79,165.68Z" transform="translate(7.65 14.02)"/><line class="cls-35" x1="360" y1="303.5" x2="360" y2="303.5"/><path class="cls-22" d="M269.28,242.77c-3.26,7.36-14.26,17.8-19.68,17.48-4.92-.29-7.49-12.5-8-15.17,1.43-1,2.83-2.1,3.1-3a30.49,30.49,0,0,0,0-5l23.37-6s-.12,9.75.31,10.72A3.26,3.26,0,0,0,269.28,242.77Z" transform="translate(7.65 14.02)"/><path class="cls-23" d="M268,236.33a30.55,30.55,0,0,1-17.88,6.57,26.09,26.09,0,0,1-5.58-.65,1.72,1.72,0,0,0,.1-.26,30.49,30.49,0,0,0,0-5h0a26.19,26.19,0,0,0,5.46.62A30.48,30.48,0,0,0,268.05,231S268,233.66,268,236.33Z" transform="translate(7.65 14.02)"/><path class="cls-20" d="M270.11,345a123.58,123.58,0,0,1-1,16.14,86.62,86.62,0,0,1-25,0c1.72-11.65,4.18-31.05,3-40.16-.92-6.84-6.88-21.56-7.54-29.22S244,264.93,244,264.93c-6-7.69-5.75-17.82-5.75-17.82a37.3,37.3,0,0,0,3.41-2c.5,2.67,3.07,14.88,8,15.17,5.42.32,16.42-10.12,19.68-17.48a14.75,14.75,0,0,0,2,1.31s-.38,5.65-6.52,11.11a116.74,116.74,0,0,0-9.93,9.84s9.8,26.72,10.84,43.34S269.86,335.38,270.11,345Z" transform="translate(7.65 14.02)"/><path class="cls-30" d="M289.93,330.84A109.24,109.24,0,0,0,296.88,341c4.8,5.59,12.86,9,17.66,5.59s7.73-12.66,6.56-25.52S310.58,269,308.7,263.37,298,251.88,288.37,250.51a44.75,44.75,0,0,1-17-6.43s-.39,5.65-6.53,11.11a119.6,119.6,0,0,0-9.93,9.83s9.8,26.72,10.84,43.35,4.16,27,4.42,36.62-2,24-2,24a47.91,47.91,0,0,0,13.35,2.14c6.91,0,12.85-2.34,17.53-1.95,0,0-9.45-16.55-9.45-24.54s.39-13.76.39-13.76" transform="translate(7.65 14.02)"/><path class="cls-31" d="M291.68,266s-4.67,6.62-2.85,14.55,7.24,20.92,10.31,33.58a20.88,20.88,0,0,1-7.46-8.11s-5.52-20.28-4.89-28.15A21,21,0,0,1,291.68,266Z" transform="translate(7.65 14.02)"/><path class="cls-21" d="M270.29,331.65a8.54,8.54,0,0,1-.06,1.43,16.12,16.12,0,0,1-.24,1.63,17.52,17.52,0,0,1-.52,2.08c-.12.37-.23.77-.37,1.17l-.49,1.22a27.59,27.59,0,0,1-1.27,2.56l-.81,1.28a9.14,9.14,0,0,1-.91,1.26l-1,1.24c-.36.39-.74.77-1.12,1.15a20.65,20.65,0,0,1-2.4,2.09l-.62.48-.67.41-1.3.78a7,7,0,0,1-1.31.66l-1.29.55a13.3,13.3,0,0,1-2.43.77,12.64,12.64,0,0,1-2.1.45c-.63.08-1.19.11-1.64.15-.9.06-1.42.06-1.42.06s.47-.26,1.28-.64c.4-.19.88-.43,1.44-.67a5.08,5.08,0,0,0,.87-.44l.94-.52a18.49,18.49,0,0,0,2.06-1.18l1.09-.69.56-.35c.18-.12.36-.27.54-.4.7-.58,1.51-1,2.19-1.7a27.27,27.27,0,0,0,2.1-1.93c.34-.34.69-.67,1-1l.93-1.07c.66-.69,1.17-1.48,1.76-2.17s1.06-1.45,1.5-2.17.91-1.37,1.28-2,.7-1.24,1-1.77.55-1,.74-1.41C270.07,332.13,270.29,331.65,270.29,331.65Z" transform="translate(7.65 14.02)"/><path class="cls-31" d="M300.85,315.71s6.48.25,11.16,3.63c0,0-6.25-6.45-13.58-8l.71,2.79Z" transform="translate(7.65 14.02)"/><path class="cls-30" d="M238.21,247.1s-.29,10.13,5.75,17.83c0,0-5,19.15-4.35,26.81s6.61,22.38,7.53,29.22c1.82,13.51-4.46,49.61-4.46,49.61s-9.92.42-15.67-1.82-16.65-.68-16.65-.68,10.55-25.16,13.28-34,3-13-3.51-26.49-.17-53.44-.17-53.44Z" transform="translate(7.65 14.02)"/><path class="cls-21" d="M281.58,377.7s-.67,2,.75,6.25S295.68,419.3,299.18,422s11.4.2,13.74-1.07,25.07-14,26.68-17c1.47-2.73-3.83-18.15-8.05-25.44l-41.71-6.25Z" transform="translate(7.65 14.02)"/><path class="cls-20" d="M288.11,373.69s4.26-1.23,6.16,2.52,3.65,15,11.34,14.07,27.32-10.76,27.71-14-1.12-7.16-5.11-13.39-6.92-5.55-9.64-4.48S288.08,368.76,288.11,373.69Z" transform="translate(7.65 14.02)"/><path class="cls-20" d="M298.55,388.82s.86,1.85,2.14,4.63,2.93,6.51,4.6,10.24c.82,1.86,1.73,3.69,2.46,5.46s1.28,3.47,1.73,4.93a41.4,41.4,0,0,1,1.25,5l-.18.08a43.2,43.2,0,0,1-2.56-4.47c-.69-1.37-1.46-3-2.17-4.75s-1.32-3.73-2-5.65c-1.38-3.84-2.79-7.66-3.78-10.56l-1.67-4.82Z" transform="translate(7.65 14.02)"/><path class="cls-33" d="M276.94,247.1s-14.65,17.7-18,37.31c-4.58,27,23.18,94.67,23.18,94.67s3.9.88,9.54-1.75c0,0-22.32-60.43-23.5-81.16C266.82,272.23,286,250.09,286,250.09h0a1.62,1.62,0,0,0-.83-2.45l-5.85-1.95a1.62,1.62,0,0,0-1.86.64Z" transform="translate(7.65 14.02)"/><path class="cls-32" d="M273.57,308.66c-1.95-3.08-2.68-8.8-.7-13.54,2.09-5,8.56-5.45,8.56-5.45l1.09,13.69Z" transform="translate(7.65 14.02)"/><path class="cls-22" d="M272.42,273s4.17,3.85,3.34,8.23,5.1,13.21,5.1,13.21l-.8,9.57-5.47,3.18s-3-5.29-5-6.3a63.09,63.09,0,0,1-9.59-5.44c-3.55-2.63-4.92-4.43-5.36-9.1s-.87-9.11.69-11.4,4.48-6.38,6-6.43a8,8,0,0,1,2.49.25s-2,4.88-2,5.72,2.1,6.58,7.62,7.84C269.47,282.34,270.7,277.59,272.42,273Z" transform="translate(7.65 14.02)"/><path class="cls-31" d="M302.14,316.81c15.65,13,17.21,26.36,12.4,29.74s-12.86,0-17.66-5.59-15.52-25.48-23.31-32.3c0,0,8.37-11.2,7.86-19C281.43,289.67,288.22,305.26,302.14,316.81Z" transform="translate(7.65 14.02)"/><path class="cls-22" d="M237.24,181.55s3.41.3,6,6.53,15.29,14.71,29.51,8.57c0,0,2.82,21.43-.88,29.71-2.74,6.13-13.54,11.3-21.72,11.3s-21.59-5-22.58-16.46-1.67-20.95-1.67-20.95,6.62-1.85,6.72-7.3S235.64,181.55,237.24,181.55Z" transform="translate(7.65 14.02)"/><path class="cls-27" d="M265.48,232.93h0a30.73,30.73,0,0,1-15.31,4.71c-8.18,0-21.59-5-22.58-16.46-.19-2.21-.37-4.34-.53-6.34a34.23,34.23,0,0,0,6.6-.23c2.78-.49,5-2.54,7.4-2.63s6,2.42,8.8,2.58c4.4.26,11.32-1.41,11.32-1.41s1.16,6,6.33,6.57C267.5,219.73,267.82,228.9,265.48,232.93Z" transform="translate(7.65 14.02)"/><path class="cls-29" d="M231.72,221.32l3.93,0c1.17,0,2.54,0,4-.06s3-.06,4.59-.12,3.12-.12,4.59-.17,2.83-.11,4-.2l2.84-.14c.69,0,1.08,0,1.08,0l-1.06.23c-.67.13-1.63.36-2.8.51s-2.53.37-4,.52c-.74,0-1.5.14-2.27.18l-2.35.11c-1.57,0-3.15.06-4.62,0s-2.85-.16-4-.26-2.15-.26-2.83-.35S231.72,221.32,231.72,221.32Z" transform="translate(7.65 14.02)"/><path class="cls-29" d="M234,226.29l1,.09c.64.07,1.55.1,2.64.15s2.36.06,3.72.05,2.8,0,4.25-.12,2.89-.16,4.25-.26l2-.16,1.75-.17c1.09-.09,2-.19,2.64-.25l1-.08-1,.26c-.62.15-1.5.42-2.58.62s-2.35.44-3.71.63-2.83.3-4.3.38-2.93.07-4.31,0-2.66-.2-3.75-.35-2-.37-2.62-.51S234,226.29,234,226.29Z" transform="translate(7.65 14.02)"/><path class="cls-29" d="M236.36,231.25s1.33.21,3.33.34c1,.06,2.16.13,3.4.15.62,0,1.26,0,1.92,0s1.31,0,2-.05c1.33,0,2.65-.15,3.89-.26l1.78-.2c.57-.06,1.1-.15,1.6-.22s.95-.12,1.35-.19l1-.18.92-.15s-.32.13-.87.32-1.35.48-2.34.72c-.49.13-1,.28-1.59.38s-1.16.24-1.79.32-1.28.2-1.94.24-1.34.12-2,.14a37.14,37.14,0,0,1-4-.07c-.63,0-1.24-.13-1.82-.19s-1.11-.15-1.61-.25c-1-.18-1.81-.42-2.38-.57S236.36,231.25,236.36,231.25Z" transform="translate(7.65 14.02)"/><path class="cls-36" d="M241.52,168.41s-.28.66-.72,1.57-1,2.11-1.64,3.29-1.2,2.37-1.66,3.26c-.23.45-.44.83-.59,1.1s-.26.42-.26.42,0-.18,0-.49a6.87,6.87,0,0,1,.06-1.29,5.45,5.45,0,0,1,.14-.84,8.83,8.83,0,0,1,.23-.92c.11-.32.2-.65.34-1a10.45,10.45,0,0,1,.44-1,11.29,11.29,0,0,1,2.28-3.11A6.47,6.47,0,0,1,241.52,168.41Z" transform="translate(7.65 14.02)"/><path class="cls-28" d="M272.6,196.23s-9,2.53-12.17,18.67" transform="translate(7.65 14.02)"/><path class="cls-28" d="M274.45,211.48a18.15,18.15,0,0,1-8,9.09" transform="translate(7.65 14.02)"/><path class="cls-22" d="M269.93,210.46c.72,2.62,6.08,2.95,9-1.28,3.26-4.65,1.19-11.91-2.14-13.9s-6.73,1.49-6.73,1.49S267.29,200.89,269.93,210.46Z" transform="translate(7.65 14.02)"/><path class="cls-23" d="M270.84,202.62a10.42,10.42,0,0,1-.06-1.31h.12a10.68,10.68,0,0,0,.35,1.23,11.75,11.75,0,0,0,.76,1.73,1.13,1.13,0,0,1,.08-.24,4.86,4.86,0,0,1,.68-.82,8.34,8.34,0,0,1,2.19-1.67l.07.09s-.22.25-.52.65a14.31,14.31,0,0,0-1,1.49c-.15.28-.23.58-.34.83a5.57,5.57,0,0,1-.4.62.61.61,0,0,1-.07.1c.22.23.45.44.65.62a9.53,9.53,0,0,0,.87.7,4.1,4.1,0,0,1,.41.26l.35.17c.21.1.34.18.34.18v.12a2.3,2.3,0,0,1-.37.12,2.5,2.5,0,0,1-.46.09c-.17,0-.38,0-.6,0a3.29,3.29,0,0,1-.69-.23,3.58,3.58,0,0,1-.68-.44,5,5,0,0,1-.93-1.4A8.58,8.58,0,0,1,270.84,202.62Z" transform="translate(7.65 14.02)"/><path class="cls-23" d="M270.16,196.83a7.26,7.26,0,0,1,1.12-.87,5.63,5.63,0,0,1,3.44-1,4,4,0,0,1,2.13.85,5.2,5.2,0,0,1,.92.89,8.26,8.26,0,0,1,.76,1.13,11.36,11.36,0,0,1,1.35,5.61,9.69,9.69,0,0,1-.48,2.86,9.34,9.34,0,0,1-1.22,2.38l-.45.58c-.14.18-.28.3-.41.45a4.29,4.29,0,0,1-.43.42,4,4,0,0,1-.46.38,5.69,5.69,0,0,1-2,1,5,5,0,0,1-3.34-.26,3.55,3.55,0,0,1-.83-.56l-.28-.25-.15.1.18.35a3.5,3.5,0,0,0,.73.88,4.42,4.42,0,0,0,1.56.9,5.8,5.8,0,0,0,2.38.26,6.42,6.42,0,0,0,2.69-1,6.17,6.17,0,0,0,1.24-1,7.8,7.8,0,0,0,.57-.59l.45-.57a9.26,9.26,0,0,0,1.36-3.07,11.79,11.79,0,0,0,.3-3.34,12.63,12.63,0,0,0-1.89-6.13,10.27,10.27,0,0,0-.94-1.21,5.82,5.82,0,0,0-1.14-1,4.88,4.88,0,0,0-2.59-.79,6,6,0,0,0-3.64,1.39,7,7,0,0,0-1.08,1Z" transform="translate(7.65 14.02)"/><path class="cls-25" d="M256.66,197.34a6.21,6.21,0,0,1-1.29.58,8.6,8.6,0,0,1-1.41.39,9.27,9.27,0,0,1-1.7.15,8.61,8.61,0,0,1-.88,0,4,4,0,0,1-.85-.09,3.52,3.52,0,0,1-.75-.28,3.32,3.32,0,0,1-.61-.38,3.41,3.41,0,0,1-.79-.77,3,3,0,0,1-.24-.36.1.1,0,0,1,.05-.13h0a2.79,2.79,0,0,1,.44,0l.45,0c.16,0,.36,0,.56,0l.62.08c.22,0,.44.09.67.13.45.13.92.35,1.42.45a12.27,12.27,0,0,0,2.87.2,8.62,8.62,0,0,0,1.34-.16.08.08,0,0,1,.1.07A.1.1,0,0,1,256.66,197.34Z" transform="translate(7.65 14.02)"/><path class="cls-25" d="M252.34,209.76h0a3,3,0,0,0,3-3v-3a3,3,0,0,0-3-3h0a3,3,0,0,0-3,3v3A3,3,0,0,0,252.34,209.76Z" transform="translate(7.65 14.02)"/><path class="cls-25" d="M228.4,197.18a8.62,8.62,0,0,0,1.34.16,12.27,12.27,0,0,0,2.87-.2c.51-.1,1-.32,1.43-.45.23,0,.44-.11.66-.13l.63-.08c.19,0,.39,0,.55,0l.46,0a2.73,2.73,0,0,1,.43,0h0a.09.09,0,0,1,.09.11s0,0,0,0a2,2,0,0,1-.24.36,3.55,3.55,0,0,1-.78.77,3.8,3.8,0,0,1-.62.38,3.52,3.52,0,0,1-.75.28,4,4,0,0,1-.85.09,8.61,8.61,0,0,1-.88,0,9.27,9.27,0,0,1-1.7-.15,8.6,8.6,0,0,1-1.41-.39,6.27,6.27,0,0,1-1.28-.58.1.1,0,0,1,0-.12A.11.11,0,0,1,228.4,197.18Z" transform="translate(7.65 14.02)"/><path class="cls-25" d="M232.36,209.76h0a3,3,0,0,1-3-3v-3a3,3,0,0,1,3-3h0a3,3,0,0,1,3,3v3A3,3,0,0,1,232.36,209.76Z" transform="translate(7.65 14.02)"/><path class="cls-37" d="M231.64,204.92h0a1.36,1.36,0,0,1-1.29-1.16v-.49a1.36,1.36,0,0,1,1.28-1.16h0c.64,0,1.17.52.72,1.16v.49C232.8,204.4,232.28,204.92,231.64,204.92Z" transform="translate(7.65 14.02)"/><path class="cls-37" d="M251,205h0c-.65,0-1.17-.52-.6-1.16v-.49c-.57-.64,0-1.17.59-1.17h0a1.62,1.62,0,0,1,1.41,1.17v.48A1.61,1.61,0,0,1,251,205Z" transform="translate(7.65 14.02)"/><path class="cls-32" d="M229.8,272c-12.72,3.31-19.45-18.18-19.45-18.18s9.32.46,13.87,5.33S229.8,272,229.8,272Z" transform="translate(7.65 14.02)"/><path class="cls-22" d="M226.24,218.8a5,5,0,0,1,5.4,0c2.46,1.61,6.07,4.26,6.07,6,0,2.66-5.44,4.58-6.93,8.13s.06,7.89-2.6,11.85-3.58,12.53-3.64,27.19c0,0-8.63,1.6-10-3.46s-2.47-10.33-2.47-10.33,4.25-9.57,4.7-13.08c.91-7.18-2-13.47-.31-16.91C217.69,225.69,222.65,221.09,226.24,218.8Z" transform="translate(7.65 14.02)"/><path class="cls-31" d="M229.8,272s-4.09,8.57-6.55,14.94-2,20.26-5.2,28.44-7,12.17-10.71,12-9.84-5.84-9.84-14.41,3.2-12.48,5.84-21.34c4-13.35,5.95-22.11,7-37.79C210.35,253.82,217.08,275.31,229.8,272Z" transform="translate(7.65 14.02)"/><path class="cls-38" d="M-7.65,312.55s16.87-15.28,41.86-5.65,23.66,21.6,29.95,26.86,10.65,14.88,30,6.51,28.56-10.91,40.52,3.29-1.26,25.45,16,34.2,23.67-5,38.57,0,27.13,26.24,37.89,24.37,37.06-6.66,41.89-5.34,102.3,12.07,102.3,12.07-133.59-1.31-150.53,10.56-22.52,24.16-36.45,11.87-27.68-28.81-57.67-22.43-21.39,9.73-44.44,10.56-44.57-24.68-56.93-28.17-33,5.54-33,5.54Z" transform="translate(7.65 14.02)"/><path class="cls-39" d="M492.35,374.59s-.91-2.47-.91-2.48c-8.69-28.34-63.74-9-78.6,3.77-10.9,9.33-22.67,23.08-36.36,18.79-4.81-1.5-8.62-5.09-12.77-7.93-15.85-10.84-38.67-10.17-53.85,1.58-9.49,7.35-17.35,19-29.34,19.55-6.65.32-13-3.05-19.62-3.31-15.77-.62-26.46,15.19-39.71,23.75-14.73,9.51-27.75,6.49-43.64,3.94-14.1-2.26-29-.25-43.21,1.21-19.94,2.05-41.33,9.59-61.26,9.61-3.75,0-79.35,12.49-79.35,12.49s59.36,10,90.6,6.87,15.79-3.36,44.24,0,60.43,11.88,73.08,10.63-6.58.25,39.27.12S290,480,335.26,479.62s49.73-12.81,77.48-17.19,79.61,1.69,79.61,1.69V374.59Z" transform="translate(7.65 14.02)"/></g></g></g></g></svg>