<svg id="Layer_4" data-name="Layer 4" xmlns="http://www.w3.org/2000/svg" viewBox="0 0 379.91 326.47"><defs><style>.cls-1{fill:red;}.cls-2{fill:#0d0c17;}</style></defs><path class="cls-1" d="M306.89,353.29,407.56,415.1l11-17.24L330.9,342.33A36.08,36.08,0,0,1,306.89,353.29Z" transform="translate(-113.96 -125.41)"/><path class="cls-1" d="M193.45,397.52l2.46,3.84,10,14.74,98.88-62.76a36,36,0,0,1-25-10.13Z" transform="translate(-113.96 -125.41)"/><polygon class="cls-1" points="103.93 308.4 115.4 325.33 191.55 278.18 270.2 326.47 281.37 308.92 191.79 254.06 103.93 308.4"/><path d="M339.48,327.51l91.58,54.33c0,.23,0,.45,0,.68A20,20,0,1,0,443.72,364l-107.38-63.3a35.07,35.07,0,0,1,3.14,26.86Z" transform="translate(-113.96 -125.41)"/><path d="M474.31,325.8a19.55,19.55,0,0,0-6.82,1.24L377,275.14l1.16-113.55L314,125.41V283.49a36,36,0,0,1,21,15l1-134.65v-.34l20,11-.61,113,99.47,55.91a20,20,0,0,0-.11,2.06,19.56,19.56,0,1,0,19.56-19.56Z" transform="translate(-113.96 -125.41)"/><path d="M295,283.7V125.64h0v-.18l-64,36.08,1.14,113.09-91.51,52.49a19.59,19.59,0,0,0-10.52-.92,19.78,19.78,0,1,0,23.41,19.44,20.2,20.2,0,0,0-.11-2.07L254,287l-.65-112.41L274,163.29v1.8l-.95,134.59L166.94,363.09A19.49,19.49,0,0,0,156.42,362a19.73,19.73,0,1,0,23.08,19.44c0-.23,0-.44,0-.67l90.62-53.88a34.74,34.74,0,0,1-1.19-9.06A35.57,35.57,0,0,1,295,283.7Z" transform="translate(-113.96 -125.41)"/><path class="cls-2" d="M329.25,341.28l1.65,1.05a35.28,35.28,0,0,0,8.58-14.82l-1.89-1.12A33.87,33.87,0,0,1,329.25,341.28Z" transform="translate(-113.96 -125.41)"/><path class="cls-2" d="M304.83,284a33.85,33.85,0,0,1,9.17,1.27v-1.77a36.61,36.61,0,0,0-9.13-1.16A36.14,36.14,0,0,0,295,283.7v1.74A33.93,33.93,0,0,1,304.83,284Z" transform="translate(-113.96 -125.41)"/><path class="cls-2" d="M271.93,325.8l-1.84,1.1a35.28,35.28,0,0,0,9.63,16.31l1.61-1A33.77,33.77,0,0,1,271.93,325.8Z" transform="translate(-113.96 -125.41)"/><path class="cls-2" d="M304.83,351.69a33.72,33.72,0,0,1-23.5-9.5l-1.61,1a36,36,0,0,0,25,10.13l1.09-.68,1,.63a36.08,36.08,0,0,0,24-11l-1.65-1.05A33.77,33.77,0,0,1,304.83,351.69Z" transform="translate(-113.96 -125.41)"/><path class="cls-2" d="M314,283.49v1.77a33.88,33.88,0,0,1,23.59,41.13l1.89,1.12a35.07,35.07,0,0,0-3.14-26.86l-1.34-.79v-1.39A36,36,0,0,0,314,283.49Z" transform="translate(-113.96 -125.41)"/><path class="cls-2" d="M271,317.84a33.87,33.87,0,0,1,24-32.4V283.7a35.57,35.57,0,0,0-26.1,34.14,34.74,34.74,0,0,0,1.19,9.06l1.84-1.1A33.68,33.68,0,0,1,271,317.84Z" transform="translate(-113.96 -125.41)"/><path class="cls-1" d="M477.15,339.52a6.66,6.66,0,1,0,6.65,6.65A6.65,6.65,0,0,0,477.15,339.52Z" transform="translate(-113.96 -125.41)"/><path class="cls-1" d="M450.74,388.85a6.66,6.66,0,1,0-6.65-6.65A6.65,6.65,0,0,0,450.74,388.85Z" transform="translate(-113.96 -125.41)"/><path class="cls-1" d="M132.85,339a6.66,6.66,0,1,1-6.65,6.66A6.65,6.65,0,0,1,132.85,339Z" transform="translate(-113.96 -125.41)"/><path class="cls-1" d="M158.26,388.32a6.65,6.65,0,1,1,6.65-6.65A6.65,6.65,0,0,1,158.26,388.32Z" transform="translate(-113.96 -125.41)"/><path d="M327.3,321.19c3.66,0,3.92-2.66,3.08-4.27a2.94,2.94,0,0,0-1.52-1.29l-3.38-1c-2.37-.71-.54-2.9-.54-2.9l1.29-1.9c4.3-5.93-2.77-5.29-2.77-5.29l-8.76,6.12a11.49,11.49,0,0,0-1.38-1.49l7.68-6c2.27-2.88.38-4.73-1.4-5.08a3,3,0,0,0-2,.38l-2.88,2c-2,1.4-2.6-1.4-2.6-1.4l-.67-2.19c-1.94-7.07-5.86-1.15-5.86-1.15l-.71,10.6a10.46,10.46,0,0,0-1.69.28l-.46-10.32c-1-3.52-3.63-3.06-4.95-1.81a2.93,2.93,0,0,0-.83,1.81v3.52c0,2.47-2.66,1.3-2.66,1.3l-2.17-.72c-6.87-2.53-4.34,4.1-4.34,4.1l8.62,7.07a10.85,10.85,0,0,0-1.18,2.59L287,307.25c-3.29-1.63-4.71.59-4.69,2.41a2.89,2.89,0,0,0,.77,1.83l2.58,2.41c1.78,1.7-.85,2.83-.85,2.83l-2,1.1c-6.52,3.33.07,6,.07,6L294,322.25l1.7-.32q.21.46.45.9l-10.71,2.32c-3.3,1.6-2.41,4.09-1,5.18a2.87,2.87,0,0,0,1.92.51l3.48-.57c2.44-.37,1.73,2.4,1.73,2.4l-.36,2.26c-1.34,7.2,4.77,3.59,4.77,3.59l5.57-9.75.46-.92a10.06,10.06,0,0,0,1.73.48l-5.09,9.82c-.87,3.56,1.61,4.46,3.38,4a2.94,2.94,0,0,0,1.62-1.15l1.77-3.05c1.27-2.12,2.95.2,2.95.2L310,339.9c4.69,5.63,5.81-1.38,5.81-1.38l-4-10.5-.42-1a9.38,9.38,0,0,0,.91-.58l5.38,10.37c2.42,2.76,4.58,1.25,5.26-.44a2.93,2.93,0,0,0,0-2l-1.46-3.2c-1-2.26,1.86-2.3,1.86-2.3l2.27-.25c7.3-.6,2.22-5.55,2.22-5.55l-10.87-2.81-.33-.06a10.6,10.6,0,0,0,.29-1.49Z" transform="translate(-113.96 -125.41)"/><circle class="cls-1" cx="305.33" cy="317.38" r="5.17" transform="translate(-170.81 442.52) rotate(-80.78)"/> preserveAspectRatio="xMidYMid meet"</svg>