<svg xmlns="http://www.w3.org/2000/svg" viewBox="0 0 2594 1586.74"><defs><style>.cls-1{fill:#ebf3fa;}.cls-2{fill:#d2e2f9;}.cls-3{fill:#f8fcff;}.cls-4,.cls-5{fill:#aec3ff;}.cls-4{opacity:0.3;}.cls-6{fill:#7e91ed;}.cls-7{fill:#f78248;}.cls-8{fill:#4e67d1;}.cls-9{fill:#fff;}.cls-10{fill:#8f9fff;}.cls-11{fill:#163560;}.cls-12{fill:#627ddd;}.cls-13{fill:#2b478b;}.cls-14{fill:#d39479;}.cls-15{fill:#0b0755;}.cls-16{fill:#ce72a6;}.cls-17{fill:#ffb27d;}.cls-18{fill:#739af0;}.cls-19{fill:#5a8ae0;}.cls-20{fill:#1b3051;}.cls-21{fill:#ed7d2b;}.cls-22{fill:#f99746;}.cls-23{fill:#233862;}.cls-24{fill:#e8945b;}.cls-25{fill:#75ad68;}.cls-26{fill:#f77d48;}.cls-27{fill:#a8d29f;}.cls-28{fill:#2e3552;}</style></defs><g id="Layer_2" data-name="Layer 2"><g id="_лой_1" data-name="‘лой_1"><path class="cls-1" d="M186,1585.74S-137.13,1293.15,68.43,948.91,550.07,777.79,536.71,377.13,1171.65-58,1378,58.22,1583.12,314.31,2009.13,268s507.38,339.62,396.55,536.3c-157.24,279.06,436.43,233,62.35,781.42Z"/><path class="cls-2" d="M667.37,916.92s146.18,92.89,127.21,119S639.17,920.69,639.17,920.69s-163.64,63.53-201.66,113c0,0,188.39,41.9,163.58,62.56s-222.88-13.84-222.88-13.84S245.47,1180.29,297.87,1265s116.22,86.81,137,73.36,124.68-127.39,136.57-110.79-35.86,114.53-88.69,144.62c0,0,159.29,61.28,210.89-5.6s31.38-121.46,64-162.21,68.87-59,61.32-30.38-74.63,86.48-77.25,141.61-9.8,95,55.25,49,153.51-155.28,128.79-216.79q-1.6-4-3.09-7.69a31.62,31.62,0,0,1,3.09,7.69c16-4.78,60,6.83,92.7,16.89,5.28,2,12.88,4.49,23.49,7.54h0c4.64,1.55,8.41,2.85,11,3.76,69.1,27,146,118.86,146,118.86l14.67-9.12c-62.28-108.89-178.49-128.82-178.49-128.82-85.75-22.64-134.1-70.62-134.1-70.62s41.19-167.12-90-193.92C811.06,892.31,721.58,885.37,667.37,916.92Z"/><path class="cls-3" d="M620.07,472.67s25.51-45.68,86.52-40.61c0,0,88.57-76.13,183-10.15,0,0,100.4-16.35,174.75,14.16,49.57,20.34,66,41.67,66,41.67Z"/><path class="cls-4" d="M1608.38,646.87s97.5-202.18,272.47-188.08c0,0,33.93,3.25,36.88,42.06S1855,525.39,1811.12,531,1658.92,577.79,1608.38,646.87Z"/><path class="cls-4" d="M1613.35,606.1s21.43-180.59,159.19-215.9c0,0,26.86-6.45,39.35,22.51s-41.64,35.34-73.73,51.22S1633.87,539.85,1613.35,606.1Z"/><path class="cls-4" d="M869,838.41S688.71,704.73,540.35,798.54c0,0-28.53,18.64-13.11,54.38s67-7.45,108.43-22.82S792.16,800.74,869,838.41Z"/><path class="cls-4" d="M845.67,804.62S742.75,654.69,604.36,687.46c0,0-26.77,6.77-24.37,38.21s53.29,12,89.09,11.09S796.7,755.51,845.67,804.62Z"/><path class="cls-4" d="M2327.65,1320.5c101.26-80.87-18.67-259.2-18.67-259.2s-257.9-44.58-279.29-80.8,227.9-5,227.9-5c-25-77.31-197.85-227-197.85-227s-229.09,113.56-240.92,73.19,208-90.19,208-90.19c-52.65-62.48-165.39-93.22-165.39-93.22-172.59-24.69-195.16,198.37-195.16,198.37S1586,874.29,1471,864.45h0s-22.13-3.88-56.39-2.72l8.49,19.58q8.89-1,17.48-1.27a.09.09,0,0,1,.1,0h.25c3.6,0,8.74.1,15,.23h0c14.29.91,24.68,1.21,32,1.06h.07c44.48,2,103.5,7.08,121,20a41.77,41.77,0,0,1,7.15-8.08l-7.15,8.08c-57.19,64.61,3.51,237.35,63.11,322.41s68.26,33,89.15-35.81-36-169.22-32.79-207.59,39.69-.15,61.9,64.16-26.47,122.37,7.56,227,256.11,99.39,256.11,99.39c-51.62-60.09-67.34-201.14-45.51-216.3s99.36,170.2,119,195.81S2226.39,1401.38,2327.65,1320.5Z"/><path class="cls-5" d="M1914.49,918.74a605.82,605.82,0,0,1-9.72,108.36,598.44,598.44,0,0,1-95,230.79c-108.33,158.45-290.48,262.43-496.91,262.43-245.55,0-456.75-147.11-550.23-358A591.68,591.68,0,0,1,732,1075.77a606,606,0,0,1-7.08-285c.09-.48.21-.93.3-1.41A603.12,603.12,0,0,1,960.08,431.44q18.54-13.47,38.17-25.51a598.29,598.29,0,0,1,314.66-88.8q23,0,45.47,1.71a597.88,597.88,0,0,1,297.95,105.9h0a603.77,603.77,0,0,1,165,172.31q13.83,21.83,25.81,44.86a599,599,0,0,1,67.31,276.83Z"/><path class="cls-6" d="M1108.53,649.05c-24,38,10,104-62,86s-116-26-120,14,54,40,54,82-26,55.91-66,35.95-51.52-49-98-31-73.52,6-84-30A52.63,52.63,0,0,0,725,790.33c.09-.48.21-.93.3-1.41A603.26,603.26,0,0,1,960.08,431q18.54-13.46,38.17-25.51c18.75.69,41.17,7.8,60.28,31.45,42,52,70,26,60,86s6,68,40,66,74-2,78,24S1132.53,611,1108.53,649.05Z"/><path class="cls-6" d="M1112.73,926.87s-36.31,42.2-67.59,18-21.83-39.41-67.66-24.22-66-10-89.46,9.1-4.42,21.48-20.68,61.95-49.81,47-23.86,87.38,74.22,19.62,99.64,41,17.13,42.29,48.87,51,62.06-22.21,62.68,16.13-11.62,75.76,27.84,111.41,97.1,9.1,96.06-18.42,26.78-25.22,15.63-60.63,20-54.48,9.47-77.37-70.47-30.72-63.48-53.77,61.21-3.51,64.17-52.26-30-66.1-25.11-113.67S1118.28,897.65,1112.73,926.87Z"/><path class="cls-6" d="M1914.49,918.34a605.82,605.82,0,0,1-9.72,108.36,598.42,598.42,0,0,1-95,230.8c-15.9,5.22-32.14,5.1-48.1-1.29-75-30-19.51-111,10.5-151.54s-46.51-22.51-102-60,6-138-51-121.54-126,37.52-159-18,30-64.52,1.5-111,16.51-73.52,73.52-78,49.52-45,120-51,69,84,147,78,74.51,12,74.51,12a36.34,36.34,0,0,1,16.29,3.42A602.42,602.42,0,0,1,1914.49,918.34Z"/><path class="cls-6" d="M1847.18,641.52c-64.88,31.57-90.93-54.29-146.38-28.48-55.91,26-46.12-24-90.12-56s-132,26-128-24,70-36,84-76,78-30,78-30a43.4,43.4,0,0,1,11.65-2.64s0,0,0,0a603.77,603.77,0,0,1,165,172.31Q1835.2,618.49,1847.18,641.52Z"/><path class="cls-6" d="M1338.63,419.06s26.82-38.69-15.77-50.11-41.81,3.53-74.94,0-46.15,22.11-21.3,50.11,45,81.74,67.45,53.1S1312.21,421.82,1338.63,419.06Z"/><path class="cls-7" d="M962.62,1006.27s-1,12.05-2.74,16.47h.87s2.34-8.62,2.25-13.11C962.93,1006.43,962.62,1006.27,962.62,1006.27Z"/><path class="cls-7" d="M958.58,1024.81a3.34,3.34,0,0,0,.69-2.25c0-1.43,1.52-1.87,2-.61S959.45,1024.64,958.58,1024.81Z"/><path class="cls-7" d="M1014.22,946.11c-3.55-.17-4.13,2.1-4.13,2.1h0s-1-4.43-1.76-4.56.17,2.29-.66,2.28-1.09-.84-1.09-1.93-.87-.74-1.18.17a31.27,31.27,0,0,0-.63,3.2c-.1.12-.2.27-.31.42-.35-.64-1.36-1.81-4-1.68,0,0,.29,3.23,3,3.87a2.39,2.39,0,0,0,0,.79,13,13,0,0,0,.52,1.8h0l-.59,1.14-1,1.9c-.08.17-.17.34-.26.51-.69,1.32-1.5,2.86-2.39,4.54-.09.17-.18.35-.28.52L998,964.12c-.45.85-.92,1.71-1.39,2.59l-.56,1v-.14l-1.52,2.79-1.28,2.32-.12.21c-.93,1.68-1.86,3.33-2.77,4.92-.1.17-.19.34-.29.5-.9,1.56-1.78,3.06-2.61,4.43a48.62,48.62,0,0,1-5.14,7.43c-5,5-16.68,8.11-18.18,12.62h0a5.89,5.89,0,0,0-1.26,3.29v.09c0,.3-.07.6-.09.93v0a31.79,31.79,0,0,0,.26,5.57v.14c.57,5.15,1.86,10.51,2,11.95.25,2.6-.81,5.45-1.15,6.58-.24.79,1,9.93,1.69,15.34h2.55a60.82,60.82,0,0,1-1-11.29,81.21,81.21,0,0,1,2-11.85h0c0,2.8,0,5.21,0,5.65-.08,1.12,0,3.11,0,3.64s3.24,9.66,4.72,13.86h3.15s-4.41-11.15-4.66-15.17c-.23-3.58,2.25-11,4-15.58h0a9.46,9.46,0,0,0,3,.63c.28,0,.57,0,.86,0a16.8,16.8,0,0,0,2.86-.26h0l0,.94-.94,29.41H984c.14-3.48.46-10,1-13.49.28-2,1.46-6.83,2.77-12l-.81,25.45h2.12c.14-3.48.46-10,1-13.49.59-4.09,4.69-19.56,6-24.34l.06-.25.23-.83.05-.2a1.31,1.31,0,0,0,0-.14h0a14.2,14.2,0,0,0,.44-2.58,16.74,16.74,0,0,0-.35-5.35c-.58-2.08.35-4,.46-7.62a9.92,9.92,0,0,1,.2-1.35c.23-1.23.67-3.1,1.24-5.34.28-1.11.6-2.32.93-3.59.23-.85.46-1.73.7-2.63.31-1.15.63-2.33,1-3.53.43-1.57.87-3.16,1.31-4.74.18-.62.35-1.24.52-1.86a3.88,3.88,0,0,0,.24-1.7h0a.55.55,0,0,0,.36-.41,26.43,26.43,0,0,1,1.64-3.64h0v-.79c.28-1,.54-1.91.79-2.76.07-.27.15-.53.22-.79s.11-.38.16-.56a2.73,2.73,0,0,0,1.75.15c1.92-.29,1.28-2.38,1.46-2.85s2.17-4.64,1.69-5.53h0C1013.93,949.43,1014.22,946.11,1014.22,946.11Z"/><path class="cls-7" d="M909.19,972.07s-1.39,16.59-3.77,22.67h1.19s3.23-11.87,3.1-18C909.62,972.29,909.19,972.07,909.19,972.07Z"/><path class="cls-7" d="M903.63,998.09a4.67,4.67,0,0,0,1-3.1c-.06-2,2.09-2.57,2.75-.84S904.82,997.85,903.63,998.09Z"/><path class="cls-7" d="M979.29,890.13c-4.73-.23-5.51,2.8-5.51,2.8h0s-1.3-5.9-2.35-6.08.23,3-.87,3-1.46-1.12-1.46-2.57-1.16-1-1.57.23a39.64,39.64,0,0,0-.84,4.26c-.13.17-.27.36-.41.57-.48-.86-1.82-2.42-5.27-2.25,0,0,.39,4.31,4,5.16a3.17,3.17,0,0,0,0,1.05,16.49,16.49,0,0,0,.7,2.4h0l-.78,1.53c-.38.73-.83,1.58-1.32,2.53l-.35.68c-.92,1.76-2,3.81-3.19,6-.12.23-.24.47-.37.7l-2.08,3.91c-.6,1.13-1.22,2.29-1.86,3.46L955,919v.64c-.68,1.26-1.38,2.53-2.07,3.8l-1.75,3.17-.16.28c-1.27,2.29-2.54,4.54-3.78,6.71l-.39.68c-1.23,2.14-2.43,4.17-3.56,6-2.92,4.81-5.43,8.55-7,10.14-6.78,6.79-22.73,11-24.79,17.21h0a8,8,0,0,0-1.71,4.5.87.87,0,0,1,0,.11c0,.41-.08.83-.11,1.27v0a43.64,43.64,0,0,0,.35,7.59v-.06c.76,7.09,2.48,14.48,2.66,16.45.32,3.58-1.09,7.52-1.54,9.07-.31,1.09,1.27,13.67,2.25,21.12h3.4c-.75-4.73-1.63-11.45-1.37-15.55a113.91,113.91,0,0,1,2.6-16.31h0c0,3.84,0,7.17,0,7.77-.11,1.55,0,4.29,0,5,0,.55,4.32,13.3,6.29,19.09h4.51s-6.07-14.81-6.42-20.34c-.32-4.93,3.1-15.09,5.46-21.46h0a13,13,0,0,0,4.11.88c.39,0,.78,0,1.18,0a23.34,23.34,0,0,0,3.94-.35h0l0,1.29-1.29,40h2.92c.19-4.25.63-13.19,1.33-18,.38-2.69,2-9.4,3.81-16.47l-1.12,34.5h2.92c.19-4.25.63-13.19,1.33-18,.8-5.63,6.45-26.93,8.21-33.51,0-.13.06-.23.09-.34.13-.49.23-.88.31-1.15l.07-.28a1.35,1.35,0,0,0,0-.18h0a20.55,20.55,0,0,0,.61-3.56,23.17,23.17,0,0,0-.48-7.36c-.79-2.86.48-5.57.64-10.5a13.28,13.28,0,0,1,.26-1.85c.33-1.7.94-4.27,1.72-7.36.38-1.53.82-3.2,1.28-5l1-3.61L962,930.2c.6-2.17,1.2-4.36,1.81-6.52.24-.87.48-1.72.72-2.57a15.7,15.7,0,0,0,.53-2.34h0a1.29,1.29,0,0,0,.29-.57,33,33,0,0,0,.71-5h0l1-1.16v-.24c.37-1.31.73-2.54,1-3.68.1-.36.2-.7.3-1s.15-.51.22-.76a3.64,3.64,0,0,0,2.33.21c2.56-.39,1.7-3.18,1.94-3.8s2.9-6.19,2.25-7.38h0C978.9,894.56,979.29,890.13,979.29,890.13Z"/><path class="cls-8" d="M1044.4,654.74c0-.53-51.4-138.54-69.57-139.08s-42.39,80-60.43,77.73-19.1-27.72-29.32-28.93-69.15,89.74-69.15,89.28l228.47,1Z"/><path class="cls-9" d="M967.39,538.91c4.81-.59,2.5,9.76,6.06,9.78s8-12.73,11.52-13.92c2.66-.92,4,2.17,9.66,5-7.88-14.25-15-24-19.8-24.14-7.36-.22-15.71,12.86-24.24,28.35,6.43-.45,12.72-4.59,16.8-5.08Z"/><path class="cls-10" d="M1086.23,689.74c0-.34-34.33-92.52-46.47-92.88s-28.31,53.42-40.36,51.92-12.76-18.51-19.58-19.32-46.19,59.94-46.19,59.28l152.6,1Z"/><path class="cls-9" d="M1034.79,612.39c3.22-.39,1.67,6.52,4,6.54s5.36-8.51,7.69-9.3c1.78-.61,2.71,1.45,6.45,3.35-5.26-9.52-10-16-13.22-16.13-4.92-.14-10.49,8.59-16.19,18.94,4.3-.31,8.5-3.07,11.22-3.4Z"/><path class="cls-6" d="M1198,697.94c9.81,4.43,36.06,21.68,36.06,21.69A383.42,383.42,0,0,1,1300,709.57c-1.43-3.92-3.88-11.63-1-11.63s12.71,7,18.27,11.06a239.53,239.53,0,0,1,50.48,4.77c11.5,2.44,27.91,17.39-.36,22.44-24.81,4.44-66.38,5-133.29-8.43h0l-23.39,11.14s3.68-7.32,6.53-14.7S1198,697.94,1198,697.94Z"/><path class="cls-6" d="M1116,780.84c9.81,4.43,36.06,21.69,36.06,21.69a382.58,382.58,0,0,1,65.94-10c-1.43-3.93-3.88-11.64-1-11.64s12.71,7,18.27,11.06a239.39,239.39,0,0,1,50.47,4.78c11.51,2.43,27.92,17.38-.35,22.44-24.81,4.43-66.38,5-133.29-8.44h0l-23.39,11.14s3.68-7.31,6.53-14.7S1116,780.84,1116,780.84Z"/><path class="cls-8" d="M1697.84,757.9c4.54-25.66,12.24-56.13-26.51-56.42-40.89-.3-44.73,26.92-41.27,43.17,5.11,24-18.37,40-15.15,66.65,3.79,31.35,78.28,27.86,88.61,15.15C1725.1,799.87,1695.54,770.87,1697.84,757.9Z"/><rect class="cls-11" x="1662.01" y="725.74" width="2" height="149"/><rect class="cls-11" x="1653.24" y="785.22" width="2.27" height="33.61" transform="translate(-172.48 1008.89) rotate(-32.32)"/><rect class="cls-11" x="1657.32" y="756.34" width="26.49" height="2.27" transform="translate(126.42 1747.5) rotate(-57.06)"/><path class="cls-8" d="M1207,918.4c4.19-23.64,11.28-51.71-24.42-52-37.68-.28-41.21,24.81-38,39.77,4.71,22.14-16.92,36.81-14,61.41,3.49,28.89,72.12,25.67,81.64,13.95C1232.11,957.07,1204.88,930.35,1207,918.4Z"/><rect class="cls-11" x="1174.01" y="888.74" width="2" height="137"/><rect class="cls-11" x="1165.9" y="943.57" width="2.09" height="30.96" transform="translate(-331.98 772.58) rotate(-32.32)"/><rect class="cls-11" x="1169.66" y="916.96" width="24.41" height="2.09" transform="translate(-231.28 1410.51) rotate(-57.05)"/><path class="cls-12" d="M1116.94,1019.79c4-22.86,10.9-50-23.61-50.26-36.43-.27-39.85,24-36.77,38.45,4.55,21.41-16.37,35.59-13.49,59.37,3.37,27.93,69.73,24.82,78.93,13.49C1141.22,1057.17,1114.89,1031.33,1116.94,1019.79Z"/><rect class="cls-11" x="1085.01" y="990.74" width="2" height="132"/><rect class="cls-11" x="1077.21" y="1044.12" width="2.02" height="29.94" transform="translate(-399.21 740.65) rotate(-32.32)"/><rect class="cls-11" x="1080.84" y="1018.39" width="23.6" height="2.02" transform="translate(-357.05 1381.94) rotate(-57.05)"/><path class="cls-12" d="M1806.76,714.89c4.54-25.66,12.24-56.13-26.51-56.42-40.89-.31-44.73,26.92-41.27,43.17,5.11,24-18.38,40-15.15,66.65,3.79,31.35,78.28,27.86,88.61,15.14C1834,756.85,1804.46,727.85,1806.76,714.89Z"/><rect class="cls-11" x="1770.01" y="683.74" width="2" height="149"/><rect class="cls-11" x="1760.69" y="743.13" width="2.27" height="33.61" transform="matrix(0.85, -0.53, 0.53, 0.85, -133.33, 1059.82)"/><rect class="cls-11" x="1764.77" y="714.25" width="26.49" height="2.27" transform="translate(210.71 1818.41) rotate(-57.05)"/><path class="cls-12" d="M1587.85,697.21c4.55-25.66,12.24-56.13-26.5-56.42-40.9-.31-44.74,26.92-41.28,43.17,5.11,24-18.37,39.94-15.15,66.64,3.79,31.36,78.29,27.87,88.61,15.15C1615.12,739.17,1585.56,710.17,1587.85,697.21Z"/><rect class="cls-11" x="1552.01" y="664.74" width="2" height="149"/><rect class="cls-11" x="1543.26" y="724.52" width="2.27" height="33.61" transform="translate(-157.07 940.68) rotate(-32.32)"/><rect class="cls-11" x="1547.34" y="695.64" width="26.49" height="2.27" transform="translate(127.01 1627.24) rotate(-57.05)"/><path class="cls-13" d="M1665.57,1131.37c4.3-6.25,9.8-30.49,1.63-37.66s-36.75,12-35.92,17.88S1661,1138,1665.57,1131.37Z"/><path class="cls-13" d="M1652.56,1079s-.9-12.88-12.21-13.67-10.06,13.82-5,19.48S1653.71,1089.36,1652.56,1079Z"/><path class="cls-13" d="M1675.11,1077.63s4.61-12.06-5.32-17.55-14.94,8.3-12.73,15.57S1671.76,1087.53,1675.11,1077.63Z"/><path class="cls-13" d="M1687.06,1096.81s12.89-.85,13.73-12.15-13.77-10.12-19.46-5.07S1676.67,1097.91,1687.06,1096.81Z"/><path class="cls-13" d="M1686.4,1119.09s12.07,4.6,17.54-5.33-8.31-14.94-15.58-12.72S1676.49,1115.76,1686.4,1119.09Z"/><path class="cls-13" d="M1668.64,1020.11c.92-7.53-5.4-31.57-16-34.16s-27,27.67-23.6,32.46S1667.66,1028.14,1668.64,1020.11Z"/><path class="cls-13" d="M1632.9,979.65s-6.75-11-17.15-6.49-2.54,16.91,4.58,19.59S1638.71,988.33,1632.9,979.65Z"/><path class="cls-13" d="M1652.27,968s-1.48-12.82-12.82-13.11-9.42,14.26-4.1,19.69S1653.88,978.37,1652.27,968Z"/><path class="cls-13" d="M1671.74,979.53s11-6.7,6.56-17.12-16.89-2.61-19.61,4.49S1663,985.31,1671.74,979.53Z"/><path class="cls-13" d="M1681.44,999.6s12.83-1.5,13.1-12.84-14.28-9.4-19.7-4.07S1671.12,1001.22,1681.44,999.6Z"/><path class="cls-13" d="M1786.29,971.4c.92-7.53-5.41-31.57-16-34.16s-27,27.67-23.59,32.46S1785.3,979.43,1786.29,971.4Z"/><path class="cls-13" d="M1750.54,930.94s-6.75-11-17.15-6.49-2.54,16.9,4.58,19.58S1756.35,939.62,1750.54,930.94Z"/><path class="cls-13" d="M1769.92,919.33s-1.49-12.82-12.82-13.11-9.43,14.26-4.1,19.69S1771.53,929.66,1769.92,919.33Z"/><path class="cls-13" d="M1789.38,930.82s11-6.7,6.56-17.12-16.89-2.61-19.6,4.49S1780.67,936.59,1789.38,930.82Z"/><path class="cls-13" d="M1799.09,950.89s12.82-1.5,13.09-12.84-14.28-9.41-19.7-4.07S1788.76,952.51,1799.09,950.89Z"/><path class="cls-13" d="M1347,1104c.41-.23,46.63-32.83,73.85-28.85s29.83,60.48,29.83,60.48Z"/><path class="cls-13" d="M1368.68,1191.42s36.7,27.45,56.12,22.22,31.45-46.38,29.54-52.19-34,0-34,0Z"/><path class="cls-14" d="M1492.51,1131.58s-29.87,14.93-36.84,11-16.6-47.47-63.07-47.8-59.41,18.92-63.72,27.88-3,21.25-18.59,26.89-19.92,13.61-8,16.93,29.87,2.32,39.83,13.27,55.76,20.58,74.35,11.29,25.89-32.2,37.84-29.54,21.91,29.54,32.2,25.22S1508.77,1129.92,1492.51,1131.58Z"/><path class="cls-15" d="M1338.09,1132.9a5.16,5.16,0,1,1,7.3,0A5.15,5.15,0,0,1,1338.09,1132.9Z"/><path class="cls-13" d="M1497.22,1240.7c.38-.2,42.18-29.69,66.79-26.09s27,54.69,27,54.69Z"/><path class="cls-13" d="M1516.86,1319.76s33.19,24.83,50.76,20.1,28.44-41.95,26.71-47.2-30.77,0-30.77,0Z"/><path class="cls-16" d="M1628.85,1265.64s-27,13.51-33.32,9.91-15-42.93-57-43.23-53.74,17.11-57.64,25.22-2.7,19.21-16.81,24.31-18,12.31-7.2,15.31,27,2.1,36,12,50.43,18.61,67.24,10.2,23.42-29.11,34.22-26.71,19.82,26.71,29.12,22.81S1643.56,1264.14,1628.85,1265.64Z"/><path class="cls-15" d="M1489.19,1266.84a4.67,4.67,0,1,1,6.6,0A4.67,4.67,0,0,1,1489.19,1266.84Z"/><path class="cls-11" d="M2203.38,678.5c-17.3-9-31.16-3.33-31.16-3.33-52.94-6.22-68.38,55.51-67.66,76.76s3.14,44.05-20.5,71.64c-68.28,79.71,74.73,83.23,74.73,83.23,1.2-63.69,77.55-40.45,74.2-34C2330.85,896.29,2242.72,698.91,2203.38,678.5Z"/><path class="cls-17" d="M2002.57,940.87s-11-16.79-19.91-17.12-25.35-4.94-24-1.65,11.52,3.62,12.51,5.6-15.14,4.94-19.75,5.27-15.47,0-15.14,2.3,19.57,11.85,33.16,10.53,30.37,4,30.37,4Z"/><path class="cls-18" d="M2133.81,941.64a139.75,139.75,0,0,1-14.23,21.53c-11.07,13.85-28.12,29.86-49.54,33-10.22,1.51-20.23-.69-29.42-4.78h0c-26-11.54-45.57-38.09-45.57-38.09-4.58-12.5,2.92-21,2.92-21s52.52,11.81,57.52,9.31,34.17-86.55,41.12-97.12,30.62-16,30.62-16Z"/><path class="cls-19" d="M2119.58,963.17c-11.07,13.85-28.12,29.86-49.54,33-10.22,1.51-20.23-.69-29.42-4.78,1,.14,27,3.35,37.34-15.18,10.57-18.89,22-48.9,37.67-38.9C2122.4,941.65,2122.1,952.38,2119.58,963.17Z"/><path class="cls-20" d="M2329.74,1508.08s16,14.63,12.9,25-17.59,17.32-19.54,30-9.77,19.62-16.81,19.62h-33.54s-5.18-8.93,7.33-11.63,17.22-17.62,16.44-31.47,1.17-32.33,1.17-32.33l26.58-6.16Z"/><path class="cls-20" d="M2194.11,1514.33s5.77,62-1.27,65.41l-91.45.75s1.42-11.32,15.88-13.63,39.86-10.78,44.16-29.64S2194.11,1514.33,2194.11,1514.33Z"/><path class="cls-18" d="M2251.08,899.85s-.2,25.06-1.55,47.76c-.89,15-2.27,29.06-4.43,34-5.42,12.51-11.53,14.54-11.53,14.54l-47.27,11.59-16.62,4.06-52.42-15.65S2093.38,929.55,2103,892s24.23-63.56,24.23-63.56,43.24-9.8,98.47-3.55Z"/><path class="cls-19" d="M2249.53,947.61c-.89,15-2.27,29.06-4.43,34-5.42,12.51-11.53,14.54-11.53,14.54l-47.27,11.59-20.53-6s73.29-31.34,65.69-90.3Z"/><path class="cls-21" d="M2120.59,1006.74s-26,80.8-27.62,108.31,49.62,390.78,51.68,403.46c1.95,12,16.78,19.56,16.78,19.56s6.83,4,16.57,1.28c13.51-3.82,17.78-8.38,17.78-8.38s20.2-259.09,7.7-351.64a1466.64,1466.64,0,0,1-12.65-172.59Z"/><path class="cls-22" d="M2230.57,1003.89s39.6,53.13,43.29,89.05,5.79,162.06,13.65,197.07,36.76,102.39,36.76,211.59c0,0-3,6.26-12.27,9.59a101.64,101.64,0,0,1-10.8,3,17,17,0,0,1-19-9c-19.53-39.34-81.76-166.19-84.95-192.52-2.25-18.64-21.9-142-64.76-214.34-10.29-17.37,6.32-86.47,6.32-86.47Z"/><path class="cls-23" d="M2116.45,993.83s10.42,8.24,31.12,8.66c24.73.5,86-6.3,86-6.3a50.69,50.69,0,0,1,2.61,15.64s-74.83,18.87-118.19,2.75C2118,1014.58,2112.4,1004.06,2116.45,993.83Z"/><path class="cls-9" d="M2141.64,1023.8c-6.22,0-11.29-5.73-11.29-12.77s5.07-12.77,11.29-12.77,11.28,5.73,11.28,12.77S2147.86,1023.8,2141.64,1023.8Zm0-21.8c-4.16,0-7.55,4-7.55,9s3.39,9,7.55,9,7.54-4,7.54-9S2145.8,1002,2141.64,1002Z"/><path class="cls-17" d="M2225,1063.14s-4.48,10.46-10.16,12-10,6.73-12,8.25-5.75,2-4.73,3.59,11.27-1.3,12.65-1.82-8.21,9.65-11.35,12.8-10.18,7.66-8.46,9.76,21.66-.24,29.9-5.65,15.68-27.18,15.68-27.18Z"/><path class="cls-18" d="M2225.67,824.93s30.65,4.47,42.49,26.23,40,121.54,34,139-65.94,91.23-65.94,91.23-16.37-4.19-16.37-12.53c0,0,36.22-85,35.61-91.61s-34-57.6-32.75-80.64S2225.67,824.93,2225.67,824.93Z"/><path class="cls-17" d="M2196.84,830.91c6-2.76,5.73-7.88,3.12-15.21-3.16-8.84-5.67-21.88-5.61-38.22L2192,778l-39.91,7.9s.91,12.56.94,24.39v.3c0,10.27-3.77,19,5.29,23.73C2167.61,839.16,2188.38,834.81,2196.84,830.91Z"/><path class="cls-24" d="M2152.26,785.85s.91,12.56.94,24.39c22.33-.63,34.13-21,39-32.29Z"/><path class="cls-17" d="M2144.81,797.06s52.83.87,52.87-32,6.88-55-26.86-56.92-40.3,10.61-43,21.59S2131.06,796,2144.81,797.06Z"/><path class="cls-11" d="M2146.76,707.3s14.47,38.61,36.67,44.32,31.83-.24,31.83-.24-17-13.53-20.57-37.14C2194.69,714.24,2157.67,688.92,2146.76,707.3Z"/><path class="cls-11" d="M2150.35,710.43s-10.73,4-15.15,11.84a53.27,53.27,0,0,0-7.14,30.21s-10.9-26.24,1.35-41.09C2142.4,695.65,2150.35,710.43,2150.35,710.43Z"/><path class="cls-9" d="M2155.13,777.52s-.92,3.88-10.56,3.28c0,0-8.11-.5-7.86-4.76C2136.71,776,2144.57,773,2155.13,777.52Z"/><path class="cls-25" d="M1008.54,1459.83c8.47,3.43,38.73.65,39.71-1.76s-18.81-25.48-27.28-28.91a16.55,16.55,0,1,0-12.43,30.67Z"/><path class="cls-25" d="M1084.88,1474.27c-4.76,7.81-6.91,38.12-4.68,39.47s28.18-14.45,32.94-22.25a16.55,16.55,0,1,0-28.26-17.22Z"/><path class="cls-25" d="M1044.09,1533.59c8.71,2.78,38.67-2.29,39.46-4.78s-20.69-24-29.4-26.75a16.55,16.55,0,0,0-10.06,31.53Z"/><path class="cls-25" d="M1088.16,1562.93c0-.69-3.37-69.3-40.94-104.72l.8-.84c37.91,35.74,41.28,104.81,41.31,105.51Z"/><path class="cls-25" d="M1213.55,1461.31c-5.28,3.5-26.21,5.8-27.21,4.3s9.25-19.9,14.53-23.41a11.47,11.47,0,0,1,12.68,19.11Z"/><path class="cls-25" d="M1163.72,1481.68c4.31,4.64,10,24.92,8.64,26.15s-21.14-5.91-25.44-10.55a11.46,11.46,0,1,1,16.8-15.6Z"/><path class="cls-25" d="M1199.62,1516.31c-5.53,3.09-26.57,3.79-27.45,2.21s10.73-19.13,16.26-22.23a11.47,11.47,0,0,1,11.19,20Z"/><path class="cls-25" d="M1173.76,1542.32c-.08-.47-7.3-47.51,13.3-76.76l-.66-.46c-20.79,29.52-13.52,76.88-13.44,77.35Z"/><path class="cls-25" d="M1145.49,1542.74l-2,0c-21.58-96.7-61.5-162.59-62-163.48l1.64-1C1083.67,1379.13,1123.88,1445.45,1145.49,1542.74Z"/><path class="cls-9" d="M1059.81,1372c4.28,3.64,22.48,7.88,23.52,6.66s-6-18.52-10.33-22.16a10.18,10.18,0,0,0-13.19,15.5Z"/><path class="cls-9" d="M1084.15,1353.67c-2.69,4.94-3.09,23.62-1.68,24.39s16.87-9.73,19.56-14.67a10.18,10.18,0,1,0-17.88-9.72Z"/><path class="cls-9" d="M1106.76,1370.23c-5.57-.69-23.11,5.77-23.31,7.36s15.23,12.15,20.8,12.84a10.18,10.18,0,1,0,2.51-20.2Z"/><path class="cls-9" d="M1098,1396.19c-1.33-5.47-13.59-19.58-15.15-19.2s-6,18.55-4.63,24a10.18,10.18,0,0,0,19.78-4.81Z"/><path class="cls-9" d="M1070.39,1398.93c4.56-3.29,13-20,12.06-21.27s-19.43,1.48-24,4.77a10.18,10.18,0,0,0,11.92,16.5Z"/><path class="cls-26" d="M1079.1,1377.61a3.35,3.35,0,1,1,3.3,3.4A3.35,3.35,0,0,1,1079.1,1377.61Z"/><path class="cls-25" d="M1130.61,1442.55c-4.51,7.52-6.37,36.61-4.22,37.9s26.94-14,31.45-21.57a15.88,15.88,0,0,0-27.23-16.33Z"/><path class="cls-25" d="M944.22,1457.62c.48.73,22.28,37.59,42.76,96.85-.84-.24-1.56-.36-2.41-.6-20.23-58.3-41.55-94.44-42-95.16Z"/><path class="cls-9" d="M919.11,1450.9c4.59,4,24.25,8.79,25.39,7.49s-6.33-20.12-10.92-24.12a11,11,0,0,0-14.47,16.63Z"/><path class="cls-9" d="M945.67,1431.34c-3,5.31-3.62,25.54-2.1,26.39s18.38-10.34,21.35-15.65a11,11,0,0,0-19.25-10.74Z"/><path class="cls-9" d="M970,1449.54c-6-.82-25.09,6-25.33,7.69S961,1470.56,967,1471.38a11,11,0,0,0,3-21.84Z"/><path class="cls-9" d="M960.18,1477.53c-1.38-5.93-14.48-21.35-16.17-21s-6.67,20-5.3,25.93a11,11,0,0,0,21.47-5Z"/><path class="cls-9" d="M930.25,1480.18c5-3.51,14.3-21.47,13.3-22.89s-21,1.38-26,4.89a11,11,0,1,0,12.71,18Z"/><path class="cls-26" d="M939.92,1457.2a3.63,3.63,0,1,1,3.53,3.72A3.64,3.64,0,0,1,939.92,1457.2Z"/><path class="cls-25" d="M980.72,1497.34c-3.83,6.23-5.64,30.45-3.86,31.54s22.57-11.46,26.39-17.68a13.23,13.23,0,1,0-22.53-13.86Z"/><path class="cls-25" d="M1259.28,1560.81l2.13-.34c8.39-108.46,41.51-186.29,42-187.35l-1.94-.84C1301,1373.35,1267.62,1451.7,1259.28,1560.81Z"/><path class="cls-9" d="M1325.85,1362.21c-4.08,4.62-23.21,12.07-24.53,10.9s3.69-21.07,7.77-25.69a11.18,11.18,0,1,1,16.76,14.79Z"/><path class="cls-9" d="M1296.54,1346.07c3.69,5,7,25.2,5.63,26.25s-19.86-7.94-23.55-12.89a11.18,11.18,0,0,1,17.92-13.36Z"/><path class="cls-9" d="M1274.54,1367.6c6-1.62,26,2.67,26.49,4.37s-14.66,15.57-20.61,17.2a11.18,11.18,0,0,1-5.88-21.57Z"/><path class="cls-9" d="M1288.1,1394.45c.6-6.15,11.72-23.39,13.47-23.22s9.37,19.22,8.78,25.37a11.18,11.18,0,0,1-22.25-2.15Z"/><path class="cls-9" d="M1318.54,1393.13c-5.46-2.87-17.23-19.69-16.41-21.24s21.34-1.42,26.8,1.45a11.18,11.18,0,0,1-10.39,19.79Z"/><path class="cls-26" d="M1305.76,1371.31a3.68,3.68,0,1,0-3,4.21A3.68,3.68,0,0,0,1305.76,1371.31Z"/><path class="cls-25" d="M1254.34,1479c6.08,7.47,12.63,38.8,10.5,40.53s-31.47-11.07-37.54-18.54a17.43,17.43,0,1,1,27-22Z"/><path class="cls-27" d="M915.21,1579.74s12-31.63,55.71-33.61,73.76,23.83,109.85,11.91,95.83-38.81,152.34-20.89,66,42.59,66,42.59Z"/><path class="cls-27" d="M437.67,1578.74H540.92c5.54-4.69-3.83-15.35-13.61-16.06-4.25-.33-9.62.56-15.76,1.86-1.42-18.87-9.53-103.71-40.11-100.3-34.38,3.82,0,37.36,9.72,57.22,7.2,14.71,14.8,35.81,18.27,45.76-2.8.61-5.69,1.2-8.64,1.74-4.55-14-21.51-61.06-43.08-58.32-25.31,3.21-15.14,22.09,2.81,33.29,13.16,8.24,29.33,19.94,37,25.6a109.93,109.93,0,0,1-20.19,1.62C449.65,1570.73,441,1575.94,437.67,1578.74Z"/><path class="cls-27" d="M1902.37,1578.74h-77.79c-4.17-3.53,2.88-11.56,10.25-12.1,3.21-.25,7.25.42,11.88,1.4,1.07-14.22,7.18-78.14,30.22-75.57,25.91,2.88,0,28.15-7.32,43.11-5.43,11.09-11.15,27-13.76,34.48,2.1.46,4.28.9,6.5,1.31,3.43-10.54,16.21-46,32.46-43.94,19.08,2.42,11.41,16.64-2.11,25.08-9.92,6.21-22.1,15-27.89,19.29A82.71,82.71,0,0,0,1880,1573C1893.35,1572.7,1899.85,1576.63,1902.37,1578.74Z"/><path class="cls-25" d="M1463.56,1570.86l-1.59-.25c-6.27-81.1-31-139.29-31.38-140.08l1.45-.63C1432.39,1430.7,1457.33,1489.28,1463.56,1570.86Z"/><path class="cls-9" d="M1413.79,1422.37c3.06,3.46,17.36,9,18.34,8.15s-2.75-15.75-5.81-19.21a8.36,8.36,0,1,0-12.53,11.06Z"/><path class="cls-9" d="M1435.71,1410.31c-2.76,3.7-5.26,18.83-4.21,19.62s14.85-5.94,17.61-9.64a8.35,8.35,0,0,0-13.4-10Z"/><path class="cls-9" d="M1452.16,1426.4c-4.46-1.21-19.46,2-19.81,3.26s11,11.65,15.41,12.86a8.35,8.35,0,1,0,4.4-16.12Z"/><path class="cls-9" d="M1442,1446.47c-.45-4.59-8.76-17.49-10.07-17.36s-7,14.38-6.57,19a8.36,8.36,0,0,0,16.64-1.61Z"/><path class="cls-9" d="M1419.26,1445.48c4.08-2.14,12.88-14.71,12.27-15.88s-16-1.06-20,1.09a8.35,8.35,0,1,0,7.77,14.79Z"/><path class="cls-7" d="M1428.81,1429.17a2.75,2.75,0,1,1,2.29,3.15A2.75,2.75,0,0,1,1428.81,1429.17Z"/><path class="cls-25" d="M1456.07,1453c-4.54,5.58-9.44,29-7.85,30.3s23.53-8.28,28.07-13.86a13,13,0,0,0-20.22-16.44Z"/><path class="cls-25" d="M1444.91,1520.29c4.71,2.3,15.13,16.29,14.48,17.63s-18.1,1.75-22.81-.55a9.5,9.5,0,0,1,8.33-17.08Z"/><path class="cls-25" d="M1509,1570.86l1.82-.29c7.2-93.11,35.63-159.92,36-160.83l-1.66-.72C1544.8,1409.94,1516.16,1477.19,1509,1570.86Z"/><path class="cls-9" d="M1566.15,1400.37c-3.51,4-19.93,10.36-21.06,9.36s3.17-18.08,6.67-22.06a9.6,9.6,0,0,1,14.39,12.7Z"/><path class="cls-9" d="M1541,1386.52c3.16,4.25,6,21.63,4.83,22.54s-17-6.82-20.22-11.07a9.6,9.6,0,0,1,15.39-11.47Z"/><path class="cls-9" d="M1522.1,1405c5.11-1.39,22.34,2.29,22.74,3.75s-12.58,13.37-17.69,14.77a9.6,9.6,0,0,1-5.05-18.52Z"/><path class="cls-9" d="M1533.74,1428.05c.51-5.28,10.06-20.08,11.57-19.94s8,16.51,7.53,21.78a9.59,9.59,0,1,1-19.1-1.84Z"/><path class="cls-9" d="M1559.88,1426.91c-4.69-2.46-14.8-16.89-14.1-18.23s18.32-1.22,23,1.25a9.59,9.59,0,1,1-8.91,17Z"/><path class="cls-7" d="M1548.9,1408.18a3.16,3.16,0,1,0-2.62,3.62A3.16,3.16,0,0,0,1548.9,1408.18Z"/><path class="cls-25" d="M1509.53,1475.67c5.21,6.41,10.84,33.3,9,34.79s-27-9.51-32.23-15.92a15,15,0,0,1,23.22-18.87Z"/><path class="cls-25" d="M1530.43,1512.8c-5.41,2.64-17.38,18.7-16.63,20.24s20.77,2,26.19-.63a10.91,10.91,0,0,0-9.56-19.61Z"/><path class="cls-27" d="M1422.9,1581.74s15.39-16.77,48.52-10.7,51.32-11.72,57.38,10.7Z"/><path class="cls-7" d="M1085.28,382.67s-51-35.2-124.54-31.88c0,0,82.39,7.29,122.57,66.65,0,0,42-46.51,99.72-49.58C1183,367.86,1142.18,356.33,1085.28,382.67Z"/><path class="cls-7" d="M933.78,333.19S894.51,305.73,837.61,308c0,0,63.68,6,94.48,52.1,0,0,32.68-35.77,77.36-37.89C1009.45,322.17,977.9,313.07,933.78,333.19Z"/><path class="cls-7" d="M799.55,292.63s-36.77-23.46-88.45-19.24c0,0,58.16,3,87.95,43.75,0,0,28.35-33.8,68.9-37.44C868,279.7,838.91,272.63,799.55,292.63Z"/><path class="cls-7" d="M728.89,240.81s-26.28-13.5-60.86-7.39c0,0,39.41-1.64,62.07,24,0,0,17-24.58,44.1-29.59C774.2,227.78,754.17,224.85,728.89,240.81Z"/><path class="cls-7" d="M1019.65,186.67s-25.54-14.85-60.39-10.56c0,0,39.44.42,60.74,27.16,0,0,18.24-23.66,45.58-27.25C1065.58,176,1045.73,172,1019.65,186.67Z"/><path class="cls-7" d="M1138.9,301.81S1104,276.68,1052.82,278c0,0,57.14,6.16,84.25,47.92,0,0,29.78-31.74,69.93-33.1C1207,292.83,1178.78,284.27,1138.9,301.81Z"/><path class="cls-7" d="M1095.36,234.07s-33.16-22-80.36-19c0,0,53,3.7,79.5,41.34,0,0,26.41-30.37,63.46-33C1158,223.39,1131.58,216.47,1095.36,234.07Z"/><path class="cls-28" d="M90.83,1579.74H2535.18a2.82,2.82,0,0,1,2.82,2.82v1.35a2.82,2.82,0,0,1-2.82,2.82H90.83a2.83,2.83,0,0,1-2.83-2.83v-1.35a2.83,2.83,0,0,1,2.83-2.83Z"/></g></g></svg>